<mxfile host="app.diagrams.net" modified="2022-05-03T13:29:34.289Z" agent="5.0 (Windows NT 10.0; Win64; x64) AppleWebKit/537.36 (KHTML, like Gecko) Chrome/101.0.4951.41 Safari/537.36 Edg/101.0.1210.32" etag="F41xv9IQqPyk0nLpKTyK" version="17.5.0" type="github">
  <diagram id="aJToKunfJCCb1C_aL8gg" name="Page-1">
    <mxGraphModel dx="1185" dy="635" grid="1" gridSize="10" guides="1" tooltips="1" connect="1" arrows="1" fold="1" page="1" pageScale="1" pageWidth="827" pageHeight="1169" math="0" shadow="0">
      <root>
        <mxCell id="0" />
        <mxCell id="1" parent="0" />
        <mxCell id="4n8iimfxromp_NEZm5Ki-1" value="" style="shape=image;verticalLabelPosition=bottom;labelBackgroundColor=#ffffff;verticalAlign=top;aspect=fixed;imageAspect=0;image=data:image/gif,R0lGODdh7gMRA3cAACH+GlNvZnR3YXJlOiBNaWNyb3NvZnQgT2ZmaWNlACwAAAAA7gMRA4f////v7+/39/fW997/7/8AAADW1tbe3t6lpaXm5ubOzs69vb3FxcW1tbUhISExMTFra2utraWUlJScnJxrc3NjY1qMjIx7e3t7e4QZGRk6QkL/9/dSUkpaWlopISk6Ojre9+ZCSkq93sWl3q3F5tatxbX3nIx71oT31sX3hHPv/+/FWnPOGXOUGXOMWnPe9+/WxdaM1px7rZz35t7Oc+Yh5kohrRn3taVrrUrFc0K95oSEc0IQCAhKGRkhrUpjvXtSc2NaSlr3vcVrtd4Qtd69hHMZOqUZEKUZY6W9tYRr1oRKUiH3cykACAgZe2v3KYxr5t4Q5t5z3qX3e2NKtXNaWmMZOuZaOqWctd5Ctd4ZEOZaEKUZY+ZaY6VCUkpKhCHv1u+UhKUZhKX3Kc57rXv3xRkZexBC5nsQGWsZrXsQ5nu9td5aOuaE5hnWtVLOOrXWtRmUOrVaEOZa5hmttVLOELWttRmUELVaY+aUY+bOY7UQ5hkQIRCc5t5C5t7FOhCEOhDFEBCEEBDFYxCEYxD3KRn3KUpCUmP3e70ZhOZahKVKY0r3xUoQSmv3a1LO3q0Ze0KE5krW5lJC5q3OOubW5hmUOuZKraVCGWsZra0Q5q2ErRkZUhBa5kqt5lLOEOat5hmUEOZarRmUY63FOkKEOkLFEEKEEEIZCDGctaVahOaUhObOhLUx5hnFhBCEhBBjGWv31oS9pbUZSjpKIUJrhHP37+/W797W/95jY2u9nITv9+8ZMRDe1t57jIS9tcX3c/f3Ifdra3Pete/3/2tKOhnv//+Me4wQMTpre2OtnKUQITqUhJScnKXe795aY1rW785SSkrWta17hHu9tb0pITpKQkre3u97hGOcnK2UhHMZCAAxMTqMhGspIQjm3ube3s737/9KOjopCBlrc3sICBmtpbWcnIS9zsW9ta3e1s5jWlopISG1vbXOxcVrY1q1taXW3uZra1oAEADe5t6cpaUZCBnv7/fm3t739//v9/fW1sW1xcXW3t6lraXOzsUI/wABCBxIsKDBgwgTKlzIsKHDhxAjSpxIsaLFixgzatzIsaPHjyBDihxJsqTJkyhTqlzJsqXLlzBjypxJs6bNmzhz6tzJs6fPn0CDCh1KtKjRo0iTKl3KtKnTp1CjSp1KtarVq1izat3KtavXr2DDih1LtqzZs2jTql3Ltq3bt3Djyp1Lt65dnQEA5N3LN4Dfv4ADCx5MuLDhw4gTK17MuLHjx5AjS55MubLly5gza97MubPnz6BDix5NurRpynpT583JV69h1bD3xp4tuzbt27Zz496tuzfv376DAx8uvDjx48aTI1+uvDnz586jQ58uvTr169azY9+uvTv3797Dg/8fL7686sCu/aaOqf7xgcDvAcf/O99v/QD388PfL58/ff/2AYifgPr1Z+B/BwaY4IALFojggwpCyKCEDkZo4YQXVojhhhp2SOCHDYJIoYgZksihiR6GqOKIK5bY4okvpsjijC7SCKONMtao44075sjjjz4GieKQMRKJo5E9IkkYbC3Vxth780H5X5QTShkglVhOqeWVWw6YJZdgetmllWKGSeaZVab5ZZlsormmm2OqGeebcppZZ5t3wmknnXzO6eeef+LZJ6CEChqonoYWiuiieTY6aKKQMvqopIc6WumkliqaaaSbUqoppqBeKuqno0K64WEsDXbAAQq06uqrsMb/KuustNZq66245qrrrrz26uuvwAYr7LDEFmvsscgmq+yyzDbr7LPQRivttNRWO+2q9a23mkmDKWBBBw844AAPGZDLg7nmlqtuuuyu62678L4rb7z0zmtvvfjeq2++/O7rb78A/ytwwAQPbHDBCB+scMIML+xwwxA/LHHEFE9sccUYX6xxxhxv7HHHIK/LxzgOhJBLBPetR5KT+F3wAA9NFCDzzAXELLPNNNecM8437+wzzTzrDPTPMwdtNNE9D6100UgLzfTSST8tddRUO1310VBbrTXWU2/dNNdXfy121mB7TfbYXZetNtphn+122mybDffbbc9td914y5332nTr/+0333f/HTfgew9ueN+EC4744YEn7jjjeeecc8myOAOYyiCtFpgCHfAg+eeghy766KSXbvrpqKeu+uqst+7667DHLvvstNdu++2456777rz37vvvwAcv/PCtO2BBtttmnl4AC4RQdAcXTBDB9PVMH0H11mev/fbcd+/99+CHL/745Jdv/vnop6/++uy37/778Mcv//z012///fjnr//+/Pfv///pw54AqUe9CeTiATPjwfGuMYP2jIQ+B4DAzB4wAQXc5YIYzKAGN8jBrQQAHRfwXAEycI4AvMAvtjCG8gIzARGGwIIdjKEMZ0jDGtrQJRIQITd+MYMTBsAWAADiR//owzmZOQCGN0yiEpfIxCYy0Reem0curhEfzG2kP/VwgMwu4MQuevGLYAwjWg7gvAKI4x8HAINfVECAzA3IAp47ohjnSMc62vGORVFGBgqgwANYzi8bUOEV+5MLmT0Aj4hMpCIXyUiRkFFmuVjVXwCwAY/4hYozKGQBDtnITnryk6D8pCZDgC2/3EMFHAmACuzjx1GG8pWwjKUsl3gBQ0pSPW3kCAFYeQBNimOWwAymMIf5llpuUgGlVOUVXTMDbFVAZhogpjSnSc1qWsWYD0hmXnKZkVWaEFua5KQ1x0nOcppzJ9hE5i0JgMqMEGCX+DlALw7QAZmF4Jz4zKc+90n/knTeMgCV1Agq6bOPXsrsl/xMqEIXylCFpBMcklylIDOiygBQcVX1LEA0G8rRjnrUnNiEQT/WScmN3CMAzURmOD/K0pa6VJbpLKgalakRvrwAWxm950t3ytOe2jGkI/0jAQI5SHyw6gDPNKNPl8rUpiYxnSONTzsxwk54ggGn0HSqVrfKVbvE9ADX8MtQUxkAZxx1pV1Nq1rXWhZ/3hIAU7XIBrxpn4LmlK14zater2lIBcDAj5Mk66r+6su9GvawiDVKSAtaxeRZ5B4bICg9s5rYylr2sjXB5j6iGliNGIOVI0UrZkdL2tL2s69/raIQLwLEH5qwF8i8q2lnS9va/1YEm/0oaFjVQ1ajqvSgtg2ucIdrEGNWQwGczcs9aiqfA4AjoxslrnSnW9p0qrOzzF3VbzdJ3e56N7FujQ87a+oaKkJUtt9Nr3rT+tXdsnEjn0XpWYG73vrad6ma/esfAZqR1vrlpn+F7n0HTGCWAvWtE6VoPAsq2gI7+MH6/Op8VnsR1wbgqiNFL4Q3zOFqHriKHfGLWZGZVIR2+MQoBqaEUejYigQgvlctaBUom+Ia29iTH+YtWc0aWkPeuKH3UAA6WnwSAtxUPcbAVoJ/HMv2Xg4j/rXoUTXM5CUqIHpEVkAEEBIBDGw5IzMIgThgwK0DGCQCQbiABfFxgQ5MgP/IBTnAAsxcZTxC9a0hlq86DKrUOjMxAjJbwEEOeA2DBMB5HdDINWIm6JHcIwK58IVBLFAAOQYAgReAM34WMIEqeGOKzMvG9axXvWzAo9B+VqJ1b7lK5l7yALmdsUZTbeUHNMECBlHAy75MkAWMowm8vsgBPIeOlRVSjgSZQAFCkBcwdGAewR7IASRAgRCMQ2YZeOEBOMBHcmWgXJ57ABJpXcPwijXPI+azOMldwwAIY9mOVXYBEl0QZsxD3DXlQwEaPRJ0XDsXAgnAciPAA1IC4AWdm0AbBT4QdHiuXMuOgDteMIN6hkAYGM/FBZyHb3aXu6/IxMca4SwRvlwVo/b/9PgNle2A5AUgnHQeyDMKAHCDfHZVJzwIbyU57AK4oyD/pXDAS7nkSX5zWwFIRqXzMoFzREAYPKBgBCZg6+hNwAL7GAgYLGABeFygCZkWCD15wG+BENzgKp+hZpPJzYzEd8TgKGzaaaiAcwV7AQiUGa4H4gxuFEDSQId0CNgRggsswOUGXMACvPCA4+2x7AewQC6OEXO9LGDjDxBHLpRR+QNgwAIKmICY3zwQcxR8HxuoRhOa4DnWn6tonsvGQXKYC81VIQPRXkDUKz/3DaYztWKNa0WAaItXw1rAvZdhP7jBAwxsq5YPsPi2IpCBcZSgIAoIgsy2UQDu88AXYJC2//MGz8cLwEDfv2i48xwQgW29IIR8LMA85N8BJC5gXJ2TWbAD0I/lGuMCF2ABVRB1vjABGPAyVWAB06BmNkdpmbZcY1d2AHB2vJd8GHRgf/RebsdM88VdFthBAUBpD7Aaj2QB6MBH/FZLIdALBKFr3bd5JTABGcUBLxBwZcQDwoAyL7BHxQYAeFdp7TcQL8dHVRABCmAOvnBtDtBoCqBFTeANXoZqOhcABFACBXcAtoBw21APrjVVCsABuZALGlBpHRAC7fcMTcAM2LIq2RB14/aBF7RiVCh8w1d837RnVAaHGARoPFCDAKAMPLCEASAOYDcQzsNFA3EN3PYAEeCHBP8QeTLDDJX0SAUQdgDQcz8XAVrUcQNRSw7AhUKoAB9AczNgDPfHR/WwXAHHadbTdgTXAcsVAB0AbAdRAjPDfTOTafXEB+LSi/r2AP2ghxmEW3/lXm2HEay0XSYmjBh0AFqkDAIxYx3AdJVWaM5YABMghIBWANEmEJTGAxYUANFwTELoOQtQD9f2QtiHQNpwEP3gAE2QjU24bKooEP3QAd82DhqQPFZIby/HA90IAGAgPREwhiEgPQoQABsXBCHQAV5QhgyZC2/IjHMhhyRXcjAGa89FYxR5F5NFAfiBQNkIAA5HdgDQQsgGANdQT7lQjwRxjdl4aDT3knuEjwVQBRX/CEcZUA+sAiuPxEWnuHfSlgsh4ADzUA0qcHlcV0+NZwEuQ3Nch2UGgUBCuTwWNiAdeRd31lg71oHrlpV0YQwsFwASsA3INoTT+G4dEHMHgEABqRcXIEV+cYgEcQ17xEcUMAMHQQF8VA0P8JeA+Zeew2xNyAMjORAbsCrKNoKatA0x43oiRDOcKBBtSHMRUGjuYAETsJkRIGqbWQ/MIIFgWUyo9U8aEWUxNlnLNpp3sQB8hA6HOFF8qADigI0tCDMTKRD3QGkd0EDOU5U9N0KiKRDalwEfEJjIGQIQYAt15wAlcIxmx10RcAHCYAHVsGxRaWsd4JS5QHrSlnch8ADa/+BuCdQEjskD8zdvrCkXmhVUDjRIzuAMhEVf6zkXlzZvvxZs16BFNhls1zicAEAAvrANHXBCv0kQAaBFe/QAwzlzz0ArB7BnJOkAuMdlHjgQ3HaYuQCQCWEB9xZ18MgMEdABuUAB8Fd4F5ALblafcPF7pslcxUdFGcaRLPoWQygza4mgxrRsnXegB/ECv7lLtQmcnvMtmxQBS1ZLHeAMCEFFAqF7DpB+B5ENFzqB5fJlskiLB0FwDyAMfHAMUFQFBYFAAFqja9Geb3WRJSdfChB3PmamcEEAEZCehzkQdSczwuByIpibsmCOeuGjAgEG+qYA1+AFI+SdTzou0GgQM//AASEgaE2YAQAKaA4QUACggnSmhbKXayFwa3CUDN6iDEkGUS54PEcFp22xarulphDxYsanmjqFqm5xpykphGPIjQZxjRRQeR+EQLV3iYB6iZ5jQZNlmMkzY+pIEAiHgj4YiD1oEPVwoW1ZiQOBD7PYjZOVTczQBHkqELoWiFo0QuMyb6wqq16RY7KhEfCUbnJnrmwhk79aEBswAaz3rARBcBEHJROgRciGD8H6An4Kl1u0LQrAcW+GHxOgfQWwd+gwLpPqgY+0hIlYTxOwZGRkmCfJA/HKOQ8QAiEQbh7rAPHqrmZhkRoxV7awSkbVC/sga9FFsmlBALmwDdd3EPv/kG3ht6VaBK4ws2xIdJ912nPPqpCQtC3/4DzgygdRxAyCtAAZILEHoQzcJZML+5K1WacDsQB754BIByXXebANBLNnga5WZBHwJKPqJrZrAQ/1hxDGsJ0kBwMuEzMFdzwI+i37p6LqQBD3IIMdEIRiZwEhcJcOUAULsFq9JJEHoQCGurAH4A7JoLhCWAUOMAFCF3DeKJcH4ZZqmxYm61l2mFKw2rlpgZUI8R4LgR8KsADI1GKSFGcH4JJityoGAVsL8AsJWRC20EOXS3Xdt3pdagEoQ4VwxTyKtwARwHVvuJsFAAF58VbTumX/RbukCxbECFjpihGVNL3KWL38NK3c/1ACsnABO/uX4uCx0dCQXiAO1TAuyUoQ2kBzqmQBmdexZVQyHpt5Nee9XWFMR5Rc5eoQrhpPzoV8/ItPB9BmMBQAmVkFHxs0NKNAjnUPhdQB+CCzTdCL7NCx7NCL4yKmB8wV+ZWmG2GHvpW2IYxPRmVoB/ALU7eZXMd10lMPuSl6F1CDCpAOihcr7vAPLvwPKbwViwVW2HURgWSH8jS6QcxVq4IPS6wWuOWe2WsRKhRZ8dSm7frEWnzAqzYfp5keF3WPNLrFZKy25jbFyMimKFzGbCy2XVzEFlFRd6jEbVzH5nrGZVsR8KRdfLaMdvzHLPrGOoaMroFhGzlrgJzI9f+JxwHcEG/nlYocyaMpyI28EMT3auDQC3koyZxsgYzsWRzYvZ08yh9IySVsh2hrwKS8yir3yfDJKm5apaw8y6mmqnDsYhmJcqtJy7zsZ67MXOxKn708zDZmXf3QQINsEVFmVP1wyC9LzNDcYb+sYKq7xtF8zRBmyq4WT/O0ydj8zfWFx3QYx/YhyuB8zvZFydBJEXyxKuc1xugcz9QlzoMkZdv1lfKcz8S1avu1zhPhX83UD+rgzfpc0LNFzzWlAmBwU+Zs0A5NW7Z8bhkRi/E0o4j80BhdXX2VTHC1Ed4kug2W0SJdWersThtwUt8UWyk30iwNXhv9VuMsEYLESnv/lsUtfdN4tWoiJ9FGbMUXppGqjNNCzV4vXUUxLdOuEcyyPNRM7VSCrIHaW1GpSdBNXdUvdcbjpa4iJp99bNVejV+GBAOMtUb+HBGB5E2pDM9fvdYdhaa7ldXaC0++Fcv4PNKXKxMB0Co2gbo7kcwhVoEj7aJeLFDpkcRUvcoBYITsjEwloboJMcgHUEEPpNfFxxDqINl4sZmNjA+M7ddAx2mVjBHqIKVtjFsF9Ud5zM7J2NXRHAAYMJKsagtmhrq5UJUFMWdDNxEEi6i5ijICoQLK8Ja9fXgM0Sq7PWerC9gBZw4MmDl6HXDGnbrIuxcTEA0kxzwxl9gVxCrEfbpX/xfa3jo9JFfZCKpl3V3Ggn3LFFFVFe3MkZzXyn1mgqa6l4t0yBsBQWZ4B3EAIyq9zJO7DJHXXMeWlqhzoSkQBlQCOXu66SBqB17cwkuCAfgeuQDEOsffM3zeV8QMhylnx+PZehEBzOALX6YAEtAPTqxzyWt/J8M8+6u7eT0BwV0Pe+sQ/J0NAqjhcYbbs6sAgNcQCqAOsnvHfZVcqT0RdAXJbOy6EY4Qq2UMFnAMCam1LQbf3uoFyITZBsFpIbCpeT2NCyFnl+cAORpwBW5o9WABv5AOYejbhra6BtQB09DIF7CrV6W18gh6Ose6+wCaubAOuYkR9ZCX6pHAEaB4Vf++AMzgDLLwZlcGmr6g3PT0Zquy4tpNZNcAD72ADhLwLZG+EM6QkL9QQSHIDBfpZnuxKvCgDERmH70mAVJCsp8LZYWNVbtcxo/Lq7kAoDcnEGxe2+8B4APBnLWtQiE4naBnqUIIAwEwAT8nEL8wsiouvJr5vPZht4amDpfXAckQBPWg7HE2ARdwDipFZ8araUZ4edWDkBIQ6Ap5hIcXeVhLUYL7C84wZ5IHw2+Y10FYPRMYAsxQD+ug3DDQiFzXmRageLzda5GuDAnpDhfw7AnBadk9AUOGEC1DemDVDxYAZ7bAaQOxXBPAuvrtrge2W0ceEQtXzrHsx1tcBYgodtL/ThAEoGVGJQzncNR68QvnMAFO3Av1UAXjYIbCFwC9oAIqMPIBN3XgjhAKkA1mdukK2er1oAzoMAGmBuBwdgDm0Cp67gzKsHHzvgFhJRDa8EIyWJ3x/XJC1p3NbttGfA0jmgz4kQvMoI4LwHlonpASoAwvwAwlMAMWAA4654cAIA5q1mYXALgHsQDCENkUMGcYUKYBWgLMoA5l5Rcj3/TeSup6MeUXAGLY1/HJlvBcJ+t9NdYgjuQoPViq+cxaPOl6UXzS89jwYA4lkIALvt/oELsCwZxa5gUAugDuQACa6a1n/tgXkA7qkQ3JcInHoGlBFPoB4AuyAAD7IOz3qnEN/7kq1R49BpH0NY4OkNqQu65puXAOvwAP+xAA9TDvFSFnuZAMoUkA9SAO9TCeAVACgP1yAXgyAAEgAJgJEwIAQJgQgDpmCSNcA2AhRAcMBxReXFBhwYIIAQ5YUHBRpLILESTkshBgQkiRAVwKVBBTwUeUFn6pEKngggKXBy3kcubOgkiiRY0eRZpU6VKmTZ0+hRpV6lSqVaNeKFDgAYx+Bw68PGgVocsXB/YdyJX1gVi2bd2+hRtX7ly6UI1pMxhAgQq0Fou+uGAhQq5/xg7wJIru2IUFCVWYm3BhHwEA9y4qoKCuxE4AgwMYSzr4QogJABYcE3jBWcuZAjuEtFBPYP+ECEQjK7Bg4UCErwAm1L5I4LdlhLsXuPvHmWiAwBZ8ZVMQobRYnccjoItgYcGvjr38tgSpsnaAeh9yXfie8CNL0O4iLIh+waiCXMwwCMb9C+kEDM5+TcAngPBYQ+i3XCZwhhkI0PFIsLAAAC2CEJjZDaQLlDFturo25LBDDz8E8S2stIrpAGd6EosAFWxxCZ8DuuogqxBCpLFGG2/EMUeEZPGlHwAUkKWzoYqyJYIHzDmAGQUimwa4iwIAJ7va7tlogQkWsEC5hOizoCC9cgMJqfXQqg1LAD56sLgIuBOGsQBsmQCkewJ4gbKLpNPrgistszLNhKz06x7RckGLpZb/clnggCuXdLIqj37EIB2XnJHAonrSU+gji6TMEr4q/hFpNyfBmOaCA3/JxagFkjngn5UWkGAfpGILAL6vwgxVFhW4U0AY3RSYwaEJwBhrgQsCWw2GaSxIhqcIDNUxWmmnpRbEER/Yp6uvDvKTKpfAOAytrMSptlxzz0WXQ2cu6MC7CF6AAb2jFFggAFdLWjIbVSe4ptbDTJUAPj+XnIA0ADY7bAJJixIwJNoOki41TFUAwxgjGztzgg4MLkpjdoWhzUCMc3oIIdzMyS6AXKBVaIPAFlAmpgn0cysyiDoLQbAOUGJXQ4Em+DcCc3Q70wIfL6JyAeLq0U67fVItij6h/3mDDFORJljnWAe1W86cfXTDUpleykJIUHgePMxKk4XBEj6D0oU7brnRvVYBGLxCUSxuA3DGq32qyEqDuQcnvPB0AzimnnSyyaW2CHxxp16iVEToPEkVBceoCLLZoB6UIvBCmReIuic6BZTEjaUlzdmgpQU66DIXmvsJ6YALug0AHgsocGmBXBqHj+HBYudJAQxIs4WoRL3qDIMNsDwgGXVU/X2laXLpViqXCj4wzsBgQAeCZzmCljk9MUDnvx8raFS9Ba7Z5yA3fzPWKJU6wLcK2fbbSbpbWR5LCZghAQVgZwH/iM54KkKyXxjLIN7TF0yyZzgKVtCCTblWtvDGLf+2qOBb4UqLVi44QhKWsC2ROcg0HgAf9PRjAczoSFH2IQ5E4SaCRZHOBhSQDisd4wAbIUp06qUoDKmHVqGi1+/8YifbYeoAJdiOYCJQjw685igbyAbQmBGCh2ApO7hSSL2CFwH5fOQCVYABw34Ej/ilbAa9oYqxmBEYHmYDdkK0H0qWFJOS1INCRMEHOjZgDvmV6SfyIYoKVCSLBbyAOUpjXsdqgxgBSU4kv3hACSKAD5TNZAH6Yg6mVHIBdKSOIxvxi0omaEJWtjJudbvbtlbpFBURYFJeOUCMCjAjV/bSl64MwGD8ArPs0Cx3zPDFyBJyDwkQMDo7s1pCrvEshHz/jUGnudRlIsAMdMjiXZfRhi9KJhJtxDBTwvDTYX7UAVmgw3aCoVlRPJeOaXRgI9T8CBghlA4Xbup2CctF5p5kOgC8oF8cCcA90MGMWZpslbhxBkf+RMYJRVMgkpvJ8xIFEzgWJ1ELwElJ9LKAUhEFDBwZ3QHA4Iz3/Kx9CWHcyxYAA64RZR8P6EU2yNOdlzQRI42jzLMUcDOEPO92v0RqUqV1rX6cpV8cZItLvDKTEJJLqVfFKtyCqcwXXOciL+iSEzvglwl0z5yZMlYHSqAMcSbEVZhaknbQQSyR0PQYE/hHWFTwwno8yIOpwYdITno9k4GEpMr8U0FsAo7bIWYs/3FKzwTYBrELTHM1FACg7ch4AHxc4BgbmUk6qiCroxgLgArRSzL09UZ6wbAgZx2LR7+Cyx+WqDXFCYxfQEYvAPQiGUSJwDT8SIBVZWMj4DgABhApknTgz0oW0J0lnyQMRtnkhwcxxuIeVKuSbOlK/6gSRyQA26yW17wiyko1FKCtvFVlAx7sSbh0Kbjz1te+IZrTRbxTlAChlozwwVLmFiAMoGHEVIEJzC9ikqaXrDMlYnpPWEY5uoToJSbYEwk6LKAMCwTlAkEyDQQ2qpDBAIc+RPlhepQRAoyl7DgHqAIAX/cCZVTKS7vJRgncQRyGBaahEaiGfPohHaKZBgPj1P+LV3hImzVFJxvn+IUzesGYCrMrLBf4RVd7MRiRGCM3+IBucouXjfecFgDYoWs/JILYCs+EUY7kyL/SE8z2vbAgd45AGu+7Zz47pW4zORFUq0IZqR4AuSFcS58VvWgcXcNoVhKdeo78pO1iyRcwhAfKNnK0ADhgSE5psELU4UcvYIpFX8LS2xCygGcwI1HZ00lDx8Ibj1ZmmyGQsQUoE5uZzOAa9fhwUrIrawAcCwAb6NdFFIUx8UyAkMZgxnRU4CO9FCQ9uwnLRpd0RpFsAIYA6AdjkPsleTHMRGWzAA/Y3JLkCYTDE2AGThg9b3pfRS0z4Wx7q2KMU3uEK7rkZb3/BT5wt9RqgsFcigJOsjN8JQRRbQmANni3nMfZ6UmRIa+avCWBByt7Lz/LxTQmUA+NeaEtkWTYg3y3bqnoJB0iUcF6TYYBX/3GAg/4dFIEROGmKKCvBAd60BXy5w0KxCqtE4hHzCKuAlhV6E+H+oeM0Toen4nYTQGNUWi6yqqLpOtzCcA+UPYeiyLVFi9wD22kuxSLR93tbx/6vXGpb6qoYE50OsDd5gt3vvfdhPKOG7/5bJmv+93wh08I0cEAlhQlHVxnQTTiJT95ylfe8pfPat28EuirK2VFt4SRjDA/etKX3vSnR32HiL4to6fIg+Ci6rhSP3va1972ty+95jfY/3mdG+OWht477oU/fOIX3/j3XT3jxbKBD8ZehMeHfvSlP33qn0v3slw+v2+pd9FX3/vfB3/4xT8Voge69e4FAMXKAnnZj9/974d//KV/fbpPxe4telEuAyd//vff//+3vLpRhwN4qvOjCkKTKudLNABkwAZ0wAdcNFjaveX7PKVDLoCDwAzUwA3kQBPKIPYSNKsgCxBqvw40wRNEwRTMkeQLNUdJOhfphX4IPhWkwRq0wRusimvhiqLjPaToCdgDh8jDwSEkwiI0wro5C+wTC8v4Pf3bJSOEwiiUQg7Uwa4wvx68Ipe4BhJsuin0wi8EQ/hjQSwsive6Bw9yEXCQwf/9C0Pha7e4aUHDYZGoYBHHagq9IMM21EOE+EAeZAtbSkCmW8A9lDyUE5MRK46yW44NqZWWOgqPaDcL8xC8OYppmrOlUIm1Swpb+CFaI8RPVAoJDJA4nIoAYD6lO4BewEBQPDy94A1ZQwuB6sQCM7fvSDG6OID/oIBHBKKEsICXm5dUwsI39AhaLEMrYQlJDEXgqL8ucwlCOQpKzMO3OzVWHBymcirlswpjUL9wqYAStMany56hWTCkkBcqkY5yixoYCgvIgovbMg2oKQpFcYcSMIgDCJiD850hqRU7fMQDIDlDaZik+I0DcIfdUDVzdLViNLPiSMYOWImDswB3uKj/hvyQJIuKjsJDpQgAdZglUnyKmAhHuRkR9QLBabyIDWA+FknDNSwA+hpJofMIxguAdAiMhFwO7bibhNomkKxDC+iAsMANlusJMuwuk0mGlfITl4iAKpCFssIN7fBHtwLKoWC+A1iHozGKw8ANdsC1obPIwroADFAaBUA6homJnTkHGHgcuoqaxpKQdSiyUOGMfDoTd3iBNwQRBXiAl+LIiCyshpQwgNTEsVCHApMqWfMIRHTEmKSbe8M3bZyKrBvBuxFCxwQ65siLV5MAPWmoABCGZGCM3WCMU/ITAkCHK/mOb1uOBMJLvUwKBZgG/WBK2MGA6fGvCqiCFtsJMIAi/z9RARgIJg0JACsqrS6Jk9rpCX16krKQEAwTNhjQBgyoAB9JTYsCxAjoAGVIht9pSAIQp2wDmixRBpSkiouJio3gFgeyH8eKjm4hALDihsaoNpYDABY5jFxYIYfwS8xcKrmbQLGwBfhykbNYRf+st+RRlBgaOfrYH/vZDXv6oVzwAm7CjSqwGqlyJwBwhpW4O4UgLmczlslaCttpjH3Ijg54AJToltN5gQ3gN5DwoN0wB8Czus4wB4QwBixRzD26KKARkGg6O1nIEkbBOnw8DO0IgBnIOoVwhujIBRa7hj6ZjwvohS1hjGfpONSayeJosP4ai1GsMLxJnrwJNaAUyP8uHQuwSJMrqcOyyrnLKDKg+dAKUwfcSKXfsJ8SsABmmIZ6eYl6ADEErRYkJEDJPMD4skxwJFRGO4wHqQdtyIWgNApkI6OCSCNFIaXawp2P2JkIEA5CigBhAEbUwgmVIA3F7JKDeIFfOIBseIBziKYlUYnfIKShnKbyVCQAcAd0EBQLwInOCsuE8BKTwTDmrLB0mAmPeMVEsVEcIrONARirIQB6iYxOLE+GebgAYBD6qBdzKEydyJln5IbaeBqoCaYL6EuEsAXfeYAQcAlTqZ3IGIsqIA2LyJONCQmVqAJ0SIeHKxtJ5QlFWYmWKA7EBBpjUSaPgDbcBJSjIABRQYj/hzGHEmjUQr03rpiBZoQKGD01rwi9l7zYeau2GALN8+AAU5nVc8iGF5kAeFg2dciN05LNgsiFjVWZZHC2jhIJd7iSOIHNJ9kshCCADQCrC/BNBWi7RtTOlyG7BZAUL4II24kJYaBIBaDUpPhXdhkKneDDsuPJY+gHlFEJiizDLzkPiOQsnuXS1/mN38geAbGij8iOXGC+LX0soFHXQHrOT+ou5nDVBxAGDo22CaWXBxirdWoIlXCAEICAkCAJgwwBQnmdDmCGKsoctGUQ3ziPOD0Ti1iS2ZjUV/OvSgKNgohNEqUNQbHPkaWRPmQ980yI1okvBQhCtXBdRju7oUnS/yHSzmjqUp3Qk9gJgWzdkiwBicO8gNEpKywp1eXQU5XAWwNriP5Sgcu9khBgh59DiF8wFXt6lYebphLwiF8Ah2csCWbohwCYIyV9RAlIh2tIBtTYhwtoHWTViwxR2NQ0nuxBzdx4liCcyCadF0T5pML8kXWoB8mZgCoIDA49KhIbK+bAngAQjmgQKZfIEpfIGd9IXNPgYAyLgA9giQPwtK94nf1R1/PlWlpDxyUBXY6IjQM4y58pAbY8E7LUEvUwYN2wHZ9BsTtD2hLQD5TJ3WiRQCW0ivtDRScMuCPus+FYUtAQj1kyFpC4G/qoACdaAJgFtwtIB2bQIN94UNtgqP9Zm8sKU9hLGdhc8IYQKAna+A7mgMiV+SGOiBP4aIjYIlj8+ZFkuIYlWRhJ+pEC+4WhMIYLwM1MAWCZUQA4obLLiJMyOwiNEQxmABWk8J3BuBLcoReV+Ao6MixV45ZJZQgLEKgzg+OwOIAHuJKwyiV5pN1Y5cMFbGWMUddgEZAQIJZcEIeRuYfe4BrSbLiL+A3cKI6IWGT1uIBzODICYJo4UxXeGDmVcBiLhWIc6cMrbLxbcj6nuyBDzOamIAB1/BmdYlsAiM84uRL1iIwuOS1B6QgLmAaUWVCj4BHSmrVIzhR0MA2QiErl8suanCudDVKVqKEyPpNnGa9KOtiM2wD/GBOMxikOfy6209LOmNAOr2CX5UAlh+Air/AFCYhNDpAiQDUdCTu2CYic0jwydcS3Kiqg9OgFON4SHniVg1gADgBiBeCiH9GADviTEMjkEAgBKpbUgzBqnvsT6vrnwCCkJ5HhXCgBllAS8KCPmZiA8zUHZZjVA8GNSt4UUB1nG0lijn0Kj/0gA2XDR+zIwltEo7AFdDgWr3YIW4wMY5yXYxlWTKREvRFJpthIuLi67bouuXiTv/ukYdLXH0njM4k2T/IJL+hcT1SIX43XBR5VCyCqi9CweFqmbHiZIOKAj9oesmSZrKuHdYABFdAThRGq9hGia5gBpsmUaPMTw9gI/2F4BkMp0x2uMmaABwaJk6cc1uF51Iixn2AKAl9QBgrQEyJjHYUwBijDjgT6IYV4lXEViX9wgOWagAew6AJhMWN+DfY16bGwgHWwiAMQB6E+Ey+IAA/COaGNE8rCAHbeHCYtmmi7AHeQBXjgU6tRlGC6ZwixEn1OrHSggCE5AMsgs7I2a7XQoNhdvqQzkUV9Pk12ElmLjvl4gALwBdKyhRC4IdvhAQsIrNgMgf0UQSpd7nYzBgVwh4NTbqZQT2UUi1tMitl6RrOdD1aeygoTiX5ipXPAmCvmCDJimd2YrQlgXgSLJkVhGwA45IRYB6IOFSwZb5EgIz3xR6yFFuN5rf80OYB0yJLKsABx8IIFMAfbvSGE6AUBWoDrvIivEYxogrfOvk/g9q5eoBeuoeuw+DoqsQAJgKEIAIPNsZ/sOBYDwRd8e1YgnQBZCLUAYMudSIeftrqDoBdxCILlfIAytYjwxhgTcRkDLivEPI9lDYEqQAh3CIErdYdoaJ9rAJqC2AgAhkiS8wvthA8MsZgOEIYuRwgwsAB0gAFpDiAYInCAhan+lPANOWuQjApFGsGZONCtXBQsCUsBwYCjsAAH+A5z2AZfCKMnTopcqAAy1MtCw0msPhM8lnbf2dgt3ICIsijuoo1JY4vsGNYvqQ1NsR/ToDVFeV6PY1eP4OcRUoD/Y5CAUuKJkarxedyIC1jxH7FshTCHZIiA0vnTw5giAK60hi8KoUCs1GmJX/hKh0gmkt4NB16AeoiJIkoIGGCaCDhIougH5QLM+9yHJ7vEiy6KGbfHYTnYxgCHrqtJAqoHCeiH0wXixTQHeMgGwWjtz+Vz1CKaCYh4Gm8gTTqy0kFcRkoUIlOU7+aJCeCBgFFPd3gADngPWbCIjdEGnP8AKgsAxC2wZPhlIy0245zdr4gTMjuykRsJ2VC4tMkGZYgAWdBKCNaNEnBLon0cZdhcmKiHl6KNaX9dCgdBA6w7/Ds0Rg0V5cKSjWndeMw4YnWAeKIAHoDGn1kupQgBYQja/xJNpeXxhUduibSpIdqY0tofU8mqkpVwhwq9CHxws3/NBTK7Ur0ZS0Vk5gd6xd+3GzKiGeNRlXJb+9WfG5UYaWWoB8ePiRiUifP1bG0Qhu9Ykq3/ERiIl4KgFwnIVgciXUiMCjxVD7/IpWsDiF8RcgXoF2FChAULDiiYAODhwwDJch2AaNHigQgRKj4cqMCiChgHAuT6ePFeRgsTAlw8cGFBBJYQA5iTUFGjgooTzl0EsODChZgAAsh8qEBBUYsBLHy8FkGlBIQLehmLOOFDrpUAJoRw6CxXh48kQwRlaYzZgw4W+j28EKKETw4WVADYANad0VwXssF9aMFC0qEHfv+OTJcrhLAI6jheVGChxIQFDw9IsBAh51CgjHvSnKBuskoCMw8csJCtJ+rUqlezbu36NezYsmfTrm37Nu7WFwoUeHD0wDWigW2LDkAgAGmRHXhrYL1A3OMFyjajdnwhMnWIEx5IBnAAbId/eU0ixyy4InJbAB4wA6DiKESGIwUTHclyqVbHEbJFi1DVoi2DTVDSVpLpx1lpuSw0gQLXLWBBd0QpcJAEMG2U20UBTHDdZcNBpB4ACmQTwQXMMMWZQlV00F2IF8yX4U9ikTZBdhjaiGEAv9TzlwUXYJBNdgIVNaGHD5UQQjqpudQBjbkpoIwzEZF42QRaKWVBBxtcYwH/DBPYBAA6DiklDgW0EfVffFWGYJJSETBTJDrCQPhfABFI8MJDP6nk2GmqTWjOPhgpiNoBTb5Gl1IWbZBohkmB+NA9IHGWoWoSlATOU0wpc91wDaGGDlCSkQRYbEQ1FgGTN6q6KqutuvoqrKvu1hsM/ZBmapGybWDMBgG8MMM1+3zH2wOsFUTAAsygY6pqKg31VI3pdDWUBelE8ICYA022oThhebdOB0t1QFoI9QAgywPRsNRQCN5G0JUCqQLglFgTdACUi6oFQEGSzMRkwTGqwdQQPAEEpcBCEdXDzAJm+XtUrrM5poAxCvhbpDHlnRNCNs5cV+MByZBKVAReIJSU/woCjXQPUiczGyvMxspGpGq2XNNaxLAFgJRFC5DljofI5alCPfDAoM4EFvQkjJg23nOOt7NJS6pPDUMERpMDsoiaBSGg0xi2SuYc86p13vyie7+og+ZkW1skWkQwjY2zZWTbfTfeeevN6qy+CWvf3K9toAJR1xxg63IFhODaDBTkYsGgqR0E8T0x9uRze9+N5IDSGvJEUsPocK5hByFEEMQFAaSzYjrTJAxtOth+d69beAVAOGhBySIUasa4EwJgjllW41APdr2RLxmxecAMaCpjQVQIuSYc9Zxd4I4C6tzjzATMIHoRsjHF+9FLhKoUwQvumFaihjDMZNx7yqCzmP9ee+59v2uG42+sO8SjRkBV+nEBpbXEf7W5R+B6Url0FCUwiDpIxGDSkw1cZn8WtFECWROpC3Kwgx784Gz61g+ROANXNzpOAGbAEHDkgjfiwBmDIKQM3rUEQgA4SJ5WlBR33EsFEzAXANq1gV9Y4ADGUIYXOJIW77iFRizpkS/gAYaq9CIEkmGGt5QBvJiw5AAzBMNQknaAetAIbhAxhjr+UpJdOUZeSgnATx4XnHswhWEPyVjPLlCFhuEwNbbg1WCe95cBsimMXJwAXkqTuuE86BcXwNZSCjmUBkUAHcpQH2CgNYEoRaQiMEgIRfw1kgUwCIT7W5QpcYPADN7POK3/QSBrjGFGi7Atlba8JS5zqctdoqZvCvibcGxEl9sFwHCIY05r9uGLpRgvITyDSN1u2J485SIZbIoXRXIxg7aEYB8k8k4HcgGiEEAAnNHA00NKF7aHbGcBOzLJBBzQtKG8wALoIM2DBvS4Z/pETgpwRy4KNqEwTTNNDIIHBSwgHgIUsTQR4ggpLTANCO0HRVUaYD0W8LeGuDFERXyIBMwBmg7QME+A+UcVIqCMgvWkFwq4hzswMKEIhCgXkYvIhBYQpmQEwBlwK5QkeSnUoRI1N/IpKlKTqtSlLtWXtgrOfU5IFGfIp4W9YQ0MLpCVDpyDAi/BiZS0QoASENAossiG/0m+Y7oJ/OdaFqgHTdXBuUUFAHg+ecAFLCKOw+SiKjNwiznAwZgLOECSdZoQvibEIE5G5B8VWQBJBaM+CjBmMAvIyYga0o99fBQm6JmQBcwxgwmgIxsKmWd8FPKboozEPEw0iTEiczULJaVQQDEd+lAzzCpMACVJA4qhIOIOCmwkaQH45GNLytTlMleo+bRac6Mr3elSV1W+zAngbEQAFRAuAGA4gLASt7ieePGHkEOYTC1zD8PdB1oQ6SNGtpmZAmgzPtyQJ0t+wQea+qQDSZqAOJb3ADdx4CP9uJd8H6ICsHDGtAdwR9JC5DaLKCAXz/gsMyigja9NhiMWqIBCLv/jjiqgJwJ4mZcClrUVL2aUv5NSYGDUcQGRWsVtyNkgRJyxgGyIwxfM6J7r3tagcQHAGL1IWk4CM6DLOAYGzpDARzRS3SlTeW/IydSFqqzlLXOZub4kjX2GIlXkOEMkVn0heUuQDixFBigDQW2ICmmOsvZOGwXIq0WWM00FVIO/QHniA/4z1g6gYwZkAcDv8Gwr71RBG6iJQJLmFYF7JORRFgFHB46RjJspZEcwYOTjGGKOXrwgKwvAwATQeREGKRbOsnGKRfBRSmPJIh0TCEIJfgETBjUQIR99CDpyYevUWSQbQVnAPS7wkfnUo09dfja0cbOzHTGMldG+NrazbV3/Yv0mu8LcbjHBe4DENUdgXoBJUMyhlwUk+NESYA0GeMDYh+TCARx2horM8SCxdKADELELRQBQb53WWwIRMIdOQkBjCv/4svAwx86KVJoGVWQwE+3HUTZYp4NsRG5L0cise/JW0kRlVQqoR1DTpJJ6kDFc+qrIiVLy1bJAZELZQAiNOBwA02q75z4nbzMN+POhE73oPfnyraLqNKKo0FZWLZZqlCcTDVWSLarJBp1R86CeQFC4HOLIAfxlkZMB4B9Z2ZlNf73mIEWgBAq5LDoWIAu3L2SWmSFNBFTEMI3IxCnA0YgFlgkAC4BxNSppmALerSpS+o8yF4AHXQmim49Y/ywddIL4aBBWSrk3RLlG//yWG6IS94G+9Kb3+XWTbu3UEGBwhZOPeKengH5Yxu6PdvUud5a0HoUcIvdYSYMsAA90QDUwyLnGT9g5b9Sc4yi/iPDireSakI0tAjfTbWpkQmkkn777VM6IBDjs/fGTv7pID/Pqe0Knnor7zK8hJYFawxAtWztAHcmZO14QAFkkA/e2uZXOvElrqAAq1QZplB8CMhdypF8CNqAD7s919cMMBBOG0BVRfNcxFUC5uYZrPSBEEMAB4Bhr9APC7Y/QeCAKpqAKriAL8g23gZkJ4chQsB8MsBCxtCAO3o0tUA8P9qAP/iAQBqEQDiERFqERHv8hEiahEi4hEzahDxLOKjmhFE4hFUphDl4hzKSet2HQBYpb7GEhGLIKQ0QAGVWJGZ4hGqahGq4hG7ahG74hHMahHM4hHdahHd4hHsJhNihDGSrDBNycH+ahIA4iIRaiVPBTGCZibpyfqXwPjrCf07mQIk6ibeyMM+XEYoCZJm4iJ3aiJ34iKIaiKI4iKZaiKZ4iKqaiKq4iKe6DYB3OK+6DrWiiQTAMK94iLubiKfZCPwhE71EiML5G6hWf7ZnJDIZbTpBbMC4jB6IV4ERhFUajNE4jNVajNU7jPUAjUWgjUTxIPQDONYajOPLgAZhDljEjOvbSCyade6gK0x2AYD3/XTrOY5s0zDjeIz7moz7uYxUaxJ7wI0BWodsxID2uYOqVEFEUo5l0l+HUyhcWZDoKSUBOJEVWpEVSo+g50UVupBCqQwT0AkTOIyOyhCPiBgpRlbC4X0iiI5F4l/6Bwa8EBz70FBgEAD7EpE3SpE3i5Ew6Q03eJLDkpE/uZFD25E/ypE4CpUwmJVIOpVIK5VEWJVNKpVM2ZVQuZVVS5VVCJVFi5VYaZVdy5VOC5VhOpVeGJVlaJVrS5K+AQQm5JVHcpEsWzlTVpIQkjRMhpH3sZX305QL+JV8Cpl/ah0/+CltOYGEiJkwqpmEm5mE+pmNG5mJC5mQCDvJN2EpOohYK/4dCzsZ9eNfhjBsyZeYyiohwzID+caRqriZrTmFq9iAYoGZOTqAPit5GcOM9voBd+spu6qZw+CZRACdv/mZvFidxHmdw9mYPShBpBuNItqONZExPlZkNXlVzAmNLXqBh7qRwIGRcvqZ3cudUUY9cjqdwlGdPkSd4qmd3sqd5fmd7nud6ymd8wud7imd60ud9omd48qd75qd9Aih+9ud8BiiB1ueAetd7tqV5oicPFqjuWYAsDKVOIuRQWmhNYmh+XmhdbqhdzmRw0qaviOh2juhvkiiKnqiKhuiKjuiHCgdzXqdmcht2cSaGqMcOhlt48cZ4yagiutNppiZwgmiG7v8mkepkXF4gkuakglIokxbpeSqpkx7plEqpkVpplDbplWpplkJpknLpl3rpky4plW6pmJZpl5IploapmoIpk5pnTaLmbvJgnL6md8mpDybLN/rgnCoo9fQpoNKpD+JpCgEnoR6qoSaqXSLqoioq09kpDy7AwvloGD5nSdpGVbyjmUkipSZiS9qpiLamqI7qRvaprzzoDEzmqX6nbLqoX+7MArxliXpneNIq9dgqi5qoi9opr1JPr/6mrwYrsA5rcAprTepfeVaOi3UqFqYeiLrSjeboC4SmMjIrGDaEcMSmbqamnLbqr/jmCzzrtx6ruOJpuJ4ouJZruqIrubKrr6j/a7uG6LrKa7yO6Lzaa72O67u667nS6776a7/i678KbMDqa8GaK7wOrMES6lsWqsMmp4ia6qm26qo+6nA+ap36YHjeqoICZ7++JKNirMgWaqOW7MiGLMla7LPWpApIqrWCoaW6I3JU1Q2+7BW2JMXO5aoyqK66as/ybIkCLYraZdCmaq76bNES7dAerdCeqNI6LdMa7c9KbdJG7dOG6NUi7dJObdY2LdZGbZDOZZ+mJkIuptmm5ovq7LGmKq/apZfuJlyObagy3X+ip92+5t3qJ37mbYCqaOXAg81e4TAShQp0pmwEgHTigxfyaODmoHTwoGzSJtxWbLZSbuVCqpJi/27H8qnlZi7nau6xfq7owmbnbi7pgm7phu7pjq6goq7rsm5yIifd4iuhWuwPUqyI5mwPRq6dWijk6t8ECue2km7lFq+SGq+fHq/yJi/zaivzwtGkNq4KjuR23Yi0HsCmFgCaSe8Knly2vqaQBm/uTuZ2tqVhli/bii/Wni9tmq/67ur7uq+uyi/6km/7pu/84m/9su/6xq/+3q/99m/+BjD8DjD/FvD+vi+Tvq+3/uxp6myunq/nViwAfysECyjHCmcBp5CJbicDdzBtfvABi7AI0+12/i33sqAvAdPtGO7hHofiZuAGtlIHtsqECJ1SoE0r6XD31kOQxqkJKy34bv9p7H5pEb/pxSKxcD5rEjPxEvsqETcxFGfpETtxFD+x7FoxFUtxFk+xEXNxFXtxwRpnThYniU7sBcqmxzrvBMbmcd3TcEJqxGZrwx5v7VYs2garx3au/u0x5vYx0fIx5YJvN0ZvCj9g39RK0lVvbohGd5VHdUJd9iXZZJzjagxGyjFKQ+CwdzBGnUAXoXjHJ2Fm9uULauzMi2Dy9EFM1DUGKHcvFxHy8PZsn1IsTIatduIyBNvya/KyLt+y7e7yawLzwwrz9/5yLw9zMh9zMBOzLzfzMucyNCOzLr9kz/oq/mKzn74k0N6yb9ImE59qH5NSrM4ug/axAo+nBMdn+mb/6HuCqGHGqdl+aTyn0DwzaT23c5JOJj93I+Aecgqu8AE8qzABQI5q4kOecowSESnPYNz4XyUThbLlCSL2TEPBhDlERtDE3S+NyNzYVq5g62QEhb5MnWMUCXJclkzkFA974OOmMUzf6c52ax47LDw3Kj7j9E2rbBHL5k7bdE8ja1DnNE9frE8P9U8ftVEL9VITNVA3dVIzdaI6tVIP6ewOZ7ficTGXKO4C74P+7pzig2MwA1KcaiATrer+aba2alpTbi0Xq1Y/8M4SKwfPNVwHsYoaQ4wCNCITiyKj3wmpAEzSrPayRqGsEqpMmpIkjEexBok8UU6kg0e3BGglBMq1/4znFc9KMIMvSNkpQ4xiRYyG2McCPA5KX1ZEUM0pq8QCDsZgZLZSTEgmD533Fmv5FutPirHu6vLv3q7mFnNvD+pv73YwB/fuDjdy+7ZyC/dyH3dza7OwcjCkxnNqhrODWvPRgih68mydDI9g6+oHxy1CWnDPhmobk7e4niY/b6czr7fk9rKq4nOLFjJfo2Df7AMJUSCOJC48HthoCoyL6F5i6EvdwBE+ZUeOTADprU/yvIxRnBozVEznRAAGUEd5HIAsfA0ZKoMhF08ubEQ0hbSyWeIArUaVFE9OsHKGkMif9Ag560uIYR2vld6TXDW3Jncxa2vGpvE3DzOe2vKP+/94j6/1kPP4jt9pkSP5ket4jgc5kS+5kxt5kyc5kwM5lUe5ktc1bwb5LTvvNrexcBSflDvssZoqEN91Q5D1V1tzHw8qnepfCenmeAf3Ug5y+wbxI9+2dINBnq9syibxAvxzfTugCAkLVEFnBQoHYUsyivTIRyxAVKScTCSETyjbQbxynVxAX5RGvzU0mGjDQkj2T4hfz+TCC1yIhkiA8THET6zEhZRGh8T2BAgDXOwDM5zDLwyHqUiQSygEhCRFeSQNEfGInBBKTgTdVvza59X2xRIziMqqfSpn8OqsV3NzsU47MFc7tUv3tmO7kHJ7toP7t3v7tZv1uJt7uVs7Gqv/u7aHO7mve7ejO7wHssNiN/Bq7gEPazb38sRW+747M4yqBDiA99oqqIiO99nOrVqbr0uad3xH6bbS5sbmZMTDKYtyq1y3bIcP+vj1DTqIBOC4sM7MIGn0AqYxbk+A4E8Qm4ZcAJMYn/XRxEjYy01RGFAozWt3AFlXtGAwQ0qhxOMwEGqoQy7I2mN5QYSLnGRI2fMdQDaQhfVFBBxBTkUQAIVXgWq/12P9wg1VwYeLYCUzw4drCPD9YkeUCDyIoJssH9FZUthi+VW/PbjKdMqCrMjafd3Tvbnq/dy7cd77/d4Dft+H8ODfPd+HruAjPuErvuEnvlkv/uM3fuTCNRsL/2flJ69vIiQ8/2Z6I+e3gze42uUYQQhayzEgL+8Q97bCf/VxarDsivmDmvkxn+trBjrHE7pfz2IjWu9UEfb2KoVCqMM3eoc5VomFP8Ox655loUakqA9DIEdKDYR4jMaD5IKqT5JbpFxp4MNHFYoPX87BfaQxwENWgMMFfIZFoEM6eFFFXEMJwEOVVHRi7B9VeYb6F0k/JANlXRmnEEpGZQhAXFgAgGBBgwcRJlS4kGFDhw8hKogQIMCLAGAsBphB8eKLGRgrcgQJkiNHixlLhkRZ8mRKii1dwkwpk2XImDZn4qy50qTOnjxf+gwKVKXLojeJviQJRmhPkiI9UmQ68/9jyo8Wp3qcuvFiUI0VuQZQMMGCAhVTX3JFuTFqVLBM3eLDqvIqV4x1O3K161YtV2dS+aZ169Fi2K4UF5iDuJhxY8ePIUeWPJlyZcuTLxQo8EDBvgN/KRKwrIKA1AP9DnTQrEGhMQAKLBwAcGBChwsRZBsMEDvCBIoAAiwYmHDsAtwBaifDrTtCrokWcjkDkw6eggu9Eh6IfQGGMwsT8BHPlQsdgF7LA2DIXVD0Cwv/gEeokqseOIQW0C2YcOAewV8LAsjuArIkKgEDZjhKKIIIDlowwMsgjBAy46T6SiWm2JJqhhfACEsvi/DhKMQOC+PwKxI1MnEjFDfE8KINU3T/kUUVXyxRRhhbPBFHGme80UYdf1xxRx9jBLJIIYOs8UglYbTwQww53JEirg6gCLSQmswRSxMLmxKlk1DsaqWMDojAggiuwdGkqZ6qaKoQZ0JLS5tegLOmoVKk6JqQ0OqqyT3n8oolOTNaAB4JEU1U0UUZbdTRxTLbDAbUqgxQhcpEAy4AZw5Q4IBcNHtgIeQgcO272xbohwDSCrJAGV8GBJC29Qw64IJp6kHwgg6+y0aBgwKo1IIL9gHuBXNCiA2hAzDYrTcLvvsV2AkWEG0sgoyxAAYF15Et1+/c+fVBgrKZYAJhJjguAmmBjWABd3C7xx0LksnlAgsAbJAZ3TBg/xdY4B4N2DEFspnSJhdxajKtorIKS4WODA6KpLCwyohiiC3k02KnNpa4Y40jBjnjikMmeWSML56Y45JRXvmrjL68SimLYT4roxCTSkkukwwbTCg4u3TrTY76ySaCKytmawabZ9gzYyspwjnDkKtiaUW+2tQILrx4qioqpu5iCmgYmTImMYHRTlvttdmGMFLOPK00gEwnu5SjAw4ApxfVCghBIXXImoAgM3OxQJjClQWOV3w7neBehTpdoAN4dgNQGS+UAaC/gyZ4wALXDlAmHXvHLYg25DBwLgBmLEBogwAufU1w4Cywr9YIWHdtAeiGrQJaBR6095xsDoABntRLL//ongCuoSCXcC8YcAIFFrgg+QgkAMCYXkpAN3ngaBOo7fEJ+qcer5rMCC0VYR56ZKZAy5DGPMH88EL76/fyfv3zp99N/P/HvwD6L0oCLCABO2TABCIQgAdUGJRIBJcX6a9CeikJBFuUQfW9b1AripFhlPISO5VkBngTUci2tpM+GSUrFcGZl8K0phPm6U5Ro2BQFLYWqwTnUOTz4Q+BGMREvW0flPpN7CjTn7t5ClQFEIdC+qEA2CijHuYQiJnQsQ/gDY48ypBWBGwzEYUowAtgMEaAZpALLwCPVgBoTgcyFxwFlOAc/irIDCaQH3MBqDcMCUAfadcPYKXqHHtE1TT/FiDFBynAOcIhiAKqMKDv/RFfuzPTugYSAOsdBB33YkYElJGuSU4PNnYUYqMkcsEu3SUAO1PLYXrGp5v0qSVsqoktnVKhXB5GYrrsJS9lCcxA0fIwxMTlL43py2AmU5iAEZRRYPIUmDGvJz4JVC7jwjOcwMxrVePIX7KmSqi5pGrg1IpWwPKWnBxMnQrD2Dhl5sy0SNCCEONSAMymmFNCCDn5UshvCNIpRgUrALZwSKUQlSCHOPIhBt0nQt6mABiYMDSXuRveUrOafx5gAXWkXuHEpxsFqMON5lBAPdYFgxIww58F+eO+XlMCc6CDpcHhJGwYZAztCEMZ6DBp6QJQ/490uEM/UhTjQsq0LYIkzqXXUAAz0KEAd4B0dgaRIgCKuiB0cPRMpSuTtDDwH+FkjlnJA4OhPGUiARHkAqZ8aKIWoAyOpI+FN8OTjFKUI70SZoJeytJc+ZqxDf3Vrx8brGED66HEApaweUVsYw9LtcUWVrKQPRLN7GSnjezVReC0EF8zpFeDmShOl90KDkn7NGrSEC1g+EudmkInGQJ2gaGVLZxA49o7KQ0r7pzZwlAEJ0O91TLBaes/j4pVBo2qjY85QAnohlSmjspTDREoQYKzLup9D7vQgghHuTsZjjh0Ac1lzNv64RmnAQCJk9mApl5QPHA0UVSQwwAFZhOBCv/YZo8JyQY8elFe7MKDLGUpiAJ8kZteVHcf31nuQeohOHfsqgol+EUE/pG8AzDDcR1wnDB601LdvEB5+0EIcipwEXTkgr/U+t4C6sFRdukHWugIEECx6oxrcNQXE0BkQlzjkD+ay8TEZdRJn/kmbhqlLjBZy5dI6BUdckgmbAHJlK88VzdVecsJ6zKWuUxlL4sZzGPO8mjP/LI0Z+jMTZKmYbLszikXU5wwosmmbKjNnVAlyxNL2jiB+RbQzjAsO/OYmC5IFahU7Zp2VaeFwokYfRo5O1uEnLQ06VaCMOMfRiuTXBNi3NlRz7yDBHFB8GGBSSqyINGb3hgnYDRNu9T/TA+KgECusaBQXwMeFvhkqU3XgVknBAYLWpAySq0dEgPAcMt5TEQneqXoRsYYr4vaaTLat4UQYAK5AEA/jFNe/RTZIOvKjrnW04t0KOQXIegAcX61O1l46sYPKtMCSvAdCbgLpRFGk0LotgFyGwQeVeAUvHAzllcfJB0lSEiumeHWcR1AFuaaTK7/TelFKUCufuKQCpo0Qg26ZIEt7KuebAKnFn7cgzCxy1Fe7vIKyRzRHZOgzWE+c5vEfOc6xznNbx4xuIyEbOQc5v82KJKiJ4xmNFQ6k1JbJKSfSOrBBGEN9bdAdkY9I1eKoJPYx9qe5FCzBxQglr7pkuFS2hbJ/4NNqf/4YHxV16UcrUKEF5CNuTe3TLk4BwAIAJvhhFoiC8hFCB58DVVnB1qIsZeAC2KLF6TDXMkQSHjLXYUqUY8Znln4QRaQDurV4zabI/wmH6IAeMjUHMIxU3NXdw4wvAZxMHVMRI1oKX5epFOf0swTRzUcDTdXAcuezDlygfmGwKAeyljXNUI9g4fIwvgH+YVBkyeWZWEHMrYIssbBj2T0JV2esvRZW1ouaA8u7Gsnq0rDCgM2wWjtMKCVP1jiX38c3d/++s8//OkPAN9v/gYQ/wKQAGtCaUYiaGJJAafJASGGbFbC0GppTJ4pmKYpT5TGJjDKLbSmLdSsS9JJ/f9WyALRDiVYqf2M4p1EJi/SLM9U4Gw0jtQKonrCi6bw5qPsxY4OgAK0AT6Q42gujFaCpRfQ4RcKAgMybCEkgkAAwKk0YvGAZSysJwD+IVni5nZwzfn8w12+xxhgwDjMpR4soPUGj3OOoQRkwRlsEOBeYHo4SjjCLfvEwl1ko1OM4ZO86jv6w1Z4o3WeLVSkiKLmpjI24IysJG/6gW9Y45SMIUTIxxmmDfwokW3+wTfyTEOezE9gyIWqaQQ/cenuiU9eyc3GjvxKxJdSkZdWcX3EDrVU8RW3xCUe5mFuwhRhkRWdLmZqyAN1YulI6EtOq5WeTuhSZETypOxKrilI697/hm6bJOiz+mRqUi5i5sRNnA4bCSOC1CTrig6ERuQaeQj8bi03gqOqDqIX8EV2zuEBOiC5sEsCXuAe7i1YYGAfzGE9TCgdhuMApkH5CCJdCGJ3OMU3lgXy8ME6tIEZnAMhqMU6JoLGku8g8CYgL0A7bOMMDwJadkeiUE83gkUZrshcWCd6NLJToI/5goMCgqXIxGJXcsM4XiPGICOiMOqILGMDVoX3mChUKvEngTIoIyOVoEJQdiYFL3DR1qdqSlHLXuaV3gk0zintBI0qp3KcrhLPqhIr40krrzKwgKYkPgMMDmDH8Ca+0iQq5wklpLJqWElsrCYv7MmbNKYvdm4Y/5nx5twJGHNoLWVmhMTCAiRgH9iPLmfra4CiZ0jinODMA0EIBUPC0Hao63Jiau5BBo0sPSaCIt4u1L5DNzyM3nTDaESyLH4hj6IIDoEjG9wBHZolCAFyATDAwHZnNgxyCjkTdxbgBRrswbDrAuwlF0xqP7SjjWADuwLEcQrHvFSALITjNLThezDuNtaFVgzPIdctqDxF1ZAD0/Sj1sTiBWBAG9CxMSLKU+xkEiHDbjblAHoBHPjGb4RyPumzPg3iwqJMtUrrST6ITugJTIZiMVuoG2GJ5EJGJA5Ul64OLxFUPxmUl9wsR2jjGKbhVqLnQqchAlbiQWEpAxcmhD406f88Ik24zk6Cbn+i5GNaq5rSZxivLhgpokygKiXAQAWyyRpxAk4qxUSu5EVhiyVeqBN9S0mmaYVoyOzWzshwxyKAB5Cm5SIBRvGEgQq5DzjSJRemYXq8cCzwxlyk714ioFk+ZeBObALSYVjAAB0Epxcm4PsoQh18IQSmh1pQIwKQ8MRCCRx6bQGMwRbcBSGeyhkKIgL0zjh806UmgAICBza+ryDAwV3QoTTi8EFqk3MsgA0tgB+r8PMeqSxozAtyYQKqo0rMUxBvUveKS096r4mAzz5d9VXDr2Da4sreMjBAxrdY6bPExIP0IoVsaclagjGLQliDlWvoAilPwliTFVn/02kqTQ52DuABCmAemoAHrPVaeUDzQI5ZiRWWwmbsoAYtpIYj9gHdPjQvVgmd7NKZ0E/PJGgYyWwEnZUj0OE7quQuzsIog7UrrqRBVbEvaGn9osYC8cIoR6sqDI2YYnDS3upTGGTeaEMjA1JUyytYLKADomFYQmo2bCMXxK1cLKAE9kEZ+tQYXOPWhOEcCKAE1sXFQi1d8pBB9AMARnZckOM7lCGTGGmlHG5Z6kECXqVwwqVZliUCuC8AQlUbfKo8C8I5FwAMSuA2Qe8CriHvzuQdOxUhegOMYoMCNsnACuIX2urG9JCmvKADgE0hzpMQ1dMxCOAQ266EUIMRYbVu/+12n/5hM9FutNYEBX3LtwA0YlKRJhYrTPhPhp7VRBL3cENocesPcVdQA0uiFxygANZhWGAFVmYzAqbCFgONKExwUCLXJszBAUJAATYAKtcpyWYxGj1RhABLUAS2gIhiw6ZHhq4Rr1KiUqRES0iLZp61tfoSdonxEzd0SC4iBg/1lLQDHpgBHmIsTBHKpTyllBgpF7RBAqYXOCRCO86h9f6oCtzhGibgvQiCAKDXTvvBegjAGVgqO3ynNwSJer5NajniNB/EcfAhG9atUV9jWMiwfNFhPr4HvDZveurhPJh2cNwtXdYxIdyBGWbAAvZheUJ2IJnWTm3lArLBOXwDbP9fIxlYSgGcIRsGQlIPoEZLdTPiBqHaSzKqLUZX1SfvtoZtmG3GAkHn4s9OJLCgIgW5IrMOZgLP9Sd2dQQ9BIm1zFafkmqU+GCd+GvackMtYgOitQB8w7XIMlg+IybCwkgVbXSpsk/uoQS8gTNiixNv4p2uhi5LkOp25kb/zC14bd/+4mI2cCgU8E7uKUtEUATHFQTzDJ2MYkTQSZCBAjP3acjuAR0+wFeIE90QAgYwIALuARxewDpKIPtmIxf+g1rM5B9yDYlWlngi1qX08CDwAW945UH6UAqtStVkAzYc515O8kyaQ2Zv47hqBXgAhFqwCjrqISGW5wAIU2zl5iD/yvUFJAD61PDGZLJBzMFc/iEX0uGPKkd5OOoZEqOOdidL03YhIkq9KIJVKGMDNsAW40sdsk0+b/id4fnICsYagcJDYQhXVyJCRVBcQ0i01knM5AwkAnoVf2ugsxGgQ9dECXQfpJVPa7Ht7sEWluc75aZM6oGEY9RMLqAe1IElbGEsxiPipiRqgYdcqeWsLoAHqgGR7kY5y8IkxsKXp8EdJKsyU9F3aTSNtZEzOWxHpXFL1ica/TnR1CdQNhQbbwgwc6Rfi5hXUSJJT8m4ciNdfCWgqgce90ECBo8A9KOnaa0etOEFaCxWZqAe6EYFZCFT1fAgvKNfNAyEAwqWC+If/y5yQyLgGHhlEIHFAjAgcJShBEJkAZLBX8rkFyhiGpp03AA1ArblGvbhDXuhDmmFplSgNLWFIHLtTpXHDitiAkjqHoyBl7GLLDaFGS66TMgUIt5mUihqVS6jNFpphp0onmm7tiEkb/u2JKRmGM0Jh6jyanoR0CrIAkEjfhCmGQV3KngXRJcbqZsbuXtYLvVTtgKAHqU1AkoDolNCAUIgA7jzjxwAja0wFxygWnlATksiAkKABzRjGz5gM1N6AtoOnyLAAaIjF9hbM5IvONabB5pgGxzgUikiAtjhApKhcgVn/oC4KFmxjVWp0NpJLMnQsBm8/JK4lUxQOuBpifeinv8S1iWkAyhyFWQeEJ8UWYjkyKUSaVw2AH+tikwDoB+0YZixC6okAAy2Nld2Uxnai/QqtmjNxTtzgV1+Q5O+h5EiAB28qDcrkj0cZ3rMQbvGZXeqtBeSARDbin6dtNV6Q4qcg3okQj1qRTGcwV2u6jWcrdyGo+3AbancwSAkJ3+X66RqUhDjppzbtjGqzRbNUgHo1rYBPdAdAz9DZoS2hvwUc52QxIamEcpqpE9c0eqgbCsm/YYCpS8p/RNDEBvjh85UAAakdQI4BaNO1fccYCB+oXK58wCCoG84TDUeYDMXQFo9zAJCYDOqRDVahyMmoAA4gKPw2wEuYN3cQVqrwFz/UpoHsgE4mKEAHOC8hxwAog5E50crAfOmkXrP0MKS5CZFIU0lglQT35hdze9ijvdHdFsTZQhOkGToYrCH9ukezNelQq10XDw+gOcX8KPuJKcfFoQ2zgc5ogsCqkD59Hog4ZF6ZIElEQIdOoAZTqNqf+EATpNdlFc2KARQ9ZHDBgcGxNodfMH2CAIMkgEG6vVdZplaSNWlksffx+JzNF434qojreoCTGcCPuk26nwzPKO1X1gyYLuE2Jm+BL3ojZ4hkOzKrs7rAI2HhfVER+gqdUtXPagtA5YnDj2nfXjmcNUAiZoanVLp00mnpPUBQiAExOHszx5tCyqjqkABkqFv/yplGlj4N+UeAEAlBHIDHUI9AKqgAHZ9biKgAND2NRzgA2TjGjJD77HFAppAHICnHvS7pBEGw2s6Z7KSLQe2h8OiTPKRaXQJ/VrLAz0C9KfkLT/wYhYtKbVyJy4cT9SOYV/1AGwMuxYgZS962sYikyfKTIPDAtrrAiCAMgIg3z6yIMBAIMVik+NjeQdS9hUivpDzCR1HI/8I49NlQS5Wrv8JpDOHmA/CGG6NGQS1VsptAmQqnMXZzgkxJ8/oYXbMU+Lz6Om//gEAt4vyR6uJtMBJYeTs5QAigMCBMwK8GIjwBZiDAhkSPPhihsKCA8E4CyARIRiMER0G2CgxY0WOIv8Fguz40eBJMBkdbvQYANyDAjwc2BznLcO4EAMBRHDAIwSPB+7ubTgwMwKApQAO8Mig4ICDAkoHTsgVIUCHAhYAWC3Q4YCKnxoUAFjwYNuEgbYUPOBRD8AEmge8clQ58qBIlgo5rhyIzyTCvAkLvog6WO/Bl4MTBm5omPFAlJNZfrxI0eDjABf9CuxM8eVClRJBCiwdQMUCpUxbu34NO7bs2bRrLxXoOkI2Z7QNHjigIMIEAq0XmLVNmwA6BRtgGyQw41rrAHVhH+CN/DXwAK6NBbi3dAEzZhMmWLDA3Xbw9Mgj9MsO3/WFAgUewOj3Gzf7+K83EPh8wD4H5EKfOPz/HYhgggouyGCDDj4IYYQAKLAWZCl9FFFKFGVmUEUMjYahhQsVBCKJnT02w4iQgbjRZCE2dJqKHcaY4YwYyehQijV6tCFMKeFTo0UC3YMUVwuYs0AJ5pQAzwKdcScBDzQx410ACkyVy3m+WHBBBlQt4EAGstgl0Ab3aMXVQMZEUEAIBxAA5gPonPWUAoNt1dVcbrpooUEU9WVjhyLV6Geh1BGEIYeJcUjoYxlG1OJIK3LWWGKWRuphYwuBWKOiKsF0pISijgobcUv1ooAKpK5KqjHgsQrrUvPVp8A+/WT2oKomHYDfVgVoEGuwwg5LbLHGMqVANqfBmJlinwq0WUaZ/5U0KJ8d+mjjC5tdeFpfBaEGY0MbgQjjuB4t9mK5iULUopCGWjtQL1OZA4AK3xFwz5kI3YPWr/vYtYCUPPDBQ8EZOMDNAsrwUJYKkdqFJ5lzheXTOGX5VB9MW10AwDlN5DKDvqY15OhJAaAIKLcpp0tpYphCKy5qHpU82AEaVXoRX3x9tBe1Ke8skqIKMQTaQwMtAM+xSi/NdNNOtzbrAwrgdw1uqjo4kDPADUjfA09/DXbYYi/4T1aBQpRihy1yCKRJDC0WJEEyBrZ2opMOdiJMOSLa7Z8kduT3uhiFa1holUIa6OAnB2BMkRHYUim3yTRRQBMXDIQOUBb8IksJnf+b495PDiywwUDXKHBRxANZANabJTjwwD8AmFPAOOogdEAIXAGQTeuQQcTtshqdW/iyIzqMeGEttr3ty4A1FnjWhj4pGUM+A5YjZaP9CbPii6KbWqhjj09++eNHrUBUNgtkKoPgCXTNAeAc4GsI5t+Pf/7E/mL2Xy7ujJfBZCRaM5JZZbqVLcvY6Eka2cu1RqMQBgKKUAGk4ERYZj2UNGtxhwpgANoykxIA4B6Qi9wEhpKLmkSAhFIpQFxUcA9j4EM3M8gcVbyiAnxYIAQRAAOBLAC5pqyjdWtyQAjMsoAM8MEcCIEHUJTCOpDpyyQlYcxErKeZAwJvMtzroKA+hDf/ZqWsLxf5ELZc8qQeRWplhImctyYoEJttaiQZsQXS9IfHPOqxQej7zfrq5aDmnGZrBCqAgUSFm+zsZzaL3COCGukcSD5Ikq/hDiWbpoB6IFBuOxrco/42mMCY0VDTChSO3EYiD3WxRpvZzGhewqiUUNBQDmkbB8HowcHAEjdFWstGnCEkW7olTfN5QC+8s5VcfAdyEWjCB96ku8sFQDlAgUcAWBcWgYCpTXVZwDgesICmVKEAuVjfPVjnhQPcYy7PEIuM7Fa0SyFkWruUDNugRzSEbIZQqbTbiP7JQZdhSyTrK96FThSuQmHKoA7hF70cCdGIShRqXUtfftjXIGPY/8JeAYhfP9ThK2DV5pLTuc1qRtgbBSyApNNh6USns4Bw9iYCD1VkIntjs9vM5gARgAH5FKCMBm4xgeJSqKbu0iJ22Qhl0HORtNjFqLoJcFkpQxFeLvhGfUqqZX4pzVNJdo99zEQcHfBCB87agSB04AIS2UoQkDgTZQZgm8mI6TEKtpaxZMByEbDATDpwjbEUjAIRwMBbwIIPFQwzF/8IQAQKNo2YdokHE/DKXMrJ0S+6zE8XfAinqJoXchW1JOpwx/qo+DZRGm2TCdVWt0zjWq6uUTDam6eGZtQZh3T2aEl7qW9/e78+XhSQDvoPZwjZNfWstDa/WQoM3LOAGdAGdP9LySltIsAxptmpuguoDiPzE58DTIA1tFnAWnrTmnsIB5JWOo5XLLCA57r3NQuwwJzGl8mEqPJHwvMeKzPIN6lyaHs/Al6kWBSuglort4GSoG11+zwuvsuW8BIM44pEnwxr+AHiLVhcuFOPAqhFIBF4S02a4AALfOgnBciAlDqwUoNYoAlNeLEvuHmmC8yjAFWwVz0cUGMgp/gr2cxUpjy1Ipg4ym6diuNqB1KCCZjDHQuoRwSop8pzGbmfomXjLjP0zrm9TV13WzIww1dT4Kp5zU5Dn/oG0r4F2aJKYPBj/WzDU2XR5gDdndAFPKfiODNlA/uYwGow0AHyxuYAFqj/LH/ay0jhlKc83p1OBFbYFC5lhTYK6Ioi43dp2bAnAh2QwAsEzRTHbtcrwql0azotU61EYCyb1g6FLqANRX8NHUHN4l2ePGY40nbYlDlI1cjoVHR9VXEZAeCM/Lc4k60tq8qm4s2KurKgkUYvA+Gzbr493mwIZwEvcEcEyN1t0MFgIL9gRjKqYAE7JUQ8F7hAPeT9wV709QITiEoE3DGQ5zIDHvqqby5ywYwYCyQ4AO9ej9zmGXR9CFwWtlTK9gKcBcjCPBIwjwXM9mtdehWL15rWbkeeEEwB2EYKLI0KwIUthNyRzTSvebGiJqDhXq1BpTuuAsBRyEPWJh1BSEa4/yPg6qVEwE7m7UWUJZk7rEQgFxeYL2xI3e+RLtI8sZmroVWavla/RgFVX4oFqiBpTl/uNo2c63J9gg5zUOAXsrnGvvt9SezWxWa/OC9sFIABpCsAHRgAeD2YWEnQpY8ZFEg6JjVp5Bv5aCNW7Z7kDUqjUhov5sLmNioFV6mSJFRtnixUPk9GciO3jTGSuWls/vOqC10ts/WKX+QAYIuD2IJM+mEfd6aoKlf1hDoz0NVAwDPFysCt+JzS0YZKbqH/3oiWSaWQx5lxnvMwkUWfTJwV08ZZPo0ZWp6Xvm3FBeHhZWZbc02zzd8PfwmhDwYXVQGqD7QBje6qV/QRqXVU+v9tEpANMbUazMAe6bF0C1BOB2CAskF25qAAJeAOtWEOFlACCqNrlZR1t1EeznEAv/APUTEhvxAAFyBTt1FYMhUBwvAPMCABJ7ho8GVe8aYdH7dwVHcBHWB1MGUeLLFzrmElNHVhNeRoQOgV6oAOuaAMV7F0JAgb6CAc8aYAzHBfYPMPveY9qgUzseUiKcNAKXc21eNZzfZU7TJ6q+UuDLYSahRySRU8z+MszXZ+nkFxkWOHzsMW13aHdsiHfagR8RRyhqNfKxNbfTFGYKg46uBxEmABjNho+NaGvlaGdygtt3UzoyQYMgNAJMKJ5ecuXDVz8SeKo7ggOIcfnUEAP6j/IILkc1xTHw4IX+YAD8xxG512Ad4FVC9wbp1WHlUIG8awFMogDJe2g0whXsMxIROgZ10XAuHEHebleMYRHpVFdgFgaKlmDsmQC6/iHj6RgdoReOYxAZUGHipAf00xdclwAcygiqlWXfVQX47nFftAf8DhDDBwHjGlHXtXdQrAAVkij+kwgBIAD/2wgWCTXxUWN9gzfRaESruEev31GJ+FVIUBZp8kWtc2W+jnPRJWTxT0SnsTIpSROO8iPU7GVWqDLZ3xhagUcyipIhm5fG4UkUa2I+BXOAslPMlDQA6BDo7IiIyIdzVpN/o1T7/kJ61nekUpPM43I49icdmyh8Yg/z6kaJVXiRzzV3/3xx/G0HMdJT/0Qx/2ExsL4AuVFBwTgA6jZgHuIGVekYPpQICS1GkIdwHfWC+UJo0vcAHnIB2VtAAX8BhyUYSusRp1QXa/MQHOoAwnyFN9113A0WkYoADAOBudFhV/6Rr4IILoyAzpEGqxQSEqpQ0lkHBtVxcBAA/j1QsTYG/KAI/7IRwA8B9NcQHTkAvpABvrZGgRgA6/cG9i8w/K0lWAwhiiFyKGYYlPsiPtolQIpHJGs0Fa1D0siUCoIXoMcQ0w10W51F8rFymhMUCy9Bjr8zJr2F9b1SKnVUXW+Ym/BmZaJS6YAT4VUYl3oVvZCXFbNG18Ev8pdheUjlgPp8Vab2QyLCcopnNALbEzk0dxIzcyHIQySDk4oYiVF4qhFFUf93FRqQghgxQVQScb4uEV26VSjocOHziOinUeiNZojndNzlAP7hBl9Od6bolE2QUGFwBfrqYOt3gWilmMTVEe/SALvtBX4XRu++FY6aBS2ZCD/EaMdIkesvEC5vEdc0VTGFB1jsdoEVAPaDealUSC9fALFjCAEfACSzED5dQa9cAMxthofaVJV1cezHBp4yg269EY3adVszQiQ+OHzwcpe4M4XfRK5Oc9nuKGJWJGf9Ms3YkjxbN85BIaaFOSbuSUUnkQQEKhn6FPMec85BIp1tknEpb/PBJHqgHFLZvakIhak08iXufhiEgXJJ7XkUkWPQcRT8p5IbjUMh5BLp6XkSxzfEqSocmaoeiTcwJhf1hTJR4FUv23aNe4AF5gFpT2GgSgUuiQDr9AIVVxDpI0V1XHb1wKpn1WXRggU/WVariZDgfIeL9RAmDQgaIZUxbwDD3FQwGAJAc4AcLAHYQ2AT61AIiGAbA4G/8xjqthDuXxbtfoHL+QCyGQDSnadv22ALxmAetDHM5QpUxxUt7hmlJ2aZCkAB0HXSELNqsRMz7iZU/ZVAvxGFVTLbnUErIUQNEirG8zGjzbcjxiLStjGVzoGS/bp+HHeiKRM5zRn08pbUiW/5Iid0V3ETSLgZzcklRmeFUm91rZmRFfaLQ2UkVyqE1BeR4g54lbNJGbZWFWtFDc9qkjc5+zVSPbSXI54xBVqax9O4pR0w/0pxD2144JUkJaE6LJ9XebxmhRwW+NxFMT0AvoMAGykFPWyKSHsgDrwG8d4JoW0A8xdRyMdoLp4GmptnRLYQzwEG8WIAwBMgH35npLoVJzlQuBdx7883aqcQHHgA6Ti3dak5qywWi94ZfmkQzo4ZZdp2/J8AAdcDtdNw0de24EWA//kiz7MXgncwC36JugI48XEAIXUIEcw5VKk71O1SJF46eLw1CFkZxFCZW3dZO/83lNiRDHpl/Omf+UlkepuqRkldI24Jee/StA4ENAlnKSF7I+S6aSEOeoXKQiflo4qUeUmoopSumRnfFOJ8lTtApfkkJyBEwZaURLabN+eoMQuTWspkfCmQFB4TkkFuq3NWxzzLqVDrJ70GJnY9l1rzIg2DekC6CDc1WZ5tVRfldd51Fvt9hpDMgao6bEJXC66YV7gVk1OUgh4VRf8WqZSgeuMtgBB/EP8LimS0EA3WsB6QA65sUMPKp2jQGE2dBYBHCBZ1GYqeawl8ajWfEq02EBudBdops+dpK6rcFnZtG9AlFvegqECOETXdEZX1PG30kYhvgS+7S19/lsMKGcB3pAOCt+S4urhBL/T7jayQ6nGM5WnBDHka6kWWSrZVWrMxTXkgHFIZw8T4aIiEO1OOPHM8h2tM4yOBNZh0kbOZR7Hoa2y2K4yq/VWoPIcpxMoIqznfACc4sKtWiGR7PbG7sXH+Bsw2uGPvjhsYWLIFVCHYlrSCM1DdblHFnBU4hZIX45HTazADyUDdGQCxOwVq7merJQxa4Ba9wVwtXlmvMVU/jAG2AQAb2gdBGAD4hcAf3AHb5QIaxbKipgJqSWfRaAp66WstzhDhNoXl3nr0g3jmcaY16BxoE5jobWXE2BAUzKU/TSplERU9lgdfdwDspyD4UcAfGDd09jbtZSPHR7VCC5syfMevNr/8CKAkGCIUrdmSjrK09oQ3m4WqwqPIeACKr/MziiBVCx7BEtWc0gQmFqo7dT5S0wU9Yxwqq3KmFtBCOmzJDONyJVIxAV+IhGmUqghNTkBxLvhMLl0qmhNFTx6cAWVqgRpk29lT/1BYO9UQIHIM62QR2Yrdm4N87BVVH16KznCx87DDm/ERUhxVxrNxvAiH3ckT4AcA0sWxy5aVHdG1lDuhQlcAzEu2oT8tteoY8i+3ZegQ5FATp/HAD1kF0AcAzOKIFjFwHMMA3lEZnCWwIKAM4BkA6MaGXZUK8vANHWcWn3cA3ncGrixaPpoJkgSyG5oNPcgY/7YQsRUAVz0r3zbP+NVkd2l8Zo8B128LVrWKgz48cuK9csCcxGOatyOqNZsUWGJulr0XxQ/emGiEgReLuGWGUtF35x1KY4CpageCHVJvGFuqwhVfu1UJWpMssj6UeoFIqdYzSRWpZQGQEO2WABA+pkbqhtXfVAT3ZVZwjA9hl5JHOdY7YtEgEn7mc+CoAViiQLC/DFjLRdJZALtqEOEmAO6FyL8vjZwWKKHerlBwI/YVlIXkMbM8DatHEelhRT1yRdr2EL66MqPKUAVTMbETANomaEziHOjcOkhwYP7eN2TNFXrokB4/1q8Phzmplq+3ENt3IA8cNn5tHIq3YP94jPzFAdwIEfP4iY8mb/fTRomJ5uWSR2HvO13EyEp4ix3MoAz5ikLCRpwFbFfaTXhYuaqJSqKNwTnb6KoA85SwOBPHzjSV4rtOHyqEyWSlUtRiK862Smq4YiGhUUfZoCExfefHMjvxfyn7nUwnfDSYe9hRdSX0i3KOkiqLok4QTWKDCjtxSxTzWZkzb5hunCJN18l4x2kF2HdE2RDmAeyVGRcKJGdufhBfVA2gDQz8J98GEuLG52US6FHPN0APR3Z71RD+eAfVyyAH/8av0AzjzFbyIPG7IwdXhpmCyvIIvk0Pf95yYVUzBQ5bfhDA2/ZyolupVmKi+wQ7rddcHxjYnkHbTLb0DIuFFYHrmA/61WCHLBHJ4Q9nyWd7SxXGFI++Hdg7VZheK+1rRyqFQTtLTXQhr9Jexd67aoRYe3pUAo0Xq8vGwQap8Atokj/IaA8icmExIkRxlVX3rY1oV4GEfj5dZb9SdMhX6TWFR2+OIvw8u/BrRf1SJ8iz8XUAUE6MjTYSoBkCVZcch6vGnmtRroQNp8lg1YcUkzYB5m0a1LZ/ESX4pdw6F/FPua7RsCIqIjdSQlkA7BqdkBv2fwgOojBemrEgDoAAaT3ebwcSbw0ZkldRslcGl5GtzaVSFONXotcuwUtNaBwTQ3HxviHx+kbZk6LxvHDr/As+zaXCkaHH4vUhLW81l+2hzwQf/+TGGZ+X8gB8DoAAAQxgAMJFjQ4EGECRUCIKAwQAB8AV7MePji4UWIFjFepBiAwAJ4C0WOJEnSFsEFEXJdOADgQC4FJwseULDB2IQLERTcC3DN4AELLAEoOFelg4QZIg9EcCdSQb16AYYukHqAmdSSWbVu5drV69cLBQo8ULDvwIGLXw9KfXi234EOYjWopWvwnoq6efXu5SqTb92Gf/O6i/rQ2UWLYGa8ABNgccWOYDRiVKzxgLBcz6pk7lChyrpcnas8W1fFc+YKuSo8C63adC7QoFmn1twaNG3NnmO/rpC69zPPvX0HH26at+zMVZT7zpx5XQfYtJPrTi26AoX/BSoCVMbIuGPExhYZSwRzWONh7osbP1bPcbL7xhIftpcv+aGFZMqdN2dd+zZs4wAMMLbWOuusOOJMyw064HIJrQPoOtgtuGcqHM246mwLzjUOVzOtNA+DM60z5zaDLjVtrtkIou3oe4i7nip6SIUFzBHsL5qWyiYdCxZwaYJ0BDIInQgOmCAXcBJq64BfpIKhnhBCiEBIhAJISQEAFtAGnbUiuKCDlgKYIIIAFAAKqxvTVHNNhcIaC4a3DmNrr4vAyDEXsR5gc08++/TzT0C3UkAZyl6UT0aJZrAPMUUnOlSqBQoIoYNoOuAgiA68oDRTTDXlINNNJ+Xg00krFfXU/005qFTTUlPtQNRXY51UVExntVRWUHE19VZSY111U1ZDhdCLX+PqAIBDJVMUUUbD66hQZil7L9kA0JvM0UU7ejYAFapxoNdeK92Vg0k1rXRUUD8l11JYvag11l59FXbdcEHdFdNK7YWX031hbZXfVt0FVdRfHyjgAO22647RilRQNtH47ikhpEC1OgCDCIoEIIIxc4kgoQUw1maCe8xE6Bed8ALgBQWOmcAhmsw8YAEKOvgFIXM4jmCGAy7AeIEzKxZ66DbzVMBMFR/aSwUCtHPmAHD6iUtSoqu2+mqsK0aH0Ivk1NY7Qx+KyLFH52NsYweyVlur55A1GzKF2VtRo/+xH2Ox2rfvbs9ustfDiCLx7HvWgY/XNtwpB9Ay7O/56tyWYSttPJwgMScQKAAMLrggFzQLCsACj0twZ4EJJmipoA0UsECYpspU3QIFgD6IgAPQOdqCDi7o/KBf6vmln6BaCnpy4vdy84F93lIcWb0aevFOscQpfnrqqx/6qbYWfu88aRUWe7IsE7d+cgiRxWfahbfTyNG7ZYyv+zo14ts+RxlbP2z1L3rg5fEPV4AHxb1oIouyn4zkdDeLfKRwxeuZmRbAgVycDiH9UIaZMGAO02EAS2uZgAKsxJQjWaCDgSGIM2LHDBFa4BgvUAgMkpGSfSzAAmdR3e76d0OEHO//aAcYmw29gpeuHaAXcJELDo14RCSSZFAbGRt4HAO2rv1tPC9aDNp8mERAlc9x3rHI3izSwylWaz1040jeXCS3Q33HPY8LgAP4h0WioSNxc6Oi2d63KO9FjnoBEMYEemSBBS4kAlIqE5mqZAErjSl3aEHIR3LiDFnAA3jqoFxBnKE5ZkzgBYN0EMd2F4CzXBGOajsenEI5Jzr1hCbgwNNYRvlKWFYPeytKH2LelxGGaSRL45BgLP2kRUQl5lor8hstMXI++YRxYeHB32SYuTj9vdGXfvpfANkHuEexT2yJmhFIqoeWhoxpJD2DycU2uJYZzsxIpouAMxCCl3ssIBti//LRQEApQVuwkAIfk0VOFLA1ldlTdRgT5TSFpkOZpSUvTePIAd4ytRAYVKITrVhKLhLAukFGfsp84vsWQwB4ZKCgFNULMHv4NcXA5zFdHI+cAljHJ0LzWR2ZyHjUYzc8XsSNJN3TAuYowIrE55YS6WFQH1KjG4pTJAu4AO0sEIKrBJRyKVERx3wSAQz0siDusIB2dFeQoxWkIRbgkh8JoIAx3QOsZEKrVnkaqOOZ5ZTMS+ULoFcA6b1Vr3utyyyjmL/EGKqLEJuWfbKUARby9S/AjF8288esnMIvmMvKHzLDyLfBki2P+1OsYKppC262bzGNooizyhiAeFJsfBGQnP9DROiSC6QDHccwJOW8FIKgzHAgtHPrUCSAJbR2jnQGUUAEhhgUdFygGhcQIVYIYwug9Laza9IhDE45Uq14ZEnqIGIB5jJd8Ib3IEuEVmlnOsxjQnM7xoCHA8Ag3roAE42VSWlHNfuYHioOvxdxonz41qJDcVQ86m2jNOHrFZ8egCcrOiB6H6KiAeuxfxG4mSBhVw+dDGQfGCtIyRbgwNIBUmY73MBAmOojAkRAAp37kkEu8AsFaK6D/yhSKO0ZMkAeeE86jJPSsJuVhNnJTK3Uk46NvFe/IjOYeJOfwpS8EUcd1p1H5kr5FkVAKHcnp9qc1gEb65j3ya8xKiBt3PL/+BDOUpkr1TymM5t8t5O+z5v9+7BTqDJEsC7AJwkBwz/NcQ4MTGMCC8CHkGZGEKAwN7cXMDAz9lGm5SnpaD9WM1cQet29nMQwDu1uRCv9aV/+YwIbsZuL4pPZuznjliyMgAMoDWrG7jdvddvoqos5tvh4DTHqXemSe72RnYK6JAnWzvuKalRSTwup/TvAlB1yRaWJpEwLcIcCnE2508EgJeZYQJ1/QiVhw9VoZ1neq0cS5BxVIHrhZncSi0vLJ3eHsuiD23sT3O6FaDHe8XtWYBn2sMcaUzyU/R6/H5YtgAcgzfhOiAL40Au4RVzVmh2gRh5mjDkzfCBoLYF0NU60/0snzdwLIYAxQFuts/Riat/9eMsnh7KKFHWM7aOWYcboLGOkQ6QuL4gX1uG2uHHRlh2RU5h3bV/zgIc+hW2cMbf8kGDz3MTj6IcxbHn1ZB7bliqQRQlcjlaXoWPkUheMDsnt47yU2G00fEmeyK5jtFpA7nOne93tfne8553uo9bKLOMjcn+HFm/tQ1/4PI5vxjo2bNcCXGkHSLbMrlqzZOuhZSPOPmwFALQLl7rD9eus+GhrqBXvSDwDCVY/6l31q2e9Ug13AHiosEhSfbufLt3DpRHgomaBaO3hG5YHBF/4wyd+8Y1/fOQL3wEH6/uoT+tFhQl9RbRujDFaPXYqy//XpkJ/DH2hTFPyIOq/AY4sgCuLbG1GXeoLyIDittfr94wNfcs+SAjG8gB2CD//wd8//vX/f/4DQP8LQAJ0gAfggSI7HGN4CgtgBg/yvT8xu7nCvkZKmLOwrlbKKzaJNiyiQKzhQGkrCQvQE2MqQRM8QWNyCR44JyUiE8hLo/fApsZJODzapcNrNy0SHFpCNYyYOMapk/ogPTMjLPDTph+cDM7jOTaDHGihOTBzFIxTLYOADgCwBavzsYe4QrbIwrS4CC0Eui/0wmibgLQpnhlYAAkApBuEQOMxmoQCQbowOd17mocqooXoHDj0HKBDEyt5wEBRKLW4J1HiQEC8wzz/NAgPtKezkDZyYySRuICIOjkUnERKxIihaD+tgLn6YKOVEqoI276Y2pidI7vEmwz0KMKx8bLxEA9aE7j50bJ+u7n6wAj147kEWzD5awyv2R4YIQ+u8zqEiIZc2EOMkMRipCVjvIhkfAhjBIAJqIbpEQh08CMWZEM1kcByo5NiWyUikzYPwgsYKJIrCkdqRLS2qhiVqMaSIMTiqqeDKJkFAgp1rKSBuIaMcYiwAjqSAEQj+SSBSj2VOL0cIsFKLEhKvMR5VAi/apb1Cb3Qyqj3aIzwSSyp0yL2OZ9TqzkgbJzHQ5SIYB8fVJ9n8TIdHLiIQzMD+zoAoqXIICMWESaM/zC9hOiAZyBGg7zJjXDGMqSemYEBa9wxN8S0tAO6pzmL3rtDlTidHEuIs/CkGzOSNRSMAICOqETEc3SJmUlJlHgj1aEKJTmAEtuACMgGJZmADrAAE9MYh3CJEXyj4cG2AIiAoPCgAGA0tVoISLRJnNzLh/iffpiTkfKrKRqsmRM4jzqPjRkHiuS5EPg5rJvBmLop7lmR0iqU7dm1Ayo1i0MM+dMprfy4BIsf+pk8ltymo2otg4iGCtBLvjRIABhBAGCaADC54gG3n7wRbES7uhAIhhKytsOrOzQHCyCUgWAGgSyIfiC0BaSKD1PLPwkADdAG7IOLf0CWayiuhMwSZv9AluI6S+kiAF/YoAWoh4YjncK5hh4RJRlSCaGwJ0SyCy8BmtLBkqXEywdoTfy8iH7gAQdgBwf4T7RcCPIiG/TQKKDCJQQCnPcxvLfLQYqjqe47usYqDxmpn2eJs8w7UAFqvCZUuM/UOL8Ercyat1wTyWjJkuMEgMSzDzxiUTcLOBed0PfYmAL4TwN0gGpI0dvkKYTqh2fRiw3YgIShQ3BYuTt8GpPZh3rYswk6GgWICI45mtrauM1hq7OUCpWoJzHxTnsySykZCmGIALVSnQ06AAeYIbbwkg7gn54ZNbkTKNaSCnBIJEHqAB9RAOF0x4PYgAvAkj4kCtREi5nZoLr/zM57GhOpKK5r6MeDyFJmyIUQOAd5WsO8zJ4XiIhrUA/0OIxMZYxN7QlN3Q5ODVUKpdCh4AFAyoYIeIBjWQgiQTZYjake8qjwaw/rc7UGPZZHUdCNyEyiOi38qaXBk1D+Kpsziymo+1CGSzCr60z/QjZebY/DoD+DCIFhjExZxVbJ/JqMIrr7esn3mgA+UIZ6KJ0IQNUdna7cRKXddBvf7EaF4Dq585F6KAsLMIfdYao/QsuXoAk928oFWIcQWIoqIBwYuIAXYksZeoCP+YUxwQkLQBl0dcYQwBKg4IE1rapBuwAHABqfygkHGEZkcagy+QW0sIAqyBit6ge5vIB+/8gSClBDu9iHgeigjWGuCfiFXgioMgGDEiCT1OG7O7QAstwYRGJU4pohfQWKBVA7+zTGocpPFCyZDHjZgQgNp3A+eeOm8gutaYmyeyNFXe2brx09Y/vExju49jEtZaFBbKmpgsOIJPy6DICBZNyWN3Owh0itmdTVwRTW+yHWCs1IYwWAc4DGggiBC6geUJKddK2LkCtEurCFkytKlRMLT9PDpcCgZzCTfqiCC7gSbMOJsSyulwEKeMSKdASALyE3Vo2ABQADFXiJj4kAblgAY0BY50mHfTAHwhmIC8iri9mfmkDZllCAMz2LkI3SkR0IjukguYRdDMKKMlGGEsgGH/+pHG1ghn6QqgPIBpo1HaAIsbWYBnhwBwyQCEYbCT/ShqgYLnDQygOohw+Tu9KJyko1I+7b345iD5ZKD5bCiNRZQatT0VZVCHdwQfva2haxqVn034pIMVwVW2SJsFScuZOKyJaMvpNkDDL72qCagYTRpjuiRWXFN/ZzhgUToy8CsMDp37exBWotCA6oAreJ0MhYYJqqL138wQYOPYsAAGZwABU4OQB4gAClnvWsysctmrGQmeWhPbp4MG5cN4OApNJVgGS4mXTwI4EMxzsFmqpApG7DCmHwghnACXe8AG4Axiwhi1/ICa7rgMIxBrVaAC/wEbgQWQCoh1xwpwCw1oH/OADcGghWZVIrUQFu8xJZQIfTOQAKkKCwcoeXsYV6yAYKqAeI8xxmWIAXMJ0yKROttAAMkLsAUIcwndKDoKAD8AUyfhlwmCeEiDGExQCbJYkLeADQerIWdTA8elHIsjgoVIAMaFqpKB8Bnaf8cbx++y9h6r7NhBReylUAqEw2mr5oNiCOrEzxe+aH3DXCtVC5PeF2+5+dPVZwbrovQ62Mm0LHzKVEWR/He0H2aduBk+fw00lLfIDF/aZskNkm9opLCyASmuIr5Jk69K6DAIMIAMYIyKSMgUcmRUTcqacYsxKvVADoSAmfJAjcaQpkwQBxgAcKA96BdbEIcsYPKJwA/8gF6Xxjbdi4B7jTM3VafKjf2rkAsTuA93rLQc4xtOqAczAHrZrfA+gntRyuRg2Keeoge4yAiUY0j3mBTs4SskQrp/WcjGEGJmbdiHIcKZZEGInWJgNFyFPQ1OEDPwUACBKJrcmyTuzVYFXnxwCAkErEA9OUCjaqXTxWAB69XWsPrQu/ZJPdvVG8Aqu90CSwS82byVzgGSYIL7hW7yGIwCCA9hgmwk3nuTHs1yTitJhb4jkAZbhXvN7RdY3NvdiATRsyt1MINMwSX9CJe5XiqQgNrwwAWVABmMuSaJgGG7IAcQDGl6iCjh6IVzmIK23pirWnEJCAmn2Aol0AstiYmf/usAUQBotS1QOQgJDw6dcpNLnMhRIYtB0aCHzwBZLOBWYQHSKZx5w5GhkiCI5xqwMYGUariiSBAaG1izKxAPr15ITYBwWAAanQhgfQPcQw3RQatAA+0G3JFiDkKBUgZqqQilzYn+dFVLAqDMI6LSU7tbQNQoXBuAyI6pYDpoR7LDnxsjQyUbUtLI1QkQuFSWcOm/cR7Y9bwrDROrWNFhqRwoLQIjkhRz+agPamzOjjZi9ryWXBJn3GiCjZcD09nPkFpNP+yUs7oIL+Cps4uUXlrqPskmzwIAuAgXsYpM905EE7CIuiWC1VGXRoS4ZQAC8IUKWZFERDFjeyEqqU047/Ra0JCIF0qNlWvYBINgjqPmpnUIaX6Yeb2QcJoBIjCfCZYQZGC4JkQKENgoGzTM4DSDHFdasAKAFHu8qa7SA0KeCpNDDg8aG4xJ2ciID3sotPljssuYC52IgL4IEMsFEkBgPWpiUtVJEi1r3JeJzGPqsVZJ5c2IYH+M9oLwAW/AeueZycAuD0gWAsneCKHNsdbsISNc33i7gMJrxk8x7v4/ZkVez208Lx0zX/gqKLiOyBEMY9nIAm4AMbdYDFNaYiPmgsnBG8uQvCBgAJcIAVPoADjPYD3Eni2Qc/wteA3orUtu2uKLH5uCsNNAh38BgAQAdmOAzVEYZ0sKFEuvCC/3hVAJAFfnYGbTsAbuugIKjYs6gAL4ABZ5AdCOhYmnDBDJgGZTiAZJhpLEEHHlDVMgkB4P6FaagwJN6dA1iHF8Aw2D2dTUIHEhIjeLgA43wh0lnMoYigpTiAF0BDl/FD+jZObysI0nVEZMkZqX9PJYEdycAHOSEIW8iwCAgJC+CGfHqWL/GRYa8WBRAPcFAcJ+WIXrAdQe0F8Wi29lnAYmaeTHGbezgAHtDTWTLJt73mRnlCUoMU8aFgZqkpDh1WV7ylnNq3jnwpXzNBHQfR9gv8R8E1RPllUNrbdh7ysXWMerhuFRj2swsAs3iIXqg282hcMwGlfoiPU+qIKGdGxf9lnuujnrjzyooviYG+iC7/ChVYsEXthyK1QzeHHXcIXdIRXxGC+yyBjqDQ0ur1iRfIBQeognNgDC8IgaawAH+XCoCY4KDDhV8AACx4wC7XhAAADgxUAEAYuwUHFzjINcMYgAshLEyQ+PBBuoMmHzackEvBvQUKArizQOAkAAUlZKELoKAKhA6yAmw4qcKhggjZmEUIoEKBBQsvHQKwQAEGR5oA7h2YEPJggAkXDpgM8CLAgQtQwwYIgPUCSAtsk4ZV9svYBIsXNABIOzbABS8W06aNECJdgAhVIgAQPDDC2AUhHIibkDUXPphVZOUFbEsBH3fGHHbocNXhgQwiD/7/a5gWjFjWYmeIjd1atmwwM8a+APMisYOzVn8DDy58OPHixo8LD52ZNWzAufUCtp37tnTXe/cGuA04QHXnzVtrr+w8wDXq2tM6mIB8Pfv27t8DX5DhgHPm17M//059e4AF5oBH80xmYk3wgDsDIhRCQwqEUE9/j4WgTFrudODAAxO8MEEFBywVxALQOWTBA9sB8MAFeQGQjQPwsbieAhNYAE6LM9JYo43IXVBAAQ8ocICPaQGgAo0zpeXMAT3mouMDwR3g1gH3ZMaVSpJxpYAC3+WlgDIlWABWXurQd1CPXIUJgC399OLMSUeW+ZCXZEF1jzq7HWTLj2tCaVUABMD5/1A9zExQz2/MJPNLP+lckEsE9VxAJU0KLICPCnnmtUCiHwKQSxVBBQeYST5WdVAvE0SQi28PRWDBNEj109ydYXnFDFgXLLlaWhiI06hWEfgYRAgLdBDEAY7lsgAGDrhzQAgdLECBghZoANsC4giaVmU1ZbAAnwAoBxhEFplUlF7NvfBdWjOwVlm5gKG77liuOSSflzfSWy+NyukG217XnAuYeLJh9xp35aa7F7zYrbvaWOaOyx1/29lyob0TU+yeAjzQ53Bsrv0LHT4BB+DMniXAA1y3q0XgAAXKaJUNmBDwmEsI7vQTDbMi8tpBCKk+oIyIYCngQFIaAyAQiSaimP/yqRXDt88C8zIdtdT25rijlT+mNdOMKvAZAD4+HtCBjiEI5yNwZB3AKYp6otOBBUtPTWN/mFr1In0wmB3APhGc9indJxHwqjYStBiAOoAKeZJOPQYQanBGQuXRgGldYGEIITywUn+QaYAYReAQoMADIPVc0zmpcqPWAh9Uu93FEoEmWloqwMBH378M/fBzz+neMXgLv0CA0nETH3UI62T27nmxnbcfuf8mvJ10+DFX33Z7iWdd8+8Cll7x31Ms72fN+S6W767tl5Z/JsteZDbjPHD5AxVYlNBjiHmE2E7CRJABYtdog0sPAJrQ7nGu3VigN5oZHYoEAj73UOqBEpz/oFWqxiOwASlxM9qAXtiUpAKIg2mhSxsFZwQ3rgDHgL85IU0OQKcWtYlGx3iALRKmAo9IwB0LWMA/6LOBJJklALlogjhCwA1v5CIXzMrLNXphgRBwyDHq8dpYauKABQyFW2RLC1YcYJBwZSM65eKXvshVRng17GEIcQDUSujG45xMXQprl8Ku57WHAUxfINJjvl6TLzRGb2ACA4zE3mjI4yhgPuPZjshc00drgawlJfvNydJSj9FBaocZs8A2OnCNTPEgfkdUUDUkgpV7/Kwm1RjaXoqmQCAhzSHDOyQta0lBCypgHweAl9ZY5BB/HUAd/RBbAfBiy2Mis3gX+EDy/yjXgdMYUCwhKEAu6FMBB9RjV7/QxhLJogCP4EN4D0CMrXTCA9hxq30BAIdpTiKufllvkA7DjjOsQz0gzTKZx6zkAfkDr+mhMXvZKedAWYOd5dEGeNaZHmwM2j316BOZ8oqOdtJnLt5xZ3nr+00IcpEX2DijQH1TywGGGAIZVWF0WlHGAlIGu5dcQBwHMMY/eFAC6QHgHNU42okc4sCIAjWoM7IgDPpxAJE5RIMtIsBQwOBBJQk1qlJtzzRqpbELdBNIAWDGA2BmgY6MKC8YQMcCNKCeZqWDq7MS2uSsuAAVdiAamcFKttypmtgErKHvCtj5sPMxhMxnqm/k53bM+P8ahDGsXLg5I24Kih0wIJV8iKUNZdNSSMGW8GIZE6MdFTtQd/FnAZO0SrfeFYEHWMQWs7PFJbXhgGME4Il/mYA5gqaeA/BPAjzaQDZ4MLTmuJKnSesNZotr3I4o6Wqb7SWLhlIksBGTbMedrmAlxx9hjEMDzwhNB0jlAG0IEbWOCYFHDBSADjwgGcs6QAnGQRAN+BYAL/jX61BUSRi0M1x3tQ13kHpQ4PGnog8THnGp+71u1XM/uCnfHfUiUFshrMELYxfC/mmu7twTPRA1cPEwMlP8UHTCEA7wc1SwUatEowKTm8A8jsddZiQkFy9IIN+iQd4QfGABzhBG5kIDqfj/eWQesjBgKxPo3MbFMkUrmqpOAmALDgvVgvswasaCZKPVsKkCOgohlLuMTFrV8DvwUKKNg+CFYzRLIt+MgPBs3AG4LKAKHbVIk5Y1AV+442H9yBYHtZgZFUAEHe4cmn8fhtCB0dGh/QWSh708tUr6VWPe8icjG/ZI6elFN5gOJO/8CrIAXNbRTENHBtShAk33k7P+guR2JMm+Ab3AHUq8nI0tsIBkvOQAyQgjsMTR3bSAIxccUBR5JrAstzzFNcH1VK6Gy0JkXoNUzxZ1CXHZo+XOiKldMxKaiGlMaoN7gtaVTQQP0ueHDaUy0QTKngCTRSih2x0ZEHTsBqSAcfTt/0X8+VfG8jMd5wJ4eucyRj7DXa/jDUjgFEZjZDF6PXLxF8QDzaiIDwtihlH8oQan2C/YGE3t+LufGBf4iWnSLXitcEAE4GBawuQprbL7yZMTWVR2up0k/1SqM4AROpi78WorqahYs7Lc0v3UHf086VOboWoljcenQz3qk1bLPsbxVtDIFUilAZeYcued6ICoNYG8cBXlpfQb4cuziP56wlAtz81qrLGC9KxDuae7dunx5hs+O400u28QfayOj8SOqykpu0DiEY0PUzzUA7ZsWPaUN9M+JlMcxXcJ4lKX2N5a114QzLCN7fKiv1FMM7M9Cmc66gz+58OMkUh6pzMvkv/C7+2GxnoA6+d6dZc4GABgjgKPHj6E/Q5Gdzfxzyresw0VsKSdtzGkbjav2PFe8FnkYefCi2EKB09o/8NRj8ZT6kj1Du/SB5h63jMqDjhyiTDQwCVPleAWgEv1iYdLH/ErqVf22tG5XP//r0dVfQb2eFqAsZojNQzBuAtjZU0iaQtobFHjHAAfCBoYnZ/AMJ4cadoZiRFsrFEbAaBxVJKmBcz4NdT5uZ0CoosdzdMiTdheYBy7kMfDhFoIIhIP9MIFjsfBTJx4jAVSIUQJvNoK4sd3+A5Sucb4WdwgwR2JGI2nJFnBRRUYwEjf2ODEWBvWcI0JJdwB9AM4eNsVimH/cFgXGplhyChaP42fQfEgqr3gZpyTfbXPZuDboG0aiLldPwESQr3ABsBDBkzeGB5EtwgYht3RXihhgyWUIp6HeDQHubSgv7HhAaER9QkicXjYupGHeQDYbGAanEQAYvzGsOUFyORfy2VYyDgdAlaWKuJHTtkcIX2VT1WDcaEDSIDgJQ5VcmHQnihV4YTM0S2JLl4imMnTIAGaZEgd4snTCfLOnmER1mWGMZRGBYrJXfnRdTRUI8FgGs0TcDUaMQZHabEgMz7dulwaZ10UCX5j9SxWv3QjIe2dONYNH/RCU0ndN6YRASSDA1RDd43JSZyMAsJTL5TAU+CROVpLkThS/ys9IeQRwG5IYVQVhq0FIj0WRxZmzBaaUHQcADiAXgFIF0ba4LiZz/XgA0LwyJFJHUueZDwCRX3VG3eogDrkl5g4CDxFHSTujn3UR2IAIklahRfIjsCtoypC1sA8GMKIhxJijwxWT9gdTAryhyUKpUlMVJGgHpxI3El6CjEVgIU8wAPoDFgEyHIIDG7Ygiy8WT66m9Q1R+8lkHD5FPxhFgzASC5e5XHcH9Yw1f4ZCZJs2V4CoDbQkD8RTMuJTQjk4ARwADd0SX+AxAVYCQR01D8Q1MM1jgNui87M1da5kzKcWmMljLroEfc8InTgXbywEWEO4uEBBr+MkU4m5AkWFP9i2iZB4hV/oGPCkA9/1OBVXsw9zpEnCtK5KJ6QSAAP6EhzNqdFlJb2kUUu8MCvBEA96AxlIsT8rcQ3Hc+HMKRWNtbjOUQUAh9moUM9WKFrGodGeorcZMY1+Mgw6ci3safo3UVm+M5elNQ2CENWdFRMmcUEVOdK5EIFxFQVLE9TzhMcKsBnxB5g7MNNAgA6SAhBORzv+OBuLpJYEMAfXuQYnoz5jcd0dKJDgdzCfRYlqqi+QE9nwcv4WeVeZiJvGiV/GENQkMUCeMUDOGdzfoRDBIGAWM95lEVGFMXx0MqAFig65AIExJTmUFpGhciIuNsDHMP7TZfX3Cd79GWVhSj/cXxGdhxJsEFVl+LnB3QNPGLJxWBm5swAAFAAjxAoZSoAO3wVl9BH9CgeAEzoAvRZXE0jRHwRTqbRvzTS8fkmoqGPw6zRJ7nm8DHqIf4daDkMJOZdHsoGH60aFWWHQdmmZc2jcJaaMXAgjkLFAaBDqigRd2mKjzanA2jna04OQiXGzoSNsEQFN7QUD1RT1X0VUyDkAkIHeZZI5E0kmoabtbXKe7bIkzWd5/VCSI7ke6BNmCrrLeFFptkdl8oHpFCfYEyAboEFOHhBrihDP4zYeTTSUpgGhBJiANRO3/zDhaZeVz7WvYLIYknkeV5lELRP/gUMyGjqapxH8Ykc83Ra/0a5JAuGnYbdp7xoogokzgY4A6TASBJVAHd1AEPwzQwQk6+WxEl4QRXI3r3ehvC8mW0BBTooiEg9RAd8QC7Uwz6AXYQByVxCYeTlXLZu3Jdm0P75iGCCUOFoBbb67AMtkwzCI6PNm+gISmJ0QDYUCFjcgwLkwlh+hfQYjKc4oGpxixcM6hW5U07KoMGooB8BHrugnNlFqmgsYL5U3G2s5uB9atzerKRx2h8lZoMl5fGB2qgKZSKBBdcMxQHgjgS4BZldTgVgQAQ8zUFwBJQkw45IwNJ0APKA3WjiUwjUltBMSDRoRQg8xT4sk4m8RG/qlQc+ZHkiq78mrai5Z9bIjf9H6lIYskhWvE3s6tO4daJ4tATGgAEDRUUIqEPV6gSm0Ap4CpjamRM6VVLQ5NtdHRpvft3ypChrSB57coA6LR73gIylht3uNA+LOpj1PuzBut2MXuW3wkBLwYgwKNFYdkAy1MUBQKsmDtQ9CEbUklb7NJyjCsbTuM1uTACzTIA4qGs/RMA9qABXTVFCkQssbocKPID70SLvGhzQ6l+NFIkz4M0HDSN8ZEVDaDAyGebN9mkivY16QW5odMUA3apTYNWH4KytGAN+/QW3ZB1p8ADX1YTt7dVqqu4OCt4BfSB7xhEGJkzfBhJrbFbulVNuIFb2ZaN+uB3jBefg8kAyYBX/N4xlLszfU6zp06EaQgCxQHpvCSYIZT4RM1CIqYjISyhANTjFAWPjba6GsTabLMFucTnrCWfhKfqctcbnAdxu6LHIi9DfCdeSs5hehWnHAXgBj7jDYzyAh3QFFEXkOjgAN4QAeF3qpQLPZtgOXMmOpPQChVroOdqRviAg80mc8AQl8SDtPnkvZc1XYc1G+G6g3JVv0z6sc8iRyGEU+wrlAjQBQUxAD7llYQVMS4iiVXCAyRpsxqVFL+SCOJTAJbND/CDGAUuErjlACIiDL2xWMZuo+rUaztnlcW2G5QkyLw7dL8LHxx1ACA/mIiPFLTty1ODKeKwmf+wDFGvS1JHF/z8sQC/AoNxh1Ab0ww/bVwQGQD+MgzXWRE4mTGT1EaqV0SLSRhLHDRh081kwznAE8kMACficTEcjHm6g6KXpFXI+JUxXcdoqXuA93RazBxf19Kn0iOOYxJgqDr8IddwkEkK6Jd/qpC2UnEAiD2h1bVpcQ0En9EJ3UHS4QwlY9fdiSeseq3xtr4H9wvz5M0ZmnhYWsnsYLnkgckjaZ3vohASUQLn9sxvlp8M6nP42bEKSsk+mRVIHavsYg03mm70a5w1HWHXsh7p8aC1PDTqU87zkAlsJhwIQBHOhV4+sp9b8EqSgSNY411+uR/ea3vhG5b/k3Uuqmj99R8SV4ydm3P/yIHNxBCQA+AJqBUAJ9MLZvNVJ+EIHzMsLHE9K1k2QforOqEMv9INdS26lqOtVQKhaGIMtHDUmZsAnRd0uu6LulZhovRqJdWVfoxsXYV9Dg4ixxhIB9Ox0NYkJOzJRUZlo18i2eWFJnel7uB6MnfVdT0xuq1YR6+DiLfUeBcyZ/DC89jBZ1FW45OTgEWGDZQ+n0aZIH8eRTCsG0QfYYHguEqiEcAU7hMC0WQAPfNVJYE4vpMzufkoEZGwI8IBw08pYasADiMMDDAR7DOQcuSP6qi2EmZHdWtxeMS0VfbRxpkXECG5xXI5EOEMQsNEBBAFq/YZthYo7kOUvKYPQXHf/iU/zQ2BODMP3QZSwBWStA1TBAfjCN48l5ijENPQecriDAyjAqVXaH+nOQh7fU5tES6MtbRK4GZdmwCgbWJtnf9NSAMADM/yDc2fr7HKkLwVJy7FJdLGIU9fFWvs35m1R8i0lHjmPw8kyMW9mHM5kWkQ0vU6AS+bdoR1s3proY2NrAoll/Iyljd+6hYy5mIRAMpxEgaTxcXfAqYSGkVhANZxIcmuAOGQE35TUhbSUOZSAsY0wHLWPwl0HY2vMhupkhsI2vDhiT8ZgQ1fikg/HAfCAWQCAO2iARwEAPIxlsCuLDJtEgWRDTfC06Kh7cotGWVzIWfyCzogDD/hCOrzE/40vgCzAQwTIQj3Iqpogh7wEOBphb37o7XaA9294AfgdH8TtpIkynicyVBUlUNO5rpZymOtZQD2oDe9KWS+SdradS1Xjd9HCxwYsgK3Z86ZjnjiwJDpq5t+O774NrCDBy2ZcEdh6prc4AEZriaX9ucZksZHruadgBKQiEqkECstQZwdkk1ZoxXpWDmZwRfy4hJVYiSaZhEc4uVMcRAXkQpy3FE2Q1ROJIl8kQ8t3RLWKoDrNbZ4zY+DllTwR6911KPpJmLnw9HAIxhedlv+KThW8ULiku1rAiEcwRAek+wQcw0hZADeARVZIhC3IjEmop+IodD3wAAyYREeR1r4jUv+pfhYdvbLcRVZaGAOf06rHwPQFJqXcPgw3GuCnqffrInqiT4Cs7Lyy4hLebFaNHJl8GhXuvocKuMNW8PwbXQA3ZEai4l7YVcbyhZytmEfCEoWpR2g2x6GDs6Ajop6L+vh5ENwfrwdGCCHjh9JpXAAPsENoVME6AMSzDiE6KAAAYEGICQcn8Mh28EKHBeiUTcu14GBGhB0iHAxwIVcAjbYgRNN4EmXGEOsABHiBL4BLMC5dwow5IybNmDZjgpnxwucLmTrBCB36cyZOo0CR5nQaE6iKAA4WprR68ECICzMgPjigcUGEA71EZgzQocOBDRFzacvlIESuZFUKaozwACP/gAsZOuoVd2DBhAvrDJ5U4OCFylwnjUW7UPYqygUZDjw1GtQn1KQ5i9a0tQCeVQ5VWj7N/KLp05yojd6MWRnqTaABfgJg5kBqTFsPLLQEMKFaZOHDiRc3bnaBhQUEjjd3/hx6dOcXChR4sK/fgWsxfUs/yLy0swMKwOWq/sB7SxiQ07d3/x5+/PYXPhBwipqzZtr3df7sib81oQKM6R4FMljAGJE6MCkmYw7IwB2NFIggP5zu60w/p2baL4CiZgADIcrSi4Aq4Q7wwrpfDiIRgxC8ESaCepSZYAJmvlLggQfSUSCdEB7I5ZwLHnCgg1zQqiAvACZMx4IHLjBnAQWM/3QngAOsPGAg59ACYMP7PuRMQJxmgk01nZ6yMACblFqtJw6dciYnZ7oMYINqqjLOGGYKcKCKXC5wgIcKchmU0A4euBMrBURSgNEDJOBBrF4UWACyhB5gdAEHHsDAAiEzSMZItApTMoLkeLBAFgqj4aDKA144QJ0QhGGPOAV4IHM22pYaKjaXxGxQlhKs2tJCnlpTDU4wkr1pwwAt/LLX3xxwCgAnfSORVvm0Hc4ZCyZwZttwxZWPOusahZM791Swr8MrO6guhHHlnZfeeuO7IIQN2oTKP6Skmi1X0/xrsymbeFLBVoMU7KAlMFRQJ4NREaIwJjhnQ/fZXPsVEMPVAP/AdkQHlIlMAW5C8NGgTEOyIAQYrKJOqwuqwSuXkx1w4IJSv9KImSJDgEvQCXIRJxdfLjhmGmEeMKm5LXNCykKj/Jvp2IqTEuq0oDKMjSmsdTVz6jNbK/G4AM5Ba9AHeIirgrZzqWCdgToKYNJGaYWnmp0ZgxmkB0KIoMUQxsmAmQgU0LulCeLygoc+vVDA0AuOlvzPx5qb7IAE1WwNTf9gOu2pBcwZlmFeB+YJ3TIFlG1DqjFMzTYH9OXOWpEmcMDeegNQxgIFwMsd+ODLfQCG7GDrLj0CEgxAvMPNK0Cc4KWfnnp5hZQK3WW9dE1XMdE9lrUynSLgsAVsUTBeAh//TFLJbMRfrWML53QzdYQcQBw6EhFFaYJDlXEAHemYGTgAIIwQoEMjkEnH0SYQBD50xB0KsIUFKqC3e6RrQgt4ywUWsABwLEACFmCGBJhxDgscoy/HcRo+wEeb1+UEJvjhz5qeYpPwQatDAPrPh8DHQ6dsgGzHuYdGtOGFbJ3kABEZSFqqJJ4ATIAP6XiJeCpzkHTkwls/o5Q7/gGAaWhAIwkaIqkicAEeTCAsgLHAGiVwDmaskVLNMRCZepXDNFWNJh7KCWhIV5pe8WSHemSeazomQw5xznbTykm1LgCAxICsevIxBgwMp4JIXlJbw2sUmdyzARXY4nxXglx1wIhJ/1OeEpUpwZcf72OTZnXMTGmCoYZO95qcJMw3TotJP3jgsowoYAKc2dhmuOarrsmkKT8hACSlQ6J6RIZutrjdAnwhDgTqhR05i8AE1igxAPxDKydhmVgWwKRp9OIkudiGBDxSGaP8S1kgUmHpehI2/pgGa2Ezig0B2SahDMwpgBTK5maZEwc8MzoH8Js7orSAfzQUMtfgpjZMho9s+OkYLOMBp46WDAwQUCPuONRJ/uSMSUWgU4g7Cw+E1RI6Pq2Kx8FcQDs0yAoF7J6i6yPrnpK6XuWqM8VaDUBtyB0L4MYpDzhGSwhwu1S+5wW/e+pUjTM87FiJO0eMTk5gdYDnof+HqmEVa70uEL2WbOAe5xPJWlVgDFuoQF9+JIBafRMAWxgDreczxrrOV1ffHMABCFIQg14DQAlRzGJ25NqXcHgZMxklRPh7DokeMpxpIm8a4yAIWk7GvrN0wBaJ+kcuqhGNXOQoLhJTQAjmUQ0KLUAYyaDc5C6QjN7Mk5X/5JeHNhTDqA11TgLl4W855FNfgek/qnnAOaTjiwJkQAM5ki4PCrA/ABgDXweIQBVkKyQezNZPEsPSrBIlJR4YKUccyIVqM2Cd5UTAT7O9gC8okAsKHcdA+yCAITXEJtko5Vf34GNK1AuAu94DrlIhgIJjoi++nm8Dbv2kMRCM4AUHgAD/aV0eANJKV2wtsnYfm9ZYSVxi+GjycDx5D4JfcwAYHOAZ8DLxjGksHZmNh1GH2wcMcqwAdTAKBjsWcpD70WMjK2DISe6xdnngu4X5ERwR0whFzrSTfdEEkV9D04ZErNXjkCiFkTmqNykQAkpdkFYBeAZeYrLamzmAD7lIx5VoddqBKGQBR2PG7XjDzZw1xwsskU0dnVU1qHGuas2CH5u6lJpBZ0ZXXbJTdBZQjQJYoFXbwZEXJPuRaKgltEoKQQaC6Rup9sJQ6gjANSLQgQy8mYN01sg1LMCN7z4AHmX0BTOm8QBu1KhT7CMO5tB8TC0nN0P4UYFOU0IQHKtDUj0m/7KRhZzjaP842oxKcpCnDQNn/IlaD5iGb5xaY3OfOzLDezFW1/qeBRflAPvwanXM6h0voxvf9moIH272ah5kAOAOyMDgXg1wgxucBwJXuMC90e+DP1zhr26CAqQCgCyp70ASqoeGnHVcFwIIlh5CzTXsJ1nn6I84l9UIBELgzYz0413ciEhcLGCOfYj0tndJB1jQZkKvRHgDACAIdy7YtNI5NofD7a9iVQNUACmdkDJkIXCl9lMLAdG6xQlACJ6Ri2iwD8wp+UgI+mGXB1DASdla7TZkteYLTMAcM6jHA/pigSCAnQNjpkAVYJBWAHi1Cpa05BiNg44M9EIqwcVamP8I6XFgtRQlFNjGmzPAg8FR/uAOB/g44AwogWeAD5f//MMhzoMHhLuRImFmvllPY03Km5PuWWuaDpCddxWglFudEMlb33vdHZkHvoABOiZS/A6i4xfER/7yO9j8X/zi+MmfiPSl73xFcUeXAYCBlH+pjKd5bdFRWfShVfOxDNy7OP+rrHDGTFJxYOQmRQ46iYh0AW8pIOjX5Q0ASjAODYxq6yBgAjiiQE4iBCpAOpxGawBq0Y4NmY6pX2IJKmLonogpj8ykS4wiiMrmtCilAkJgZ3DEclBi7PRmAR6gCmzhLnIBfyZgT57B/iaA4g4CHYJgISIgAzjtl4okU4zHkrD/QlCkYwHGoR/QjAE5pDMYb2vCwiroJscmoAlKgPiajwo7KPmSbwqrr/qOb/qUr/qITwHWI6mWKpF8zwxJTJOyYzvaTfa4ynnOIz2SA//OkA7p5QEQKiOkqjiMwSr4sAmxj7BUALDYB5hUoJBwYjs6Z/HQZHs6o+RCJuv4J7BIKuF8JEdu5itwDKvyLyPQokkeRyP+pIM6oLICgANQiwdMb0g4gPeMI/ucImq+JHw0w5DwqDX0aE4ECU2AQrfwQ498CgA2UOtygQfOIeh64WRgJRmbEF9AikRA8CAypeUSaAFkTSNmoGZuZ73M4rQUAB3GoTCwRLoAxUccgAXliA8O/yA38MjxeOKFAmDZRmc4AMvktgU8loc7xIECrmXE6tAfTQnF2A39jmNdpOJKwOH24kU6AkAOf/AfHxI+SsSWhgJgriYDLaOfamI1AMni6IluuO8gFGDjCmqGpGZXbKqmDKn/BnI4wm442i8UnSQClKEe6oFGjoghZxAALIDzhAFxsuICNmABoqEvnsgCIuAu/iYbziEbOLE4nOafeNEytowBdUsjZalDBsYqtTKoqi5XdCgrNRAPiwNyeEACCE8BosFvggCkUsIWLiAI6OYtOgCdMkIZeCAtriIAIsCXAEACrMMCEAdykiFEyu7vaASlTkYZeOe+ZIoyhKlrFG0q7f8oKsqpVm6l2ObEJItifvTjK6mmnxxNBcSN3ILjH52QJSGSXM7jcNgNeZInJq5hPOYNeuwtMOJINXPTOySyyjhEK4sFNXhrt4KTJGXJ4tJHJAbxsCbTVzDEOZklTvwrsuLQAcLsKlQuI/DF5drpF8roGcRBIRLnA6wDfxhS9Tog64okAUvHh7bMuIhChp7TMpoulsTkFtmxpmJpufBLA07FD7EiBKojL61itb6rHjrgGMDlJLipLBIEMJRh5vDCkSTgAayDVvBBAUjOHfjA5WxhUKTjG32nFvmlTQwmNhiR2YTDQPBPkJLOjgCMeWaChZ7FyuKTNbqSdlKvyx5ym+r/UTe3JSDrpz1EIjfwwUpgIMZwLw6ZAR308EefdDiMYRLNQiT88D/DZYXoxgEkJixI8iWWbtAw8GlqakeLI8/6ZFCSQRgMqABkjlAIpdQyAiYzomYiJCWaxG/Qpi3whR3Qqy8m5CQi4G84LF2ErgOqlK6MgyBaIkC05j8IKmogrZZ8MzKxko4yJiybgr9yYtKMQwH+LCPyzG8kZ1SrUSPAYALE4QMssQIiQDZnQDbHo4NKJSbwdLMGZRrKqhq6bko7iD0wpzT+qgMQ0CMKlTh+IQNSZ6Au5AjzkyngkQmHAx36sVij40qPQ+bIDXdOE3B8FEpPjDXpjA3bg11eRd6+/8o7CAAdzgE3v9VdI0OzaksYamtQLiC27FW2/ERfLwAC8PUCKKC2QMJfATZf+VVg4wsugvUA+IAQ3Uc15gddpq45+WXxoGI6zdQSHwA8uQE8o+FkNEAcxCFHqiEZ2ONRhA0CJPROO+DtCgMeHkCzJkAqOoAHqrFm2EMWwhNy6vWoSFZyBKVdh+MVJdPjOoNqnFUCkxCWVIcW/YtEaYInsA46AuO0iMROIyAIbiYu8gIeHMALqrHVwBMtvKADOOBkyhED7EpxcqYwJoAdvPaZTDGwtu5QwaLJAOCKcoEC3CJHJAdU6sJTH/PKajQ69Yi/BEweVbQAqkByCNZPZOte/f8kcu01YOf1Xu+1XyVXtvp1cv0EA76LH1Pz3JIjaN/1XlizNRdJXdTKSF8sSRUyOhCGGUpAdE03N5MhBMATPMehAHLXbzTWZDT2A1T1A/xGHDjW146XeJGXYzn2A56XeFU1PG8JHCXE+zQDoN4zP41pQ4apTIkjAMABq8jkGnDCnZwBH5wBHOQpIyjgbjWCZoUtI64VANBBGCBP1B6gA3CGPfqHGURtWNMUJHIhbiQCtwbt0Oakc8L0cwZmgW0qmWYjmazsynDKoCJROAKAGM1x5xIIvobkf+t3BKMRA0JFT/s1Gew0JcqIEHOEGG8rIyKgCSJku4pELiRnUOhiGo3/g9gerVnDtI4YMjTmcSDEQQNytwnWBnh9hIlF1kdEVnmNV4p9N3eRt4qNmHg/wAvSIUGkBSJ/YQLggfBsF1zNRVxfUzqYg6vOld7SA5gak4zjGCVKADe+IyX+865Q4j+vdI8Pwg9tITgdJAOuKSTrwRBt9Fdc9GnviVoyxVvlYwC9yQI6gJChw6v0F38W4Bms0z22xGhtcU1O0ip1YuoqFtl+OIgt5oHRJRgxWDgCYzvNQlHq5QAq4Ecy+YC0xVYO4HwG5Gl4q1EpOB6hw0hQItTG2EoBQHmU2SMOIo+b+boiLIFm4nvr8AAmoB4eWY6bIyBVrD3wKjesxPZIKV0V/6Bwxnib5fh/2OV92tmd3xkeIUZi/iGYnJYmAOpLsVe3ikJNjGH1WO+I0Bk+OICeGBFqjsLKWocdLRCQjtZRp2bL4Mc/cOqgzvCI5mpbHLmg5MeXMUMFBsZhBsw5ihmeS9qkoaKptvU0aUSb07k4NOmMa1c42AUMZhNdveOa4dil45hE4OrC2nldciI34FE3hnqoVUOtknNKQ5JixhQrXbRLKJDp7Ohid9oV6WmffBnZnhaYGbEWYRQDo5ImUqeoOnM/rRq/bgWfPA5j+gP8YiJFja5YY+KT7Ep8ZscpWGzB1Gp5ziepiTq0/pkOyyiW0fqlUVcgOylBsMdKEFLGvP/jBQxHoA0bSrPhfmrvSjJbszebszvbs63kF973ILqTqyRQWVVDTYBYJMyBWik7Ml6xQqKTggHKqzGDKFTDQlKnSxrtWIZJKhxg/Vw7MjAnQSLwlRqwp/ZoiJ3jA1vlSnrhs6Nbup8bqyRApf+RdGVauGHaNbXbKkIrNm26jdPDu4Xb99JhTzxPvRMuAxpu4Dxv817NAS5Pvt+bvTmvvW+Gvd+sAFTLYcHE0Zy6n1aHanDiEc37KrYkOBd8TdaQ45BLCW+xYpJOKp31N2FJYp9CBaqBuRD8KhQgHfNDCUkyWfjLGOL6OKhj9PBb4RIu4hqOvfO73whu8+B74Pjtxlv/vBoc0h/NWac9PN0Q28Hhw65nwMWwhJyBXMllmQsbavoWQPqUjwvBcAoJIgKWL8qhPMubDx28aULeJ4ElMNJ8UyZUQLCV/BUbFU2MawG391lnUbUduDi3t55wih1cGcGHUB1Vx1FVW2OEGDoCgKGanMu38Aqz8BdygQ8Yagql3NGhj/iqD8lUM7IXYLKXPBTDtbuJ3CXijTbBCtNDHTrwISQOolPKW0LqWZYWfHtoYw0zvJi4A1hFvSMZ1T69mqN/gobMpKioLqC8psKHqjnB0pBGitbrNwNgwBA9ziYO2YeYBTUOOQBOPHGB5y4QnJqPHSVQrB/QRPb8SJyRvHe1/53ch+Mvc+4i3FjVcRt85sci9+NqAIC1UV2OV8KPAsRY5mefXOPPsTIXe5OCsfIk6VwD8dy8Hbm4eWXC+6uHlHt6KLTcQ527j4feNSLowvsNazPiN14jTqQAqmFROMKNKWYR82jkwvS0aQiyHPnYFfCXcXsn3lqxiOu4nm5ilTDkfvnpNqRODF64DQQcCC2Ra/5L0GVOUFzfQJ3jETwgY++bYaofHFtJl57jF2AbCuButy6EpYO0w3JrwrRLliWfcsUW+i8xaN1ptPL7kvD75BwDA3zgl/VEJ1C1KfKCtb2H330zxZwBRRp4moTqPXziuYPHpQO8Oz3jlT467mEfsv898N01T6pjHiwnnLxDJB92P3SoWYa+6Qyc5dGeYfYd3kc5I5Pw1o/ldWSUe0T8qRU+dRjxrGndQBDva2CxtyccQ+QEWqs9d/rHsC1J2DO74uO46XPCSbeqxaA7IdvjmuGBfh9fN3GkOvaE5Pyk8J1DAa73hhKt9u9Z7o3eJZaptTGdoFkJy5B75pFLbA7JMrr3Wdd/zIN4KoI71Hu4zjPEYtw9dJb77xU/nQkAIA4oWLBAFrx6EbJNmBAAgMOHECNKnEixosWLGDNq1HihQIEHCg6IDNBQxcaLGwCQBCMQXC6P4k5WPCBhwgGZOHPq3Mmzp8+fQCNG8Eg0HQBmuXr/9VRQj6RTpy9mgIka4AVJfFetgnkaYOoMkgAWOLgZtKzZsw87dFC59WrXqFupUg0g1aozp18D3J0KVaret3n5krS6kjBWwnDpPn1wDq3jx0t5HHhqmGTerpS/3nWqYoE5yBcnPABNGvKBCRZSM5OQ2kKEhqVjy4bY8aOCkJsDEPhpzJYxks4O9OvVwaOGnwFQk53NvLnz5xMDCCPqMZeKdBUW9PzHcOXmtojbcqVLeDJUfAAiOIANvf1PtSr/4h38lC/hlYOnip/xQvz9voTxBwZ/iom31VdWJQiGCgFUM4F7EPq0QAYH3GMZVwqSR554fy24QATQWTBahCRGpEIE/6mxxpoFE2hX4osn1QaSSOYBYBJQtlwl0AEvfQQUigrAKOSQRIblAHUehVTFgzwp8NpcwDmF1YVeQcXVZQ1NuFyRXMLnFIcBbrXZV1UOlheZiBFIV1xY1lVfgmZWhZd4GzjAJJd4KpDBPhvY9xZ+amKIGUnGyFICdKLh6R4MqFmgIotbKkqkjLcdcI1Tu+H4Gz4igVNcASHwJosFChgj6amoOqYeDzw0MQ4f46ATQAcW9PTLa/mNZxmcg2E1YH9yAtuQeuylWmIQa0UpH3iC0icgfYoN+qucccWFl1UEnkkttGraaayQE17DYABTfhUocAdaNeVTnoU44rexGYPio/+umQrvi5TSCNaNPaW0wVs79hjTT+hM8Nq9CCd80T0iqYdOP/001EEuS2XD1Xdw3Vclh3NW9ZWRkSrcnJf1OTUmYIAJ5rGVK/+HYF6HFSZzVW1lqzIA3orcngKSvbmtfPRxmNsC8CD6rs5oKYCaBCrKgrR7lIZknm68+ZYjp8J9etxPvUygTLFPh/0tOg5ElEsF2+F65X8ackvYXf+9QACxYjPnRbJVTQklrxd+eVl/AuYlrJy6rtv3gFZay1XOdcum5W+BpjtotG2L1+5zIjZeVnKtsdiP5szlO1JJQf1LUsAeHb2TMTPUY0HIoMf+oljFnpNLkDspXZibJv8Jc1//YPoVFoWyg+al4TL7RS6vUcGpOLcebwxlnIQn6BeU6z5wZ/GO8Tz1rggC6GeZAdxDtNHc97TAo02lD1rUB6ybqU++nX6AOgd8GupP99SjzefuCyB0aAeRCOTCRTphiqCQBxX/MAtLUSlUBsAmQJ+QbFdgopyBrkU5rQTNSgQC1rMA9yXqDY4kjKsgUMQyNTD9ikNYMtMLbHE552ROhSdxhjJag0AcBkV0NeIX/QaDugIM7Ce/kADsfMjEoCxgHMVSQC62hxMn9eUpe9mM4Q4TmPI4BWRN7AnJBCOX67XsZSpTFhrLyJcDOSszKyshlHBGxTBWsWdmSmMc5cRFDi3g/1DPSZQdL7KAFOFukDyBn3lUML+eMFJHvdhHFYwTlABMBpGY5MmE7OWQAKzjAprEVV4uhZ/xnCuOYCIAPCaYSZlwAG8Q5AqH9Ki3tuiRcJSRo4bIKMPzoLCOrSQkhX7zxnO9wFe5ZBeIMKe6YAKgH6ipB3qcKRMgkoQAQuyX/frBo9RR85uzISBEcrGW3FnsT9GCknkGRybCaTFLYwHnRUhmvQNVKTFU8YrL4ii4Lr5sdzOjUmLcshhgyhMieuIT+QizMTiKiSTm+0wgmxnMACzAF8s8KEZkBIN9jI6RP8HmPRjEkpDoT6MoPYs4H3IBDvDkH02hjH+AhkHCxdAp8v9aT0olQjJfIYZlc/lPtTyYIeolL00rCWEydZXCnTokXOOiGWb+VlNcbqUzGW3ODeWpAGYc0qkSkdE+uElKbAaFAMA5ADi6aUSwulUnEwLbBDqwxIxYcXmUm5J48IFU+9RlBqQcXl0PekEMXWZd9/nrXA4bJ5Xlk20/BeiaphcA7b3VId4rIX+UuhW+GvUyNJSocwR50JBcNiKUgsHoKKiTDRjDdJxSrdZOS1uMrNQhEahCD2XyIZ/lpoGl3KPL5AYPnb41BOtQCeCwBawTIq4/kMXlhe5jOGwF4BqBS2p/VDBCX/7ytFqy0CnJJUtf/ud8zISIJWnE3va6973wja//fOdL3/ral0aVuq9+98tf95JIRv3w6GZUApQNmO4FB/Bojyha2wYbCWxSrFUCz6mr3nUwhgYijGAv66XxTjd8iy2hT9GEMpQ9D1oBGs9AnWLZy+ppnQE16ooH1RnRNoe0AAiBA3jggAxkYMc+5jEPMiBkIgO5yEg+spKHnGQmL9nITo4ylKfcZCo/Wcg77nEGXqXlLfPBylKuspivTOYwlxnKg5VNalcLlNeOi1PcPOnmLungJsY1IjOgACgTqLbAAcsZzNoQzbLVPPwYIx2sfGthzTMtD5YSTr9VDNugJaff9U1wUv2OdAPQVKdqiaTk+Qp2KYPYXZGHhkVLr0Ns/5EBC3QUBrfpR6wVIOta0/rWts41rnet617z+te+Djawh62AV+/j1bdRwFhnLexmD9vZ0AZ2BCQTIUpxs0as1Qlar1vEIwJFaQvIdp3Td1uHXKCcOdEdOitsxnRCi03wvAaH1+LoQkt2LnpV1rYy1s6BClVBDIVj30jS4rcqgA+9yBGlgWfKmUUUfQ9xACARaS9OAsDiqQpABr4KHUp5dGoFNsa4ZiAcT1GyLEpjyLh9WG4A+MLbMvnHOfMyprcR7nkv7JtV5pZot5KMQPu5zzEXXkLKGZOq7cxNuTxmXcUNrtM7fWI/ICcsTQdouVYlCXpteDQHZHXlEOoH8SDEUf+ygkXcMtnAtq9RRAbvJAAo2i3Y04cOHlBwAiFIc0XualVHt2VM+pxPZcCo6LXoUWU3RVlQ/WQy/1DVqFKVGbbIR8fToiMD4HiKPycvdMuUqcYQd0g1vj536Bxg49VOnbLZDBSTpLUX+fPI/sryCwssIJull50sHIBxAMjiGXLXSG+1G61IE50+J8wp2uUZDVgyV9CDW3pzo9XOtkV+6DmX6pmsyzJcQj2l4T2+2wINra1r9V0q8HruIXR6vZem7KMjcEjHVVKXwOQsB4DU+umegRlIRAHJwAwT1n3SxW9l4hVuNBcbVnjxsW4mFEuoBCeF1hZcNCiThnwzsy7KQ3D/BoVSL1Yyj5V4yJQYDzdREDF6+9cep8dxzwE/uVE695AjwRFnJ7c58GABv5CCxSMW9yAR13ABe4YTMNU32CVCJwRCkZUfM3BoPQdWP6cVz9IrSihC0MMxupJiGoIVz+JhIXQZ34dSWsJBJqSBiYVL5sccW2UL6qeDzgEDYwc1qTNW8bd8G2EqOhISC5Y0rkGHbIgwdxYRG2ABsycTfDdcWNRYF0heVkF4Pmd4V8dwwZU4iphH0PVPCZgrm7Yxe3GBBedWmUUt+DQ5evQfoGeCD4GCfcgczoB6ZKd6qgVyP2FgAcAgbAcOxCF7aHENC8GCqagzLQcAOHYSw/dc9TFe//nkZxyTHsblVl6QXLpySoRWILIUKIITaMKydJKzVPjxdB2oUSxkITpnSlBIQm5kUanGdQ+RfqTXi5Dhhu5HGmJ1bWfXZvFBcnh4f3q4juyYML8YAeLwjhGhABTmQTBWSt+DS0ElFQvYiPEBBpu4jYGiFdbTMttoUyUWQz/Fbzr3T2DxhRrFM/3wLzEjJVlhahhoFcZQQzd2NKi4j6SxirzYHGsGiz9hC2tXcrOFFgcQATF5Emg1GfFzTEDJV5xiSUQ5lEJplEkZlEXJlEjZlEeplFC5lFHplFL5lFh5lVpplVxZlV5JlWA5lWKZlfEDFhvxhxGxAF4QfBihQAPXN/+b8VtDV1PC8gLKyIfU1GGJxVy2tIWS+HyBoVT5gRgaaIGDSV6R5xQeeVBhqFlHCEMkNChnOBtbVSf66JJmAQPx1IofEWCWMo+tl1b36COOcQ896EgP4ACq6QDjsJqq2ZquCZurKZuv6ZqsaZu0eZuxiZu8uZu+OZu9CZy/WZvDqZvCeZzEiZzGmZzMuZw7xpYU8Ys8MgEpEXO44lc042hPsS63lBeM6IR4I4kq5m59gzxJ+FckWZKJVY6ap2+dCFY8YxNLlZASKXAWZWPMgWNriJmmwQc9ORu1UQ20xnrIER9YE3uggidgwAMSQBDosAAP6qAQShATGqEVSqEPaqH/GYqhEyqhGtqhF+qhHPqhJDqiJiqiKBqiKrqhKcqiKwqiLhqjMJoB3SgR0gmEvYcRt1Je2yU4+TYfphZCYJAeTehUHRAq6akhBJIblcF4BMWdBWiF2RgewMU2iylPdYcBF6AAA4cgkDk55XeO5/cQxuAA+Mmf+PeG7eGCoDl/U9FteJJ+/4mmMvGeF/ELdkcRExANtlBFFlNGAjUeTIpX6PQxLHRZucADyfA9niUYtvRol8E7X4JvcTQXVrh00UOpX3Sl4KQADlAPozcu9bkyaQQ37VSKo9V1l0mnPrGCqWcbIrEurYdNOqIO/ZCTRXIADoAOrPoTDiKMDoB7DiEa/zl6Ef+gNih2OGqSfV0BdHKifBzmAGrBpeKopHyZK9aFdZQWF3oTjTN1hHv5XZclFgrQAdpAStPieCZpLXkxmbKxVThzpr36E/1AbZwJElLTpj6xbZY0mm5HIpwGnfOqEXZqEb8IAOjADgD5EOoWgn8iF+QHVO0UFuOwsK3UAVWgACEQAsg6qT5jWEXHfehZYQAVcDRHUFxRsCnlqTupASBikVDSRnn0rCqZn6o6sGahq3MaG9ZklsgxLuwlZ5ARALCnE9fgDTmIszrBqQ9xsO4QAgJLEQrwNZghdF1kkkqqYvyhSkW6Ux2QXOUaAt3RNggiffxRXcYUpV00Ld7lYf9vIR5MS00LIBnXoD2CojjbNx4esqqgAa/7qbQ+Ua8W6xjw0xbyBxQrsSMVgI9DazCDqxK7Crg5obLR2bUOMZ14ybAxpXkRu50MpS4omyUZYJcMCAD4IAwPcAEHAGqJ+TMza2LktVCVZrWT87kENT2U+5HxRE7Uah6MxSvdShIqYCihtwEtKbk8obOvOiMH8ILzt23B4VGTVABb07i2d5onoavugLwyEbcPRhEHAIR9ehJDqCwp5pBRYiAeBizKOKQM6BSicTuzKIYYRoDS5aWBSV0gBCjTg2ni+lZzexMLIA4PYiXOxaNOUbOUiX5/y705IbjLm1/66khEpFp5SBr/p0Eq1bkRAevAG5G7NgpFFTFXmYtZyIqAfAMe/nsZgLYrw+MM89aAFvUAHRBuhDpUm8VPpBpUQKW3oWhvZKRHIMxVe6ISXpAL3wNvr/tO5eOusYFjx+vBMqG89yo1NOkTuqEj/WByCVoahVQPFnu0SSvFF8EONRoRJbCMEhEBDyA3wthn/0GGVzKYQQcWdHNczvgUChAEH/Aa4GiM4CGzi8cV6zIlxmeFgiaN/+tWUJUcHfCyWuhdm8Yu8hobW6WOZPzA9gqHtpGvDVHCF9EbUQGnpQF3tlfCnMarmWwRQwwRaPl/DqAOhNgUt1SSUgJdILstCwmeMjyLB4C6FoAl/1VCStqyR1VradNTJoAaeKYGJa38TQn1kyFwAXf7gORjjqEHAFG8yhhBxZzMvFfME7KYI2wnEriKwaixsxChq2PMzRLhvQcLABobtf9HtQR1kGyLQRFZM3JTAuNQrBpVWE8hIsIwNf0ULGnUXH+zQeAayHukOIHmvcHUyLbAu5rHfXkjUwlcyaVRmQ3szhYBwVWMGxOsE/YimvZHmrFRSBMgyxrRwSAtEc/8VGocETzCDCWsQJRVzYm3JhS5y0aaLAgIFREQAl5ArdJVM+kZswl5RfhUzNWDJlhSeS6GR2HBAbXyJ4E2SyuTkmJqsxDx0TE9Ed68pqqnLz5LP/QnHP8IOoikAXe+4DQvzQPqLMXwbLmdBIQlzB0Kt1wvFJEZLR9YyL4LUAAO8ADVkJqKndiHfdiMvdiK7diRjdiT/diS3diUjdmPDdmaXdme3dmgzdmifdmK/QAPUAAUY78BIAtewLHgyLbLKngmBB6ItSCS9m6J/EYExwOmXdqH7dum/dvCHdzEDdzGPdzHXdzJvdzI3dzF7dzM3ds7NkNOoRYbaYRBSjPDO3Fj6hBlytFj/RAi/c0KgD+BBcoWAb2kLBtwVyov7QD0TMYz/b0UsQFztbB3FbFYWH2D4iZYeBqNohrn0DnMMOCtUeAEbuACnuAMfuAKbgEInhrngAEW8OD/Eb7gDt7gGL7hEG7hD84irTEB1PrUbWEM6pAL3HAO7zaqm+F3ZfiMQROCkEViWhfgrbEiN945jqLjOJ4iPP7jndPjO67jOR7kQF7kSO7jRr7kSZ4iESAewOgFuLLTM3MfqLqSYc234V3WHeeKBIrFBtop5xwbFvJ/7mvTDlDXHnzXaLcAD7CwO1pTBFJL/9HiKkN+eGIMFzAB2DskpiPbTmEL4csNqms6kVp02dJAfNldHBOziT5pilKuZwwhuZI/qT2FJolMX2E+Wv4YftvpMT3eZv0RcohtQWELKvCm/hohAVAP8EBBMB3eDjHf8QwAuvoPJ+GWnddw13zomkqy/8Ae7MI+7E9hDqyiHcSe7MpO7DxMeQEgAeLQAQogql5qGHFzFak+43GyYj/lqPlkfMse7uEOAB3xAOJ+7uieYuQeAtSKcxhNH1cO1qcI6iDN5S2oep6M3hXxSORyAL1wq7joHqudGtOO5vFt15PetDVt0w9w8Jhlz9GSc3DipdlpfSfktuie8ePRAU1QAPXQyxof8hfj0BpNKEUdArIgqm/ZrJE5cHMZ2JSGqb4u8jQf7LHX8DWf89tZftFgASOnb9rnaE7c0QxM7+4s6l3+ETAgj58cUhfnFC0hMBCiACtiExER67I+33iKdgGQCxaQuTpN4yJ7YrdNEpdysnwBM/9pQka8kzGU+PaZCvcPeTpHUgDr0EI2Jxhzv/foxPeC4Vl7xMRPHT17RABhyxA5Yi3KTB96E7oWmHQeyzxw2RXgrvPjrh4e0QGWL/KH5xTCEAIss1f7myXgDRpQbPTcbO/O4XFfLs4qkSNBW4PPkcE7Hm4Q8QKxIusRl/A0LawPEQB6vRH/YM/vnoSG7JjHd+dRGIX5VGlVK41N5/zs2p7wywMeoX7yUZjUD6Tcv/Ix5FPSorUNd0I88gCvAwBqEj5VFYnW54CmhjgSL7NQn9FFiL7oW/9ZdF0Ckv/4T/n63x8A4SwAGIHXAhzMVUDhg4MBXuALcG3GQ4cQDxy86Az/TACNAgkGuAiS48aOAwWGzEgywMQAEFe+WBkAwIQQ6Q5uZMny4IyDMA8ugAdA6FCiRY0eRZrUwoOhGxxESBpV6lSqVa1exZpV61ai/Xgc4BrW6IWFMPodEChTplihKgAcdHZAwYGEBZiy5RogggULEvgyU0A0gIMFeA0fRpxYsdEHE64ucAAmqooIHQJXVVCv4UCYHl/wBPN5M2eeDlfiJO2z9Gifohu6hgnbYenYtGe/5mwaZIcmCgtgGL3Zp0bdxIdvPF4cOcbgPEX7dDkaX+zXq++de5BLgfCBLX1Wh5u75e2Yn0Nz/7565/fuwd2/hx+/OcYOvh1YuOl+o3z+//0bnv/vO5/UyaUD3ABE7rz9AljAnMWqmuAuoZ56sEILL8QQqQMcuCzDqMiyS4G5QloLLwJUuOmAfQ6or4AQPDyKQb78ksCvCMASasMOYeSxRx+NcsAxqyBzK6oFQthRqn+yaYilBXuiDQydetqvteBeCE2niZ7EckopX/uSytW6BHO8/A5SgAffCrCsSSxv8jLO76Scc0ozG0pLwOgqovK/Kb+7JwIN2jzTT5ic2ww01hQ0zSX1sDy0NTrXe2nSLXOK1NJMMa2UU5Z8skBN3wx0c78pSeRos7RMUrXVm1Z9CU7V3mzougdQXU3L2V6wBagfhVpqKGMccPBXY4/10f8rHJEF8YF9zgrprcMIwMgZGOhSSBxjFZixL7/4KqytccJFtlxz8WrssQxKRAoMwqxSIIKerpzhyQDVA020LEnbbLomD4LIpypNWxCmgp8E8FHaJBDVNwsAAHDXmz4TmOKJdcqyYvVG+u9MRvktb6eN9rxngQ4ekPe25yYm7bzWZjCIto0dyhK1izdDcE4BA8SN5Xl91k287jaoYs0C+FigZyddg2u/j7qD1aV9Qa55VnobAuCXECw41DSDDo04gJKL/TFCoig8N2212dLR3GYVuDY6w9wKAEUwDugHnBY1+PWACfjqa0a/JrjsGj6SXDtxxc8WsirI2I0R5SFT1nT/YJFSfc2lrneOEmfTaHVuIpccJdM1T+ftkj0FHlBont4KyGWDTv2jvczR0kqrtNDRK/g9WxTIpbH3pkR0oJnZo2innq2GUnk3lX9T1+hVoznW8nCi3iA0WXd9mwJ4wC8/9vr0L+zqf0a/3/PXPyYEzcP8eU9ffw12KLQXxz//opR1e6F+VtSetEz0Fo7IBVt2+VUAFLCACHzrW3xRhlrepT8Kpi1dQ3IA5I7SAfxghkkda15MhKOojmnMcvnaXUzMxx30rdBgZlLBk/CRjQskoxriuAAG4HElldXrOT4M3b7M88P9eCQt9rJSCO+Uu4bsCQAHWEoyQuKv8+TLeZ3h/1fNcFYbKCHIZ7VBnvN8pp6EbVGM4imNMyZwgSo8QAPCuAA6MnaaLuLJVbOpknqiY54QVu1ffCyNMdKBMhbeKT8qaJCxzDaUakClgo9MXNvKBaJqKABaWJvbPQ5yjQOAox8tepGxMBKvvwHOAoUJAA8QB0lWeihIj+GBMaQSgAtc4AUEoMo/UmYxM0GqPQPjFPwIhrorgUEF0BnNpZ4nQolML1GR2swBehGCC2zHdlWyHPqwhKLzSYo8yUydqc5EK+e5zF6bmYA4qhCYfwUtbOcsnvUWtCBMlcZp+dkS6iaVm9SxrJ/83GfQQHKABazjAk/jTj4ptp+QkCSPb0oepf/WY6qXrY86DwEA8C6AK9AN5ydBoZ+EVHC/Vpb0V/yb5EJEdIBoaTAsOzFgXbRlLo7AgIET8IUELjJBk/bUQhd0XAanEoF1rPIoCpiAf34onip+TmYAgx4Q29kdf/WrYt8MGqI+dhDZcXCE4enlakJCwqrqTpzxS+JtziMQ2IwJhGlBlS2MYY5ohGCXw2zr1LyjGyumcGW966GVzDov3eGmsIQVY9cMKRNw5GIaALDFCFdYu+B4UaDjWxATnxQBDkW2qvN60tgUKSEANNKnp4WRJJmlUpaSyDC2IKBDpMkihfBNbcY4AAzQEYG5OAAdqAUuYl6JQZcW5UjuwExSG0L/orHSqqKsGef7bOfN7xwxfftMmHPpKVG4dGCjJZzP+kzjpc8RU1ZQ5WF7eiJd0rkHVhtAxzrEkVRbUDRBP+PlwK66XnB2x04TLW+lArxH3RAYmUK7HJpycYHY7ilWmJpU7jYFE5dIuFMUNt6bYLUcnRBgdRMQ2OwWWrf5/ah+AHCKI4O74sSgdLUhAuBBBGgYjMilsQvB30DHxWIebwWoVEHHOIorGMlRJV7jtOdz9xjE8tQrmX+kowgdjEfZ9FGxu6PO1MDAwYswTapoVOv4TPevOW7xy21VrwgJq+VCPfECD9io7MYnQhI2eSNT46P6mNcy9uBkhU72HKA7Jmj1/wVHo5XVmXpfmBsAzdmM70Hel6/EDCRFFrrBSeSvFjkhFffY01tR7bHeZpbVHOYgkb3bWUCpvwBk4LefhrVUhlsVzg55KPf4cVR+kTIBKxabIITopScVbM2lL3pXis6S8fvrR3HEuweglm52Jr7uKHZPvsznaM7pE4mQ7ztfa5o2tbToACyFAux88EWFUzB8BY2cy8mwdCg1Kzq5rMKou7dT//mqhmhUzo56MJTIJFF7lkZqugqPpbgrqUvBpFfsiEC0mYjejxrrxMMiW6w1PhUXi3ohz2KpjG2dFbjENFus5unGVQ6AXEvlcVTxqpE1I9DljFllTYbaMuso2c9oz/82aj2j0PSqHo805NkqQOG+hJhC8QwxyeDBHO6CTuepEbqcCf0OACLADQ4kDWhUxfA3d7affINNoJ/VDZfeM0/PFSrtYO33gnkY7EtDJ4lh3OuiX+hLt7ewbjPIRS76wTPn8sQYmS4baUm6csYPJdTGGnXIZYwXY8i1xp3cm/5eMI5XN17js6bKy6dSy2VFRQERfKYKA2y7nsUbTkoj5/PIBO8+5YTifPImzjowjQNocs4rY010ti3CVWkPhBGpHkXSSh3rQYolUlu3TBQQArsG2tHOQc1HsBdexUa03ukOk6egKf7ZwX00/gYwmVd1WD81MdyDpp4Y793wbOrlAwv/kJ3znNSQEvvoxABYPM9buY6DvI87i7SYMbawNJCYi7ogLcUZDHIRwE9rOSNZF6qYAO2QuS4SkFxpmajiF40pLx8CQdCCuoCxDdrDo0BrHqRbMBJhuiZRuuZBM9rDMyCKP6bBJ/SqKr0aoQM7tQOAAAfQKehRIX3ZGbzjQIuyOqxannuCLnsJG6ZhqIZorGSwm835uWpzGUXDHNbYGJf5lP4QjTHhBm2AphVCpIzrkU0rrU6bQJV7vF+JPNcytbdgqV6gLRfRnw2RwDjkMdCbCtFzuQ4AKSVRLhMELavJPdhQuzAJsb0Lv2kTHw/EM1fZHOR4tum6r7RalE+xp+CY/7IywsS1+5Pvc7/WKzc4OwAUobv40T/FaqhUzDZK0YlwEqHkGTGPKJ71IycNcw+NijZvC5P1i7f9qzaA8yjVkxWVCI19QhRaAYNpqILC6KhJMSYGsjiRCkBAhDUCpEMDlLwE5IoNQDHOsDGZQrk/9MbgqsCkWIALnIoACIHGMT1eA5noIEEZ1BfEspgUDCEdpI58cjIkRJ3Oeb+vC4AK+K6pOiwUyrOAAS/MQbshOsJNuhiHQq85sZ7bS8WGiIAHIJRKTCyhGx9YmTaDCTHCio3tco/4g7cYNL9egIBkUKIquznOUSKmojZpO6PisayDUIEPW8BICwBjkIUSGC2iMP+tdty4OfyROsQktqg8YwAYlvqk2mI1VXLKQLTHQRQqqniAh5mKXZuq6nKnyzq+nrQ9/toVKDxIWGQ27lKmzbgGgyKRltRLgTKvNFssv4SmA/uv8PqvU6zF0TiSEJAFbhoTANFH5MsV9lAU+svFujw2fRq3mjOmn6uiRXsaYcwcbatFmym2MnGSzKRMn9Q5TjmIDsiFsWI9BoFDHjmxFOtKjQPHqBTHljqMDbCFzzA5BMqfCLzNFXtHpIjHkRsK71LOzOAnqvkjHFyPp3KNivRLEATC+LvJYWo6VkGI7+pH9gM06AsrH9QrfxG+klSzVckTofGMmwkh4jg14BGez7H/GX7EjYBxGjB6ycUKI7NbQtXbkr2zIvMDCQjIBRSpszLzmXdCLzuBppdcjez7DioitwgIgXp4C2RajTVcSvuZzeJcMaj0kbeZC+O7w8tTh1XLn83rPBH1KUF0ubAcvY2aiiPTP/GKPfeDqF+TxrrMNr67vXuiNwBjzcGcgWdoSNUMzNRrJ4brwOPLvWpbn1mMFVQsLOQ5J8Z6swvAB4gpnpBIjx1tS1dBUoOxvYCClZ+BFd1hjyk7CAK5gMga0/7iCZ1or+g7RVvUk7i0l5kBAxxyu5ZkkEP0PwnBOBj1tNws0bK4JLUwtRh6geCcqRxLOUUtqeM8iuSktVxgR6Nw/87u5EAsmxlbfFLcsJrV+Kylo7JLS6h7eY0XvJeRYSqLXEERBI9GQxRJyx3k2BhJ5a7yWjTYBBhACYAIeYbAcDSgMcgDkUZc7UwvRDDHZKEsc8IEo4tc0CSJ8qO+XEQS1CpAIhjqYbc8Io/nMoYL6IAF4KZVcQkP1TTFC1FM9SkS7ZG3WRE7xAvYukq8ybz8sVd61R8ZNRIaLcR5JQp3mDmD07kyISc7iRjFYsa9EyGKWpRUJI5s+7XrARhZvSJ5y88D+ZMgfb1CGrHxqr2IeqYvgR+UTMvNwNBoWABLo7/ThDrtO9JM1EEBOyyVMCSWBQ0IRUUrzIVkiK3LbJQzSf82MOQrVWSmUjE2pwlSnpg+Buu7igups0FYgW0lRr1X/7kWBFROq4imBsSx/DEGHvhUrtUfTTUKTqWKAOgAZrhRXks0ifHPAUWhnRuJl/FVobETf0kj+FiqWJmzBVMHVdTBMl1N9ZpMmhFMRXOrjuS3iPVWn0MNXpIJk6lHk72eKJUPFVRJ/AqwNQ3BvuQj0D1QCFjLlVSiawtDYxuP/xQj+QyZFZSxCuiAi1DVWkE8H3HDpmTb0wpYGMFXyRvbqlCBExkoddjDUMIffOCQ4WUlgoVHg40KY6CmQeQ1hWM7N4HTPuXLjjyeM9m/kyyi9njF7eMJZ1iwwWuPIF2O+zr/zAAbSMl0rqw6n40l36mCiHqzDUJNMwDohQp4AJ3a1uZzntKEsMwUMClTnvts2CJlWJStlG3qhVyAAAJqYNN5Rai6Lwmjk/81FJYN2XlLr4OYgA5wDAGeiF4x1B45sZHaWuqlIK/lkbc5iwBKXqqINk4y2wKo1MUhThuuILc1LnmkigrIhRv9IHcTu31UHuPTonYqNsBKi/91BmA1M2kNOCRcmoZA3Cby23N1qyDiI0eBN82NYFsFK82R4qQVUjD0M/IwXQuohgsAB5apM8waXW9Ts1zkmTzp1r2K4/FFMIxAUGdN4TZWGoUEj5Sss5/xM6cTyi0jFSMUm99tQ9IS/14jbqXi9RATRV4aAwDGxBu90UqAvVRQVhzrRU7s/ZBc+NKo0KVyasxbVN+JGkwhbS84XdmXGJM0hWIVTKb31TaoEw4SpsTWg0tdTkEkLTCPXI1VaWZKrsWQXKe6yQ2b7Sd8yRR9mmb94Mz3IB37whjbo4tkiDaiE5N+ktgAzsXHfGc1i1ASHsOLBYBpQJID4b8Ypk0JsU1X7tqv6J8QaS2RmxZJDc4HTJwiJujFQWKigFuqiABPlQqkQtVbfbJmvR2KczDM4hg3Vk2eQa/7ROPVWDBr6iFntbp5yqulssgq3jOlW1ZAzkemvZM5cwfqw8cwOt9i1WmccxUCC0F7Wv8VXZ3CeDrQBOWnJJvcO+sMal0O4RNgbSPpYE0411ABd2BO+ITXxNPaiGYlUc4QUtZXtuDmgdJDFsUfMDgcsl4cWN5UWYbHCqhhszQeFnKO0vwmEXbSiJhMYHQPZcIei7WefP7Fn1kwcNhWLrnPVP1H8YLihbtOa05FlDivgDqfhgOn7Yu7+vQvMo090E6+htCeczLGPtnZUExa8RkYuoCA/Ntl07xWx20ONMVb03UJ7UHTgYs+WmIITS7UbRQWYpHrR8Jh42WtcezhqRjGdDy54Wzl5C6XiR6KX+CBHsaHKvCFjJ65cQU0cqNVk8RqkLk5Ca3sl7mqgSE7uCOhlf7/TYOjnoG0XIUsq/dOj3wUQR9Mr6UBtAJlmfvejA2AIlZMn/eszNr7WzNJI2cU6v1mU2lTGAsenUXGuaoTt6NevTKSTPWyZibDO8GVsQiIBuUiN07mETfsRuteG7PGELSeSrZY3svLygKwLfxxBs5zcbWh66IogWigAKxwzYzepYAiyAiN4KRmTU5M7H+CRqQN5CRPZslMhmoiII7U7bTLttN8U748IXcaTJpJckikF+bTFZtNv52IkApQBzD98LezqFzUr/g4bO6EwimZsvGhiwrYUKjjO7W7JtCwMKhdxu990sOMGLrIZOvpPxmW1x7Pn+Ue5ebmTcOQsxlo6HWU//RzmegD6NLSowoI6ICMVq6NuWl/CmztlMmqisQxGnD+rCw7CmRhEAaWFifZQOzi0XP3QMGNRO+i1iZKLtxEITzucPWNORJxKAEVkFQSJDcm0nVjt2m/amNSlXOWAbgmSoZcSOZC2Z2ik3amvtt+vJqcxG2smokHsKbvODw2XHFPruFONxYYvxAT7YdSwwu12KRO6gW3Xpxr8IYXpfdf+fFjDQEWfm5gMRDTmzl6Y83mKl8Qtk/k2ROUhkk0B8Iof2AhXWnGtNaw+5OrhT8k+lP7rN8HbVjx8O1ofe+240tj8GpuQD1jp1wt5VOmdS6jxqt7anIw+Q4hjJ2cN1z+Ff8aCobOt0y3bppEMXHLAECHryY7GDbutmjxgj8WSj9rS1doU1sJSkW5X8D6Y9FUBYCAELj1rSCqtRUKd8DHiLmvWC9WJ5uyAK9i8/Ht0+AivQ86u0vkjblyBYihtDP366rO41iZYu9dZNJOVFnED5w4J0P1YY6qkck6GHgzX3gUah2PKg5X+Px2WA249KaV0ZHBGIKACnh8nmSaYpea7vvB1GMUpuN8RF5FYn33DxWKTx77crF3C5Hxydt3q4yIVP5X/LkG3+p9g/9Kx7OAaOiAeTeSXNhadKj5cSO+qXJVXbTsWMm3lOdLcnL82p0XqbmAXFCHx7YTXQmNazuv2Dz/D3BL6rnLrJdHdaD3Se0jH8jVj554oqUACGEKjAUoOKMgwoQBXgSYwfAFmBkqAoBxhhBiAIsZEeIzuBBMQoYFGUZE6FDhQoTOcuXaYNKgyJMcE4LECHMkxYM2C3ZM6REnRZ8HEzoEGRQhAFkfIgANsAAegKhSp1KtavUqVgsPpG5wEAEr2LBix5Ita/Ys2rRqp/bjcWAt3KoXChR4oOAA3oIAVMSdaqugswN3c9Hd2vcwVhXjFiBGfGBBgKkKFIRVADnqr7dXBUeOOjkAAbD3GpO2+mCC1QW5NEwDE3dGrgtgFWRTAUbk7YtEH1J8McNow6M8m+pGmfuizt8B8Ins/7lxpm6LRoFnvHBBQfGhKX+LHKlde+/vNb8XpA5due+Q6tN7NDr0PfKfzpVr9O0bpIp7ER50gIyTeUEHeEfcQuD9ZBR7QNnHEUNDkdRdRdA1lEsFCOUGYYPUjTdgd0E9NJRG5ZX3YXgv8XYcYCkGeEEHAia0gDmlmTWBYVF5JSOOOeq4I1oHOEAZj2PNVddkB1yDUGiIRRYAXnh1QFcIQcblIzpSlhWBAzAAoFcuyYCRX2dbdnZBlACA8wA8xlgVgHWdBVBFLgdEAGRU14AzWQQRCLYAn31iZyVZDqAmmQUhdPDPYcawBNY/yhAFXU3AyVQgRA12GFRRDvVUVEPNhf+EoIQWKuQidSEmJAwElAWX0k4xtXohSi901KGsPj1nqlAftVcrcLVayupHl1a6m0/mJQTAL15EwxRNCTkH0qYYWQorpx9VW161x52kk7O6XZNMFVueFNGvPmkkU60ibiuqiAuua6uuGL0nL4QJYYndi1ABSpVWUhnjQIz7qhVAP2+pGdYBL9gSVQB3VfWCgFEZI5hYBwsMV1uaXUzVkHY1qRdfhxEwEUWCHUBYAeJsbFYADjC2slW/OMDXAhEscEwIFiwgy5xRwaAnAMdEE5U53GhMFQziTDBaVBVUSEEH/Ui1wAVVPPCAMBFcwF8u6+TiQAh0wjzVaVI5lctpCyP/RuZs9YxYYELnFptgcRmNJ9KlNyl0X6erhsQdiH+jBHdBF6RqW73J9YaceyXy/Tdwt4EHkjNG9RQTq+A9vrioIGm3qUqcr8oeigFscPJpzhE+4lClc36QtuoNNatCsHfnqULAQdDB4OaZh9vfuJE44NucSy454cPihDzcxvTihQUH2BaACjDCTONUN44922ULhLAAPhMc7dnLAFD98gIdfEUVM3EybEGLCyjA9JZNuqOnYJPpP//2m/3YPwA6VqQQJSkufPlLRg6gjgM8qQAaACBYfOQOCDIJSwcAgwRYog1fWKcDF3hZPfoDgGl0YEvJEEZeLhiyAHCwIH8SRi4A/3AAZtRDbY+xQC4YE4BjWIB6UZkABMa3PXbUIyrq2Fou8FEaZnBgBlj5h9tW5TqfqE5X12octkQlLc/ZxHX0AlVKNDSSnpCrJsu5QDJgQLJoichvDsKJg6hTrbxBZFK5A4p50JW7beGtb7oyjlAqdZIq4sMCDjiGi0YCRsxRanQ/cRUYibUdEZXqbjyhkJhkopFocZGL7LoJgjjVIJOQxECye8neQBW+B2gJIU+BWb+koj0IUiUXYQMAMxzQsBC4z2xkcpMHA2CMC8SQKgfggGwYRswDsGgfUlFA1T7AHwUIgz8duOYDdElLtrgFgAL8WGRCpqSSDaYw21yTyyC4AP9xcKMAvHRGBCxAGf3cMioRyCEAfFFCcFQjBF675jNeFoEQvEUr8NhALni3AG1cIEwBSMcFvuIMC/RQKhMQyDbLFgFuhCAdG5BRBAJqMaoogFm2Ol6GBOfHhiCPN8CCG3tuN6/hwGs5pBxOghaEkgsIJFYcKhCKHjdKnuCNPJujW31sF7jYMc+OQBWeg9CTnCkiJJEF2U8H8HU5+PynXTTtUG7EI1Tl+CQ9dHsUm3iXucHdzm8t5U587lhWR4YxPaDKzaykGhQAKOABUSyI9VaGPalUY33njAoyAWAMbRRTHSFo6FTckbMAKeM6FggC/qaCQwGp6p6FywbTXhABGl3/JjYvcoAQAegjscFMgHdJZAHhMrJ7AOYABWtgmQ4rFR+Vb3sHQMcEXAYOANwjFxaQoQUwMJV7UuYC68ClFxbwjwWw4zpvWQA31LefXGAgF97IQGyYkSZ7WoBMuZjABLorv8kQc7i0fAAxT5Paw6AjF4atSs1uOqmTeOpCvTJOpnKyk/bosY3BiZAkU2ngaxFTAQQAzHRkAkYyhpFAvZpVKEmykI64h1ZoPVJwlMek3oXkcheJXKc8NzjAhuB7scIrSq4lYHLpRnkPARXsJkWvFAcooVvqFeVoKsqfqEd1dfwV7LJTR90EmK1vPMjJcgGOglRPXxuL5V5mec70yYKv/+edmjuQsiX4BSAC1/TC1a7ZgUHxVX0A2A9kJiBlBVDUvQ9WQD2NK5kHhGmbGfNmYV7ror00ZmTkPEAF6KIy3ZotnbTsa0HqobWIbu0c9ZhAZOCRC0ThEM/pYJgG2CzZC/gCvjVbQBW8sA8BWSyetjxvBJSRjGkcwxeMjV5Gt5HDPpcGH8JIplVos7y9HcWUn1ORTusGN1gdZat9DF1uUMpVPWqHsfj66Vt7BR+7mnWqKl0x4ix0n3HDq0Om3CpQUQI6mKqHqAlRQAVOoxIVG0ckiOMWHIOy7hAbSHiOdF0y1KrUeufOpZtUCO2OU6l7i847QVWRTX0agH/cKAD3CP/sxgYblcIyugo84M8D+PCAaISA5BpwQBU01rAtweAu1xRMwaJygBBwwBxmfiwEsulBC0TgGltSAHrhOwF450J/ckKtblcLaCK9FkmIUQECA3OAXjTwgYyOChj4wNrt/YLPdLbABMCOAQxkg6J8MUfRAaAVrQxdhm5mmDpgwCKDBVAYMiwB2JfEJgc4qiDXOAA+/j5oAHqvABdwRpCci5WSYqu/6AqrtFYqHL3Ny4yrsmPraDr54kS+v2VtsEs2X7c57i2O7S7Jg3pyrlFew5TDobEnMSKdmzblWg+5HOx5rBAA9GJrDf1UildfEkXymI5+L3HtikdjP/q43J4M8br/y4jw5LsxptCPcSkHbK0lByhnArLFK1eG5a7cd5t5KoE5OhACd/SJTzZjEjOmYQFljFTPJPVnoargDvSSaU4qX0B5OcAF6AwObRBFJRSvQdCf9c835UU4kUaAmAzK1AijtUxv9c8+8EAHyBOTmBaERUU64FOhWAYxnc0ESUZWAQAYLMAEhIAADiAzLADT2AIEFEAHoMPJUABDDSCLsBnMMFMICEMGlF+OnAM3LB6mxZWtnBW3tZF0SIeGiZhH2JhOXIh2dBvzzIdJGAtCWBuyAQ50gNW8fdJzhFiJ0IS/KQhcKZmBORxuyE1YLduKJVtVIcREWIA4dEAvSBxxdIdM/yQZFk4hWenbh9xb3hTE7jDOFIYYdTzb6hTcSxnPHzmOh9DEJrUVQjDD9ygWxl2MxgGAliVdLgRRk0zdboWd+h1AeQ3g1aziBbxFwwChDgHAP1SBC/HcklxDBPCA+CQQDOCFAsRc0v0PAwbaXThHbK3FaCTEAawabl1dVDjDOFQJAMGABXgBD2DABPAJjXSAO0wGnyBeBFDAcHUNCNrFADrURlUBPITdBWhDCIiDzgBgmLTgOvBSPE2AJoaANoTdBQqMLUxAB0TDBNjCA2SDlLRgAkYFOvTdpxzb9k2Y3hALRGJeG1ZiJOFNhwXLdkxL4RQdybRbujRep9geH23kiv9xyrusihbq3o6Rnk+1lRnNVMQJmB9RRz3Q3AKQTKaU0iQhGFDY3k12ZLMMFU2BWAA0H3LcmBXBhPQh34j1TUksH+XRHo3RZO0M2JkwA9SF35XVyL8EzNVdgDcMIEURUwruBZO0IDiUVwBWQDwNoMaczKeZTwRUgQBSFAYwRVRswAVo4F3EX9hZADNQFKYd1gJuTwMOmjgdRgT+Isos2tVZoDrZEp8BIJlAj5w9ljyp3QNUQQuW0JZ40APcVy+4oHVQQASgQwCYAwUcgC3kwjMokQwlFHr1TFRYwDG8QP9AEy8BSdkESQQEwT96xl/NHke2kVFeoYfYTrstTxQuW7f/qQhckdUbSYq4hUSnTU9NDqLkYKIiEpzjFIUYUkrp8MZQvVFcwU6IcBi3XeFxVNFJQVxkLEAQhIBDPoqG1VQlDogZeVFUoSH1BUAyBAHDkeGJdYgKgKGGeJitAEjwPOdLIU/sJARLUEYnCswnhuKWfUA1XAA69Al/jE8EiEOYbBeQdMYG4Jl2TYB15AIPRFQ2AE1U7IM02aaLFgofnOVhnpPSFSPTGQmVJaNabACYBIgz0oXVXd01eAM19s8B3AmfCUbXhJn3cIACgQbabCAHPFdULADYHE0/8NwCHAD9HMA0/Fp0MUwFXICL6tBoTYAXbCANzRePHEALhsB9CYqU/yhAFRChZ+SnH33HUIkEUpoSe7TekdGbVMLRIZZb37zkjY3LIDUYAoUOf9JUkDGZ7FnIpGBnsklKF9mUGXUH7uFEh8hnTKmOeZCKUymECjDQAzCDwhAfKFWhQ+xXH3GVRiAIgsxHpybE7oSerggf5kVnUDISeeTeFdkNI5KqRbIKcCzABxSRV14MloEioCrgzvWS95zgcoVAZzCQcaUlw4QADxiXMOgMXvBZAHWAlgDACxxDLngBNNEJM4jm1SXm2CxmQYwMBDKJbZ2MOUFjy/zCNimANgEAS8gPmYiN/OSmvoJpPVEFk9zPkhCGHu5Wf0DTVwRANgxgi2FAP9qpjv9QDXzxWnDeqXXQj2T8FYA+3BnmxsERyCMtzlS9IUXMnnOcqhQBz6Pi0D8QgFlJShaqFPOcYSOplEwhmyAOzhpiyq4g6iCiVYjgCkwNhVUVhFZAQD8s4iSB53IAD+dcyuwx4YGIhC0IgxcM6KUk7XMw6CgNy4NA6k9lB9TCChYFgC2EQDI4hVh6IgVyXNK9HJvkQj+4Awf0aLhGhgIk1FuQiTm4CUXNiUOtWaFMAF8EwDVKFpCYwzmoRmmOlsn+IDEqZqCtmouoAJEOjKEBIwNBCTQCwDU4wJMCUNd1xj8kQzVcTRJdBYtsyUCxyDpchgyxYHmFQGkqwDFk0/roRX3/XkCXaRZkXYwqTpNp+KCOcK6+UsU/JOGqJJK2YISRjYu6OSWwUOWjrpjkoaob0R5CENM/ZKXlLeF/XYSR5dGR6QqH2apzJqtNDVV9TKK0GJmtwst0lGGkTCJ1oGi3LE+2aMdV+mSEYKci9aStaMfuiImA+GQZViGx1Y282GR3YopNEGr9DvBP8FdC5Kv8WBm21ogKcGj/OIX6nSCitWLrZoM4XIMCXJN7EWgI0OZU5E/GOoA4lM/jKsMxAYmcFYoDrGLprgy/tlZhwEDBuAjAPp1BXMOqRebsKkZxbgxBwIMuBQA4LIAmrkMycIB9JSCZMNMD9NDaPgAGvAWWcEPW/wAdXnYAPGgFXqTdlwoDVPDJZECAfVlGmUrJ2cjbVfBpQj5AYz4Ts7iU0hLZWTkL2bIHeqASGJbh1b5OUy3S2JbHuXRadqJVxOUqTlUt5pBbsfiNfp4U32jfFAUo3fSsdNKHirTU+9JnAEiWOJQAIJXeEs4hpq6VXEXSBUQDMr9Nh1SO5kWcc7iUBH8IWDEEhLKOJRKfhmlHP4jDMaBD4Gro4G7r2BwAyaUonfGAoESM2aAOPL7iwRCAOlgAaxLXPshC2LWY+LRgEwzKX2yJDG3iVGji7P4o6hLJqjkHYoSGxQXA392Wkia07UIQEIorM1zNBQytCmYur/neAyxAAf9NgNJsydda1HXwxck81gNojGoswAuwSAWwBCInVC7cLo7cgyo6QDKY7MryyH4s5C8wC6Oii4m1ywSjmKnwBnzSCnA4B1IWD0em1OTsjQVUwD/Q1ujwVyP6quwsmYdVUXdohEVgxPCFiFE+iqLOZDFP5DGzb+R59Yr98EHGDXWeGI9hsCyjrxW5iozlAgeISRkNResRGdY6K/3qdaOS5OSsy47dFI11hwrI5jbCUo2Qn24pgGtMHBLVzAPwozk4Q2h4jwcpb0TJQgnkyQQcg5u+me9u4wSsw8hVFgdgxwQY1sxNkAKgA3ZcgDj0Qz9YxkJuTxWvTMdgsQMSdF8Yw0f/1ZYCgMMEzi5lAlAAhB1lmEyfjVhVxBOTUMXELKReSMU1aIP6hAmdkfSIXeFBqE2OPFSLyUJxS0VQ74hkFaew6cY2N6jiFM90souJucjAPeLTxhR5uO9bWQgOLcBfMKWBAYixwa24VW0W7mdz2qy57Gy5kVWlBBksu0dTcXOCoEeGaTiVgYHvbW2CmiGLP5XxLGdcr84vbYTYciR1qDgsX15TWF8kgmc2w/W0dkBAXQ8F0jAEpcPJnbfMSUAH8EGLvBkEuNIxqFkQdEAV1HQEGMM93IVehGDPTcQ1JZRuj3QA8ZJsdgCFXNMYp/Pp9mth7MMvhkhjECsYDOwzQqME/0EQAqXFeMMFk8RWQXzUyjzuHE8xKGqvjvhpBBDpPzCLjPHRHK5kWA/lKb1KvPxO/uKOSPaE0G4JG0ke5FHl9k3kSu7Eq3JfgHHh82UwHxYYRz7ehiWrqMJqADDDB1SAq45wUSLzIAEfblwLCAcABAwNsaBb9TWifKJqHE5hJyWZSur6VdZeuQRAB1TDmgcJloXlvub2+DCJ/CxjnwUGFqsuXrj3VHz3bpEJM4TJyWT3AuHFDMDufMPMcW9Mx/TDqoEYoSWKmARGOaUMdTva7A68jNyDEVaA8YpFfesIM1WvZIAvJEKHNEuzblQwuUUb8dQy43Dy1ArH0dLUuUjKgv+TWIb4RrgtYSeXcnFQi95ImyK11bj1t66XcsyHB4pYpyT2td8sKIpUMN+qwEC5WFy7COnEPBeGyLZt/LHM+OIYbR9ZoRw+Ts3CVY5joqsYs0w2/X4CAI2cA5FnDzoT/HvvA6/Bs9jLXJtbcV2gwy/C1mE8N0/ghTpUnUVf+9nf/Vh4Twgwg6FLBRFZSa0/w0gxZN/tr/lqH/LJkR/6If5OH7Ghp+S9qlyVW1ZvNaaq9YCekqhUC6XWlFNhDqNqJKSOZCTpt4I8El0rO4ajBAGkjzi4DQIZyB8+m310EjSP713JBARECZE1xfBpTv3G8ulRkebNzmKHUZP9IabiWTH/fSXY4z30G3c3ASkrZTHIIAbcM8m/U6BuVXf0fz/CmJfdZy+gDHVVKMBfUU9QBWgZlm+m0ryBqbXieA60dPNPFr1/0s3If9LjDJnLIwRAXAsw8MXAAPgKGkwIxlkAMAkJzhiIL0DCgi8kTjQ48MBAiWAUZnSIsaJIhwZnPKwIciBIkgc9aiz5MCNCgxsOUHhwLIAKlQ1VtoQYwGTFjSVjBs0oESKACyFsKRwI9OVFoyw90jTYcCrKmUc3BlUZ9OtQqxmHBnAq7gUAt2/hxpU7ly7dCQ/gVotQl29fv38BBxY8mHBhw3APOFBwmLHcCwUKPFCw7wDXAAQauzW2weCB/wP9DnSAHCJzab5g+Cw2vZp1a9dxA0ToEIKZrcIOJrymu8CB2rgKlG1NWnQlWKJhib4AM2Poco8FsbJUbpS6VIPSk5csSLF68QAWcv0zlr0lwY3Ml1skmD6587DMT57nWH76c+lY2yvEL91k/ezoE1qqILQ2uoglptYzbqBpHkimFwDi48whrrgTSDn0BMRuQPMgAok5WyAgzSDujpruI/jgq+4FEuPrqECRuLMMRfsIRIs7lxxCzyAAmHlgL936sgAvt1Rw4EcgkUxSySUB6IeHA5js67HIYADNRQBUYK0zBQ7IBTJxojQsAAcWCNPMMxlT4KlcVCvsgdyYVCCEBf9sg0uBeq6TKiEKtwKJq6AwUk+mldJCKiZDUxrQJaYSLS8+oRIV6ZwKFriOpKoalU+jQqG71CuMVILopeOO4o4klURCi9GNZBTKPFLNwzErUA/tVNUJN7onAm46qFSFABSoVEFYX93wOOw8HClFAISBKr5TX0KwuWjjY8mykY661tUCud2IRVpFTUmFBUIgDc0JnnxLLzTZbdfdxNp0d0rJuHTxstI2GI+jA9QJDTIN3P3LmXHQCdhggw+YYDZlGmOnnihh6CACY+L6Z4Lz/GMJP7BOhS/Zo1K9cLsERzZqQ7M2RilAjgeyoIoySzywOvgW+pS7pTDuLkduaWbvU27/G0LZO2wL4hO7iliEyaxYD+32KADIDSGde6K2V8egCbpRT2tztAq5DZKJBkIdkVKuZgxFJSvFnE3FykWP4a7vI21ZFJAgWxSYTR00yb1gAgXGLOHgwQlnzUkoDZ53HysHwtK0DQjw6YUDuPQyssLnGrNMzDlHcoELHrhghszejNKZCy7w7S0FIngupAAsoyojoKyTiiGinX5x46NlUpWmhEyN6LoJclmAAK64QosliupbFLn1rBILprKVdWk/aGM6FVKtSJUx5ZloFd7Sj8CVViuauOdonRAsEI0HC2pHCavZT0LQuPTVanbYbHMnUaTwbTK+oyhFVBHxGllKdJWN//yDGcIQBru69IAOoAtOnbPgBekCr4PNSwEw8IxBMFOaLE3EM/uowmgwCIBreOMXKXThYRImwYKVBjdRCoDCVOeWX7SuOGQDS89cl5FreEw+6fnY9Ei0kBl5qIAretXGbnQyC1BKQlgplMrIM51WjahpWHRdzta2kIIIRGfcGgrW7EMslVkviwRKUI2KhR/LQUYyLSHi0uS2MurMSDlcAUCIIAS7+aRxPSHbWkiUaBb/vWp6yAkZe3RkyAAsYAH1eEAOzXTDBzSheAe4xwtBWbjDbZCO/aAMGR1nmqjA7gAetByYMDimFoaSlnyZZAfehEnGlC5KC3gA4laHJ54JsP9mcRwK/UyWvQCQ8XVfpI4YPwIy6pAFezd82evQ9xLLSI9YoTKJN8mCwIOIMSmjqsmmGkW+aFZvadT7mYJoZT9ZlcckU4IMDy5wgF8dylQpqRXRQBJAcarlAuJQEKBw1qntdQ854cKKTYopE+YZ8IkFDOBlKJm3CrbrAQ8QRwj+pstajlRJGkwcHTtYGRCWJnKRc8gBKCOaAgAMgy8gGElx6pYDCCkXwDSNw8KkAAf4FAB3WqNRLOOfJR6KZs97ovLowyKKGJE8hLwQUpJ1TAk8A2bmsV/zojUgA6XoPikKHiRFljMcQfWKwmsnt9qmo7R6R65a69CMkMbIAFxgG5D/8WsGAMchLj4TLO6xY4ACZIxciIiqcIOe6/BzQPGdU2fu0Za3HGXYDF0HPpTcgAVCEMJ2OUAZL5hACEJXqZyuVjejPGlkFMA4tWTJNASYyme6RMcUao61tYxAuVrnGl4y6QAP2NzqlCG5YZHoouIzW/20Ei1AxURbA10btpz7Oj0ORGELkJw/IdJPpy1tVXp9p17Vhl3pDopFAVXUpYpCnMGO07mpYiR0vAWRCzTBr37tgL0COkBoRcoi8iSnUy55X1JBpCjwrV9ENHQe/A0lgPZSkXKfm8CBLGAvvpzhaPdiiwMsIBcPACk+KNZbFTPGpAHjYL1WmpkR7otLMjXX/wUT8+EVX1ABuRDHBR70mhpGKTQTqJNb0BGcNfqQPFSdmWBJhir7HNNYguoarJhyoPpMJ8MvYEbxAqlA+VhkqsfKonRutuWH2jGvx/Gao97cFf3sE7uOyg5ifVbY51nFib1LC0Uo97kH9JcHPIzZde2nILxmBADJABMWZcUeLRonUN7ZUGT18ycf4udEJXskhjayAHMAwBlVgF+7xjTqt8xgAe17AATitWNZ+8W1LkapZ65EW9N0Bhy5LQAsL8jbWXNOBcwIQRWCq5vhLmmvp14dD5sL4XZGi4x65F6Du0jNADeygGorlH252ytbmBOrAZofYekj37BqF9ONZA6MhP/TolmBG3ljUW9mMaUszO6OwWABwLhZ9xTIZABm6/7ngiNFTewimAAvSR8R86Q0f8KZfOCbeNLMsqpQsSza3VlAOtyyAHYQ1UxGkguwJhAikJI8kMOedYvlhVIukUi0jHHpvjwoU5peEB8OcAdrWO5ywfQiFxW4WJKAasMLdCCH7rgYZ1emxKZxmc0mUg/FVOAZlg4mxXGJQHjk0vW4iF3srdnAPjlt5UFRGpHDwqtzKp3l2vV5ySv75D20ThfWWUAYPi07AP5emKd0TkLdgredrxzJFxCgBD8qbgQ+yS4HCC6DEVh6CC5w3BuG4Eh+OUDghU64WscctrhunK4zE7n/h8DU10MKNsEzkzAIzObYychFLjrwjA7kfve65/3vfR/83g8f+MQXfvGRf3zlG5/5yR/+MwbNg1zYPhcWiLVplr0kkbNPtQcwdEV/FpSkyb07GwBDBITRgY924PZV2P374R9/+c+f/vV//wN4IA7325///fe//P2mI1Rg4ppnkMbHbHzHUvSNYxLtVRglfaJLr4whYZbuo9ah/eDv9oShCkLg/zyQ/nLBAQoA9z6wBE1w9yigdb7rPqDJUHQmIWxB1N6CGf5rtBiGLwjAHZaO/Y5u0PQi8jJnAi4vGqqA+p6P93QvCZFwCZWwCZnwCZ0wCqFwCqWwCqkw93Ih84BO/zFICbZgbCBqjjFUwLYO4jP6wcZSyKZ0jDAIoB7WoQOCYPeCoBoKYBvkEA7xMA71MA/5cA/9sA8B8Q8FMRAJcRANERCr4PbWIQ7x0ALAoDWGzIbaZ/eq7wIkwDe8aJ4gLj8Q68EmKRe8gAO8wAtwCTI+YBRRMRVVcRVZcRVDoBVVMfdgcRZV8RVfkRVv8RZdsRVDAMyMQlXSYq4KJHj+g8yEg4Co6or8g56OQjZ00QsG7deeYRVFkRZH0Rat0QueMRWfYRqz8RvBMRvZbzEoCttc4kbwasPgYXWMi10CBzAOgAbZbxp4ADKMRKQiwP0YMQiisQPe8BABshAFMiAJcv8gDfIQdy+fTGP02oWDTG+2VoPOKMfXgM2ChM0wzuEBqkAWRAsfnuIGQ88wCKAXLMABOmANGyP7iOzrygXzJsAcwEEt7iHeMqWawEdlZvK3NMAXoOEFfBIaLOADkgEXVEAFXkAFiPIoiZIokdIom1IpnzIqk1IqnfIofdInqzIqrTIrt5Iql9IppzIst3IqlRIaUuEDxEGY6ux8qkrf8KO5NCZB2O5YQIXc6tKNNIkDZAAalpIEpuEDfCEsi/IowTIryfIpoRIrE5MqF7MxvbIwrXIsIVMrJzMsocEXOur7+MPiNMzejEEGNaMDpkGkloS0BmMBkqEe/coBnO0t7iL/CCDvLfDhGB6AGUKSMcCgJOekNGCuIVHqlAZiDLcuAKIC18BB51Iox8RkAqrBAjCDAKDzOY+hCRgmOq3zOrEzO7VzO7mzO73zO8ETMyZgHEKANAsj6dxFGcrlAZ7hApgBHrgEQlYposjNiwYiAhzAC/gSF/hyP2WgQUiAP3HhFvpzQAWUQA+UL29hQAsUQRFUQSFUQAt0QhlUQi2UQh/UQBe0QSO0Qys0QkUAGg3NvuKMj+6HPFLk0/wjGEnGOvyDOYHAGXDBGRZ0QXHBF/hgKA2UQj00QyP0QxM0SB3UQoE0QmuUQy+0QjPUR4HUQW/hBUrAATQgsMKCU9wjRZFi/wHW8S1+6/qYxAFUTTAOIAP6qwDeB3FiIwOE4TmjEwAIQBgKgBnYNDzptE7t9E7DEwCUwQEkIzMYkl3mpUo+6DJQ7zDyJZAmp3J0C4NUYByOazDwcwLm9Do5sIXw9FIxNVPrtKg6IHWwb6PYhXUIABwmoAo6qvoigEvUInvUjWkGQgG4wQtEABcG9BZqlFZTAUBpNUChwVZ79RZIQEEflECHFVj5c0F5NUCJFReClVmPlVmRtVeZlS+blQQQtFo31FeJ9VedlVpt9VqvlVq59RaAwEfMoyPMrS5PAr/uslTIyVPcCryWQmawrBkdIBkUlEER9AVqgTWPtVqhNVsd1P9bpbVXI7RZf3Vg9dVap7VhGVZZDTZg+xNcl1VafdVhnbRgEZQ/SZFKBYkonEeweOczw9RNcwlNTG4wmIG/ynQeckEtFqAaLuARsdNNj8EBskFTdXZneRY6AaAXZiPoAqM3AVXmBlU48WVEDqAX/KUAbsyCrsEBUNIvCEABapNms9NNq2AdYMBNe/ZrwTZPZYF9TCMS24V1NmLEnsIBMC8CfuEAWBQGFgC/UsUY1AEUZ9VWq9ViyeAB6uFfnTVAlbVaBTdwgdVbAfZwoRVaoUFwxTVwB3Rw+VNyGxdyCzdYk1VAC9dbF5dXF1QEppGZ6OOH+q1YkoZU2EjPPIXPCKX/PV5CTqoAQjfXRoFAA0rAQK01YjHXcHk1cAXXWCUXWx23WyXXWCu3cjeXWS9Xc6F1d5WVeC3XeBe0BDQgnxKIXdExjT6Ew+JiGnrqTN5RMJwhBB2gfM2XB4xrHzAPa7Uz/X4ubOE3frPWHYLgAhrjT9FEcR4ycrTkpRQAHF5pt8iEMPaqA67Ba7fzGsThGOS3gR1YT/uUdEAVTYwKLCiHeB7AAZ6BGRZgUFvmfdwoIerBAeABSB23RrvxdsOVcQ23c6l1VzXXVx92cvP1YZF1hbEVYx32cZ/XWoEXcV+4caMVF14gFTggdXTHrT5FKbCCmRBKeJwhZOlpecoJLC7A/wtu14VZWAQ6YBEcFnKRtVubd4fJeHlf+HfLOIw9F3lvVXgnV4xPGGOPd3FxIRWM5FdQRYrdrLKMQRYo7y2Ka4JLEyQDA1gU4JApSdQiIAJAi32zFgx+zIElGX4h+FEJg2jz12jtxTTGcJ+cAbeQE4MS4+dO0wF+ATyPoQMsdZJZWWd/tgo8tWEeJmCAY38oJx18gQPY9gIi4AAIAB0GLQNyoR/Y7B7yBghq1Voz11hvIQYewAJ29YYJFo4JNnN715px93iXuXih13iLl3Jzt1vDWJoHl3NxoRZ+aVCw5z6mjqmM5Zu6w8qMpYymQ6igOZmnmWF9QQNSgVYJNFkVt/9Xk9dWnZWZKRd4pfdxDVpc9bag95ZynTWGgxVcWfh3PZc/FyEXekGZ9ONV0swjxqXz3KJTzRNIwJQ1fMkcvpNHgkAWELiVYRpPr+H2joww8PdMAlW2IKR/8WEiLcf1LHKAxfQCqgAMVhoMQuCBYnqp8VQWuDAlBdlMKnigVjXQzmGx2DMXVHMejMs8AEBISiCMORdinxQIFiGLAfZyBXqscRdcCzdce/iGy7hxx7qu51qcTzhxO/dZS8ALkFjDIOxjbSWOHgsB0y2PR6WY+GQAKaADRiBy2fp5oWEa5dqGx1igp3Vvy5iFz1iLJ3px5zith1iZmzeyvxhiY3h6ceP/VwbbzSYOu1SCakrWLWRDpEvTtg/jO4LAqMEzqe+BqYGbTt2hHQ0Dk3H6N/tBJGqLzianX9BQlIU6MCJAMub0twnAuq3zq4PAHawTu707Or8bOsP7usG7vMXbvMn7vNU7vdl7vN0bvbE7u2dadBrDbNnlH9SSyTbCTV9AAdJBCKPRr3KJOBegA3QUXINYWW8BHQDzBaZZWnu4Qic6rSV0eQ/3mt/YoNv6hb05cj1cwzf3rZM1iJkZF4SESl0EknQmjKYKmdS5La/L6sBgAJdxkh5ABmYUd9/YYAmaDEIgFa51x6+5w5lZw42XdwG3chd6r2dYdyH7WDtbybeZjTH8/xaegU1WqaOb6T8MQktPLgSOIZMmbzVK4AFcGjx5pAPOPL2tu83V283Z/M3lPM7pHM7tfM7vvM7xPLvBQBhe1jBu2kw4CDRQqVAbg4QU9dcE2JL7QrfrtBeqQKmDe9KvM75z8KkPQyXPBG1LJOE2whYiL2/K1EzZ5Ks/IKzH2HEfdj8X4RlmtVl/OLPf2LLJ+neruY3/WawbVojTmHhxGIeZN8qZWVqpVwL+RySeeCy0h5HwJ1NANrxO5otG5RpACx0gO3E39wVA9xkgltaPvMnJWIgZ2nOHHHp9nYchl9fVWtcBVsmZV5kJusxzgzMNRT1kZVxm2y2Ieh9KjpAZ4/8emEEcsjPPr7sDJJ3SER473SG6B8O4BV2TYywzLqMlPuM4/yWFem6WAKPAJbU745tZgiDhRf46e4EbYvMw0LNdOKyQXHQgRJcA0GXUISN1QNGfEzybF1cCvEAGXsDDuZm013pagTfDMbxxARZjv5lzFTdzpTyGAzavg9yMmTUZvOAa8NiroONWDE8ZjwZAEM/evMN6NkB9eVJJGfdya9QXZmEfHBrdQ3tyxznExRrtmb7uo/nsM/zmo3XoNVyIyT3Yq5fSyirb1HEuDgCkSi7fDaPHnJNOQZ63Rz64sVuFouHobDpdXksyHjKVdo2VEh2oO+cevGFq6yICquEaNlX/GbyAI807z11/z/U89l9f9mF/9iv9GL4306M6qLJBmd5rXknCGKabTzuwAyrg9iYgAp5hGnC+hwkWWb0gGRx8rhk2iCM6nFe9hQMUhtW9wnUYc4+U1hFXyJ8V7fOZoOHB5/ZHr+pT36hlVLziYxFuMw1iXCZPjb9Yd3syFcRhL+F4QwECF4lbAgVCu0UCF7SEC29BE0iQxMOBEB9OjBgR1y2EChNKTIixoESIBj1qnIiSJMWRHg/iqtVhQYCZYF4EmBHgBU6aNnXmxGlsgTkARIsSzdUhgNGlTJs6fQrAQQSoVJdG4AaDgFat97Z69QpAVodsAL6aPYs2rdq1bNu6/1XLLMSBqk0POFBAN6/ephcKFHigQMGBAzMDENj7VAUBFTQHH+jgNwTiyZSXXnPwS2+AXOvKbu1KADTaa1UueH6LOrXq1WxFa3X3YEFlog4mzL69VEGEmTYD4CtcuHfwAAcWRFiwIPDMDQAueBGx0aNDkxwjPny2iGHG6iVFdpxYcKFG7SzFcxTf8GRBhA8dGhyvcD1D+bggjjzIcP5A8CO8MHM20wwvgCEggTaBwRuCOf024E29XZOgcA0CmFNhYFAInE+8CUicc9qZl593BImQzDMggddQiBvRJ15FLOZ33nkqnqhRd+iZZJ5CHA20XYgg6lhQCSFYAECACfJmJP+CDRa2ADxORdDBULhp5kAJUxZ5QRCeubYWGLnksiVXYoY2JmhmlokmmWqeuWaabL7pZpxqntVLNbJN1g8Pc12JW19/CTbYTACowGdZMzlzgALg5OKXOIU+alQADtxJ1wK5KNMWlwAcIw6XrH0KaqhvcWPbbA+UCiliCkxgYYYF3vRTAAoGoBhwM9lShRf1HQSee+VR9IIMHZBh3Xsf1bgfd/upBF5CEBW7kkg4OmtSSyKltNJFLeqHUbUE3WKBFzDY0lu5RvoW66wVFrbTTjohuBNP8co7nKwzEaAAB764lO161jlEkAwOiGCfd70emx6MxsYHUnjhgSRjRzvyux3/Rt2iuJ/C/ba0ohe5ICmcvTj1dO5MQjkVQAVgpvqUA8pcqUAuzKQFp1abhgCGqDrvrLNoAIDRgQVKIWYXXiwj5idggBZ22JWMMQbGAf085pcGRxdq1z96TRBCL2p5anM2IWQ1Js9mn72WaAEIc8GelLFTz9V6rcrugfMOWO68ts6kQAfTvCDSdC7SmBA6HFAAOEK+qsfStT5CLNF0vvJ7EcAHd/QwsgDTF7nD7E0bH68Q3yIDYD/DmuHe6xY4MoNKpn6gg0gGgGGDOF1YmAqyODAC45in2Gx98FS5q44XqSjfwdqCvuPvID1fX+PlsWds8NuqR33j/MaXTC7q0LQT/4U9wVthgyo0+VS4+Mi9lANS4lZPB+6sBgCUspyGdv76gx3AMbm4rZc8AZB9UEnaPhwjKELxiQCHStQBGPUXAuImABmgVFUwII6vgO0zXnFHFSaAlpqJUE4jbJMJS4hCEp5FGR0wGmVOJUGq6GZ2walJu3hCE9VtYALPkIHx1nM8zG0OOw6LVrUs4p6MZItaSgzcSY64sI0kLHsVWZa1PvKtkHikYfPZh1RANgMbitEn5KvX3sKoIVgJB0G/kZVNRrYu4NTjAdAxlhYzcpARLcIXBBtItRhmkYxFT3DIqsjEDKK4zN0Ij3dkVhExIh4S6GeQE1uRBDqwmxpuiHzCif/XyZzSNyLFUCpXsgDOzLLBr8CgChbQnytfeZYFRMOCeSlaDKmSNAXAIFC0ahpuFlMk4gxGHZApgGRuSZkZZAAdedkMmM6Syq30QhjC0CAsr3k2GHCDlnupDTKd8otMwitkICujTgZUIAAZIxkdIFjztOcdhrwgGV7YR8Eih55u2ac9vcJP6MiTEmWt6FjPu5w/w1MdaqFERQstCC5E4AULEMZecZxduWwIvgnRsEGdJKe7FNRG2nXoGd8C3Y3g8xARUKAK7XlcQlEaLYQca3HbwyP0Tvqj8kQRRtiKTyUnmRFclCCiwYyXu1rFISY56SkXOCYBJWWlKSHlNNFEpTD/qsDBE6pQq1xNYVe3WkJrbgUMDkgHnvT0TacYcGoUAiafgONACDoqrXuRFDdBKbNMoYUZGcSmX89WlgeI8oWooitRFJCNAB3IJ+9CF5LUFTICdKADjNtc5KQjsYB5IRXRAxIXz+NE6USSYY78YyQbOjlFgvayKEokdWBEHX5NIxcKsBUajerGuyUVOAoK40/YGDsNhUxvhlHAM6YhWpWQNpIbId0HSlC8lRDEeoqcTxN/ehE7qsSmxYJWdjG7xOWKlmO48EIVGLMuvLnqQTM53/uaIosQLJWALpvSoo6BP1Sm6TB8/at/UxPNIRmDaHcx7FJyucuJKqZQhhHm1Ipp/zUD0+UymaHLBNahAABvBQDK4AYY8vvfENOsbARg5dAmAzcJE+UfmdwbR+smOweVcR8hqMULUKRc0TkMF/A4ruZ+xbDV+pNw7FlcjHDUvCZiDD7JBZ2PqJhE5h5EBiHQWoyP1JuRjXNWSU3qG2mIOtuhUzjOUJAKIqABzrbUV9GBT2pLQDzFYezIL2KyP0960zzD1Hnj+VHEUpIjP6I0cytiJ0jPZaBZlTEA6HvKCyCwMvq+tzIRqML9oMkWDo9NxJxO21nYtr69CFDFREkaDKY2UbdeiVayStSi/PIAUlPFrnmxQAdyJtY5nSUsIfhF2bwaVmBnVdhfLTZajiEMcP9UBoYqptu68PFlWNXEVtBOnQp+EbToTURjQEQkCYBQhc4GT8mCdthojSgxbRkMc5d9VoisiNDBNXFhkvQdNEQglQ3kREHC9a2EeNubamOUhkfl9+tmAiHg1G9g1tHzIhsmggf4UInbG3Ig8bgwfyrru9+VmHK3U10lahE9Rew4NF4wjQ6gw8VICt/s7vHJp0TgAQM8GilxM4EqZJjEbQHAL6qAqU4L3S3KoC2BXSjhXB5Qwb68jVIKg6gD9KKYTpV1U5wxDmbSJRdB8Eo0PeXzKqRj6GRfywSMThlvNjuxsuLQwbPsRt66fSZQmnibE7pkHAHBCzduHn7yWfKCUa//tdR6mGVjRPiWkvbdLELkFC1SMPHgeyqK5Xcb7TaTkM7dxYfet+xuqNjPv4AAE3CARr615D87FB1LkEBrB+fZiP3ZpD5KXsYf19Af5bNxJdWRoCPmLF88Ix2FgRDoyTmrRj+lb4U9GlSndIEq4Nrrb3GHMGYG1uwXm9jc32quCQAldyBm1KROWj92OSDFKPCtwhSMXK3+FFpvvQMgRs00j1HV1AAABr4+TNPYsgBkAxb+VxYF6FdhUQVTQVikNkOqM3AbknmzsxP3YAHPAA+78jjaVkkEMU8fEF1s5nvVc3sUNy0gyFPxVESPVDmO5y0OJT2rtSLQcCrDcTu2BWYV/4JbjZVG/FYvNlFtrVIYFvABDYVF2tVkVVALBBNEpsUtTLYd32Ux3uZTUbRd61FaJYUtC0Fd5HESBJEKz8AqRoI306YgCkIh7kUVpPcAJ3Y19YUbXFd/YsUmP8M2ZUd2GwQDIaCAemFL5QdrCrB07dV0ThdMxCEYEAZ/TmEXWjdrKlN/ouEaZwIA04QB1Bcq14ABxxAA5mAOEaAMYTABzDA/YHN9VNULnCgL5pCKqWgO/RcqkMhzebiHiJFiKmYcwMEh8fICIeV5YQYcF/AMI/ACsoc82yMRL1ALH9Bki6Md9DF7QEKMi8dkv5NkQ/Y7ygVQhJaBIQJREpU6ALdvrf9DUeMjIR+Vi21nO0h1USpwABewCN9ihcpCjc+TDEDgTvqRR+AlRe/BXLQXZJkzUyeYgRqHPNADSTzlZEL1DL7AQMMVehgCHMr3FAtgOuzjPnTBhkzRAc8UQmwBBseAVXYokl4BBg/wMqKGVn74J6h2L+s3JYUxGODwQLCWiE0hf1TxQETCc2/BDLeGadsnJhyWCzAABszADMhmAUFQBZkBBp1oM0RRBWRBFARQlMJgAdnADBKQlcxwARYAi0Cpaz+pFSHADMvWfHSFWD8RO+syKwmnixSlFB0ABNN1hfeUXS9ABl5QAk0ERb+nHlYIPc1oePBGMdcSec8ySApzZ0//BC1PSBIEURoTNY44QSEfFRw1OAMq8ID28m8hM22PlUYKcAFzeUU30nEfIgN6WUgU0RCBxG4hMV0meHrxFlOIZDB0FiODVBLehY3Iom4O8Qy5gF7jWFGHEpGTZpMXgEkLgA6BgUABMGBTcnNUkQ0XEAE1FwDrYBr75Wmk1ykj+V9g4zPcMFi1VGAqCRgJJogMViSDsUtUV5NMgQ8OIH5VYSkv832WaBZxYTa9gAGycA0RAAPZcADZUJQRcBhgkA1BYA7XkIoLEALCsADKAAMAcA3HIIq/cABgcA1gEAEYIIDXJFiVoXYSxmK2ZTdZ9kbjo0ZJFQLJcHozco1Nhgv1/7BZxhON2zYCHCEC9yhED7WjkgRP9VEfn6Mj7kGkSToeIrCjNIWNzPNuxDhbtWWcnMmDJYOD5KRRaqR5K4qO6tJeC8BKu9IjgaNuz1MP4iCMRQYeodVnRSqknWVdC1FvCCECI0EQSUo9zaOkRDoiI2BP2hOYQYZaz/Mti1AFRZKLDdJGbaQghAFz8wUVFFkFuQABEHABFHABXWkBnWoBEjABoRoBEWAOyMGcgZFgklkUk1IVAeAFBcADFCCgRvEYZQkqAJAN1eB/KXQNvZAz9wAGvcAmHHoNYgIGc2iAXcEmNkOAxgoD3ReWqTQk45eSKrZWvKRqU2ILP3ENB/R+8f8ZKRVUKZfSGmrBYQ8wfWGZGlflDhdwKVVgfRaQC4m1FeaQC+7gAEFwAdUgDvtKf2BgAcrgDsewAAkqDLnAM8v6FQAQAr5glgwYhnEngWu5HDcIANyQDC/AEhgXmJTjhYsgAxzLSAnhDGQgAQTzAiNgASXAcbiQChSgEBYQA9EiAqlQAqmQCg+RCjMrHyXgsz+bCgTjsrkgtNJxgibYT6TlHtAgfO4wnLGSJMIlRhU1UXfDWzhEcGr5YQuwkIImSLximNqTCs/lWWHLZw9VAiQgAr5QAugQA11IAiUgtCVABiKQstPQOwtxszbbOyJABtlyCzX7s/DgswRRAr7AWTn/BnvSozko8gLPIBlYqzoilTsxRxXoIAsREKqd6q5IEQ0hEAIPILrcIA4hwAFeMFkqIwzJsKm+0Kmhmg0RkAHWaaru0JwwsA+A4g7FVDUTUFsAEDO2ql9yYjMR4ADpyhYTgH9lgZX+ZzMDW6EJCqIk+QvuUL1d8QtE6XUwwL3d6w7XQBS/cAHIKyqeUhrRaZ5IZ2C5tDSCsmoAcA8IJzX9gIjgWhQvkHV0EQG5cGli+X3neg9xmBrTtA7iUAUwcJTX1wHCcAziN1YHEAS9AABABwDMACYXag73oAzC8AsBYAHCMH35l59tEQ349TZxs3bsEoGaBBzOGQDbCpcPUAsq/7BnOGWQNZIKHXAOMVpdDkUBvnALI5AK9QAEtXCzMWBPJRADL2ABi5CyGnCBRYoLvuAAe/ccuNABF6BjIlALVfAMzwAEJSID0AANMsABZ8o5u7dngjZawpcZjpVeYlgyKTor4/MqLncubwmXuvMMZICB0tiMhjoRMfAAJQA4glpF8PFQtZAMJJAKi5AK4QJdEZEMSfgCJfAMFsC0VeBOMvAMqBsCEvACqfAAvbMipPMMVbAIQMDK07CXqZAMnBUdQdSaAwUw95E5LwAEkYs6d7wkeyORDPYCvRAYC5C52TABnAtp69ABISAOD1AAGSC6DwC6ITBZVZAMbJMLDuAX3f9cAHzQNjGDn59yrh/2FrlwDL0qC7lwAdx7DcCKiR3wC15DANlgkqCBq9VwVeJQrOjsGlVZBdR0VcpwrLIgfQKsMxN8DLaAkjVHV6bGkk/3KAHiahAUa/ZLFDcJFftrDiO8FgBgDsfbkWCpFb/wn/cAA7IQBPPcC/MMFhAswfMKAGf3MwGrFcoQfe0MYl6ln5YoGln8sCp2ouVDbTAWAB3AAxewAAfwG8NZYxoLhVX4K164kBT3UvuhUslQs188DYx8XCTwAhSQsTKwCDwWAkHbo2AtfENLMEAAxA0TuCOQDHzUo/WAuPBwxZMjOL2Sca7VLN9CBjGBXlPrWGuUN5f/WRi8qEbfqF7vwlg4AQAL4AX10FyRt49sLF24gA7V8LaAC2+MBFGclQzTIALQMA1eIEmGu1n7EAPT4NZ7lAr2BMtKnAyGPAIagA7T9RH7QGWlfafJIAOpMA0hW7Z8fUXYeGcvUAEhEHfqtVsYMlEwh5wExNBFoX5RQRaDERiyUAKemA3nIK/c7M3dPAGWkg0e/ZMgTXNuERYXoAxnVwXsENDoDAYKcAwPIA7UBAPuwL8YYKCHwUIEYH0fdgHY5xXXcAAYwAwbCgbuwAzV2wHFyhpfiRbsnJE4eZ7W+oeB6L6rhl4vcADvGRkYTRR2UWFUUQ/3GiYjbYkgXQ2GMSci/0wnDEwABt0BD5ALLnBVzIBrAdALeTg/61CWFpCoHxkBH3YPwsAOwnuApRHUEqYAysAYMDy5thICBTAPPBACvjtRByAOf0OmG9tT3PEQmOwLoYNQcF0CiyC6iwAPMqDVJOALnFwfyUABKkAGuXALQKABnxy6qfACvgAE+2DEGtFDjNkeGjDGG1ECsfzIbcZFkRcto6V75yEsBWsraYSOqHN5dcyL4rNluAWXWGYLEXCjJPdHQIWnQuUA8AA4OXKQtkkCZMANMgAPGgAESiwBvkAGLKsRtZAKIyAB0/AMH+ALvlALCVEPyYAOElAL9YEOIeCj8UEGQYBPmdzoslyC5//mIkEEcskQDbhoK+qi2MEsYWXVFARgDAEQwBTpzTzgALmwG+mQC2b1k1UF0vw8bGkSBB1AlAGgDDgDBviAIATQC0YpKwaNKb3AzhKcDdJ3DP0nDEFXNkGQDbYQGjBwDLLwc+ZMbCPtGmwzAw0taxB9ABRSJIXCQMLkrY1C4kXCqlWhDPDK4vkZ2exwADxzAePQARGvAMLQr8gmC8d6GB4kC9UQBBTgAPltwBZq0xx2VcIwP6DCJQq7YaWhFOq3GFt/3dlaokTB0BIt9ik/9mVP9mdf9gpQD2XoWLxIZkHw7g7QARNw8sbedzqlj3MmVEXcLd4FEiQC7IFLBvUgArn/EAOljYw2Vg/PkAp6+QgyUAVkAA0q4AuGnx0EcVztQRIRFwJA8AHDPQ04m9dzBnmeLZt3thH1oIfGMDK3c9hL4pCaDoRg5tixck6ooxSmngoD5XhSKEjvgW9LbIzMlWMpPg3J8AFAYAHHPg3DTQJumwq5DR1koAFC6oUXQAa+IAH1UQIfgA414hIq9QDP0AGz0Oi9Xgv1AEggh0/MiI/Lgoxy4YsSC5GVO92GNZ1P8Q9XXgAOoNSEARAAAETIZY7AwXsHFS4kkLAhQwC/uLljWFFhtmodzC1YcCyIOwW/ZFGEEQHDMXcdLgi7cOGYsGNglFVRUAUMAALCLDhUCADM/4NowkIcK8HMXEowFpUuZYqz5QFjAqVOpQrggAMFVbVu5dqV64UCBR4oUHDgWgC0XtVOVUEALZgD/Q50CKth7V28eQHgc/BvrYVcvZg+bCqLm+DBiRXC+HXAHZheD6q4cyfMHU4AvY4xcxciQq8gGGBYOObzmLlrx6rIAsOsCmLCTHkqtriOhwMH1Rw82N2bt+7euB8UGIfbOG/kvpUnZ77ceXPet41Ppz6dXZOw2cPy6BChgy9cuEiEH39rPDTz0MSvh1YeV4lktXDdUq++/H31uHzJQOerSrL/vEgml1RwSWaaF1L5AIgKUnmhHl9EeEE/eUrooIT5NFhEhPTCE/+hFgpKEIGDWkqYJpVUnrmPvvHWI8E8XNqbz0X6xGNxvvKgScWLBQB4AQy0XngrSLRm+DFIIIVMEkgjwTASLXzeehIMIdFC0kohowRgghAwlPGWW1zEMcYwz3MPHT7gmZAE9HIUr77zzCNBBBGASCaVEvLEExpofElGAxng2S+XD8iwgIxUdKylnmnku8UCPmJwxjzzXpCBgxJGqOeDEigItJYCYaRUxvvERM/GFsd7EZdpOjgAyRkCeCHWIY90BsgAFoBHL17xuscBc9QKwAII3OknAKoIoog2pQCQJYRlB+tlnQ4sYEYZDIIQJhtlJshGFgKYCWOCXMCQhbFfeun/RRlZjFEGgl4mO6iDIGBDiJljGqviAneYkeUXm3BiViGHZlPqmAsOyKsfHhTu9eGvwnpgH7leRRZZiKUiAABj0HLmgLJykThjku8KIIMe1ZpA3tiWMvggABaoxl6eCkboZsIcAkOBbF6aIAxhjGKGmWs2BuOYcsGAYeNcsvGpF58sUIYlWQQKAOmkGLK5ZZwJVoonAHLxYoIIyq7HbLTLjkAZtSNwoIq2Izg7gmzKrptuu/PGe++7+9bbb7otSKaeeiYofALEE1c88eG0K4AHL5hRwAtfXlCvwxftI6/GVdl8YYQqKKBRVfs0f2EacYBIRQRfvKhHhDxJeKGWWlSQ/2EJFL1g3Zf8fHkGl3qeEQGXRR4Idb5bZPggmRJeSCbCE3cc3r4yNaf+zTjftJG9VVPxzJYAaI11Viit9Dh8K2kNv0pZzUeffVlpjTL+AHBFVpkQYgATextlLF3VMoVJBBkoUOdiBED2wCg/0HgA5XzhCyA8A0O3gJ0GzhEDC6TIeDKQQCpukQrmwSdRvgiBL84TnhI8YxEWeE8yRJALMsCnHjNik4vglEDSnZBNNXJeCCxGJCqdr0jmM8YCglUyJALAARFYS1q0QpCqVeRlUoTZL6wRLaaAwR3K8FcAmBGCXuDjGnABAxiqII51VMMC2biWv3rhLwAoYx0EANhNqv/wgCgqxBzi4BcANnMNf6WkaAOTjUUAsBJw5OUqWUlixsAiFrIcYH4YK9kGNqAC8F3jAOCYS1hC0EhQTuUF40DHWsiFRa5ZZDYAMEc1bkJIpQDyAlxUiblC4ICq4UQBx8glZqqgDIFsTDPXckdCgOSObBwga7Ds2kKmWAVmPOwBuwolrw7QS7zQJTshsEAEYGCMA4ijctpToJk4x7kZwQMI4EHnqdxzixFQ4AGLoMA0yFAFB/jCUL5IVHxe+IwXkMAL51jE8SywCGOIgFPwcZ3m4OMLeNQiGc9Y3Z1SZL31pEeBGbUhe8R0wB31qH1HupKs7GdSIQnpSfV70vx+VKX/+Y3vpEFqUgBUEIEQwKNMONIcjNzTpsu9xwHNs54OSTWm+QAhBBw4xwhSIQ4NoEc9L1iEBOhTAiCIIxl8Gk8qQqSfWowAhh0Y3v6mAYQS+G4RMnAGECZQAlCRyaM+JZOq5EpXBTrPC+k7kvqKlFInvcAWuqomxIZKMnPkIo9cmyJE9ri0nDVTIOawANQiEIQ2ruQatvhFBITRgalVIRe5qEJHnDYTn4RAHTA4BmgdAoBrBM0dx0CaLFJTgjriZGu7bebXGMKSm+CFYQ4rbF4e+QAYVCwtlCSZMdwSPpAdQGQFEEdxGxkAB6TMK1D0bW9x5ixvLJOZDFEADJylLQxc/wAD+BJGBAgAF4gEwQICe68FKMAMNg5Nv8dYALMa67Vm7UuaErAuXhQQAfclOMEEGM4DciEBd2AMLRpIhuWqtz0D2jVzt3hBDJ7Bu+r5tHQUrIUXLFCCVIitHmR4xjMsoL/i+e53OvKCFzAUnoOy7gEjeB58ZBAj8XjwPQ8AAjRKIA8ZSG9MmctwObXXZKmWhwwdWICVkqQ+8dHPfrEKYpIU7NcrkY9KM5jpQDoggxrKiHucI1WIRVCNGKwZVRzd4XymQdEH4uKgBUIeLs48obOCkALDw0UqsJFkL0yjBF5ARy0sQLo8WQ4ID2geB3wRgztd+EVxOqfmAFi69fSwfv/wo+mSEmzEAuvFAcDM2AJy4d7/OlOysqhGPGjDSpS8VySUHQcE8CGVLypjlrK4QAhkca04dmBd7OjFemGAAWAeBAy/uAkMxFGuXghDGUgZ78BY4gxFYiXVdzluJH/YyEsG6QAw6GQB7DLujF2llGqBIn2ZycoH3ENgW7s3GBbArlxM4CCyyIUyYFYRbdt7i8pgmzki4HCGQ/Zl/421UoIwjYdVox7w9go6lKFgkFvJAheoMsfc94BarGmnRSVTm4A8HnisdUwKdHJ47KmeaWwo5g6aj59KwGJcvKAEfPDCPiak50Qv4kQXOp0LLRweXMjACw7S1CN2FKYbebo+c3b/5wHRWR76SIDKAFgfloIIP5VWiX1PolVgvTzJSdK0fUIkgHdmKKodporOPS20A9DR542680skiKeNcSGCZHhhrSrQHi4Gini0qgB0tQiTDKaRjA7cKRksLEFBwxOm8Ih1GuqJYQTiuj8ziSn1/suo9V7wjE9KiX1B/GvZc0VNjncFuyUgmaujXcil4Fu8g5GFBcx7DXdcAx+b0XcvuJULcTDjAvgVRhAWwAwmmiMEzMgFL3NxGelfQ2BSkYUXqtaLc/2iA68kJG+XkosL2GJhDct9V467jwPkf7lJ1Dda8o//6XqA+usVFRgH7eoKVwsWAHOZigCAbHiA4ZO1yJpA/4MJpo2BGQt8GXWwFwzUGMywtwUMQdpYpaF4GAeYgAHUCgWoB7kjn1GTHytpCxV4CxcEAAp7ATbrnwx7uTdJkDMTPDGhuRd4IBJwBqnTAC/glBkJugfxghaKoBLhMDLQABQpgSrgnc/5D/cgAQswsfwID3jQHQyjuY76HwzrHzHxnSprHywbojHrslkBEnyYvZSSOys5Czt0H2cYkiLqADLouqJis1UZsRj4AHgID//RsC+5nB0pEGfwMAcYqBJIlR2pAi8IgQL6IIpyhlSYhmmQARMRHpsDgkMEPXioAlF0hhcQukWxoS0ENQT6NNIJk9cLgQ0wnzgkn1lREiUJgP8iOqIU1IpVI5maEDit8S4JHAgIBL6DMAcMuIw3+qxcuMDZYgbgSi9rnAz8iiNjk4VeaJqbOADgghkwMIcgMMaNAQBB6jZmJIB12IlwY6RgnIpyY7dzS6J0qx9nYLdn8KR5xItr8Lu18D0QnMBUuogHuEB2XEiGHEEJrBlDEidpQsF/FAgF+DjzCaKVIqmQmzutspyMsiuNAiAdijoOuDvruRFR6TxfGAF4kAFtoCcgmIZ6qKEwsYAPSIVFqAIjiyAMybkXqBN5aJEE8QK2goYYoAAvRB4SSMpnwLoaSr3MmTOsAyrukSsS8IVcyIr6MamR0kj3oRX4YbsE+xG2I6n/F3ApXGESwVqAauEpJyPD9HinTRkByzkhUblKNqETEWAULyCQaRAQXygBpMw8KLQAC3igB6oFEUgFtGKVRZggCnoGIBgPEQjMyrwcaEC8Kpigy5nLmYuTOPE0pHqGDiC7lZq7sEyf26tIqlgiYsyFaGJHB3QAAPuvbLgAyGoNcXjGngAA7rsG3awMf5mlLQkCnxAGYXglZ+kAY9ylEJgA9lMa1WA/9+O37oovX9CL4XJNgSg3udjDi2mk5/oYAAyL6vJO3cuutVAA2RwvnsCfrKm4xKBPVWJH7DzI8eKG+eqVB6DIilxBGhTLIUGf+DkpMUMWLwCCzWmPHCzJNgG9/3rggAIKSTmDhlr4gEB5Bg6QAfVwBjJ4TNBTnucBPWigADLQj1woNCAgtFOBkMOzAAr9vDBBh1wIATIYRBqaD62rHg3j0dGZj2RIBgWgHyuJKSyJnzq0sl6EqfJJsLY7UBesEnWMj5LsHK2zKwe9BTIwPBqKSgcNwhhREIoCvcv0AspDh3pQj8aUqCGdBn0iAXgIoVYEkzAZgRMDHsr5zDDxhQdwIa57xSejHpF0OfQwTSJhzTHrSrXzRVRTTwCoBibKmBmogtIQwYeECGWoBn27z4VwlmOAGnJUzkE6iAlYTn+hLQWwxsvIBmEggMoQVYW4voNwjf7qCeHELGayz/+FEIf+xItFUs9yK4t7LBkVILt7CABN6od+0KZ3g1StuIrLUItKxYB9YybhnMZjbMjBmKL8pCKHlEBmvIYQYDVeOUHv/AcWTFInUdL2cakmIVC0yAVAhZEEusqjQo8h1IDpybpSkRERiVA7BbxTgZ0ZsVM7hR2pYkogQ48O6ZD2EIF94NEc4rqdwo+XE5WeIoFFwIADAB9Zibu5Owv7YUskzRKQS8tETU0s8SsYoIAqII+Ws1A14zvWEcWHbT0cOpX2sMn9cdjPBDKoc9jDI8waeVisU8n2sI85AVK74h+8GxNCxSjQuQCyczu0Wx+3QwvCUk/smlSIMYYOEIaCHBj/MLCAIFCMb5U2hnAHcFGmXkgKGBikXoCs8YrbsvWv3pqNe/hP7qQ/7yy3/LMYskOidCyS6ApAaN0K7DrAriAtEJw4cSWAbLsABqRAnDEYfoNIcPVU/dzWgflWdwgCsNULv3XNAyu1RLWylO1KtFCBY5Cgl9O6M2wn5/kAvsPSjMK6JewfMKEeqQqTpdXRU9G0n+Vdd+LdndJYHiQdr3PFA0JDaOCmlOUyFxwfMCMSMAMD8RRZ2mNULvNKWenCz3TeqAygzhGgIR0eLGWyN8GrE2rYVQkg+kDYgR3Yn6JfzdnRe3VeoNI0WCTD9E0hC1hdsSQzUnvdR1VP2CSZCqiC/7z91tdKDW3lVgvuNl5lll4IAaeJR2GVmEjCQ+YimRlUN3Vot09a3Kq4Csflilw4zewUQXX8pQuu4XBlrMn93IWYiV+YSO9EprDsK7NUu0miFfFEiwnogFBZEeDVQRsBPSBwQjBhk9RzsrxbWPONXkppEdAcSan9UfNts0QMVKwkD5cLzegVgSVKVtetKfapQy/rSvURYgULLAMly7VjHwt4gCn2tADCqLw7PMqxUzWz1399MhwxZNYL40FN5CzesB1y0JQslVJZ3kM23xHtjo5JUpU1n7MEAxVYgNKtSBUAlpIRhjkySNr4xmO4TUy14YaUXFX2XIb4hSBIh78lrv+KFFz9G0/DJbsAyL+QQU8VrorGJbf167aI6ABwyeH2e+YYBl1YZghr3AcTBNB/TN0k3eYjZdLvBRIVMIeqoiHSfGSvg4YImpH8MCA/PsOpPN+V4x/+NafrueIgBOR4fhGfwpy6gsUZUWMmoilSg0EDDYA5fJJebJ9FXdQm/V72mUPzcUBeILTsicr31V1cQAccjUV81SH6rbMvmbMd1LCNSl9AXg93jt7VA1NEtujssQAqe9IosR9dPCln4T1IldSSsYDX0Nu2rQJ0DNfGyuBu3VuGXNvYUIYOkMe7CNbABeGymKRGaou3iAtwcNZipgq+6OG1YAZly+FYiyNxkLj/XRVB9zvI/JTgy20mzc3hlngBH3ZNUf4rtmRLKK2SNgwABfiOu5RadNLYFnmPZ0iGJRsxLcUcfy7pnrocKj6gG0LDShZNJ5bKkgYyK0ZjGUmFB+hhAwUS8eTI1c1I7OUr1aw9ug5fK2sSZfRMkazsngqTEhgqZ+BBl1PJd25eJwNkQz2hqX2yGzGq911sQ05kzKa5p8U8dehIXPkRFYjXUB7lf/zaklkZVMJhQzIHZs5bZ7bhipPlV95uZ7YAYdDltejOp4akwd2/JNrkjxlmscjqqcCueVOLdCiIG36tMOCGWLvOacZPWOamdOSV0w3QbCjLgl7UUXufs7OSEGBQ/zNWvd0OoEJboapE5Prd3wD27Vkk6Yz94tZbPcTe3Rz5OpezaADGMAnwgiJFKfOZnz1c6DjExRaHnzdUO7+y8ZWNmTPbwqxzZxaB7aFqUC3V3Yq16BLHnJK+2I1KadSjFHc21EZubEmm2fqlqg5o2Rd01xsPgHtYYO/U6dgMg7Wmojjihgic5e7ybm+lZf+uT6a4whFWC6d2zWHt5Th/GPkLgEzaJBSGb6mQ1rvoB/iLXNo427TtXPi84dAt6hDk28nVmQeAbrxAV9SdAL5abiMd4tV0XQDogGeobcmOyxpiFS8YgSXz8E1z0C3UYrwMsfO9beYlgci20Nwm6ZC+7f9FltrDA4KE8WTQLsvx0VrxmT3bU2izu2OSQmi9plcoJ8noParDC0w3CfV/5V2MlWzpHfK68jojD3HapWRab5FTMZUfNQ8vsNpaychj58iu9c5SlnS9CIAKsFpklGYCKDbwFleKY3QMBmtEN9sHMFfhAlw6B+H09uUkQlz3Tk8/L8AW3ooNuADkbEeG+EZf4Fb7XFvO/dyNr+EFCIGHv4sBz+YIUAGHbrsmZdIEpx8A2DOZjVDfnqsXsETUA0IOn91YzFKP0lJX/HZYDMSYN3G9nOI+XrOg/M88FDMXDIBbcZ9G7TIZz7LmRvCXknHXDYBz4NfN8V+8E14BshP2xTv/livxRLzY2b1nHMJtikVpKEPkERtjUgHTUXnfQhsbKGVoMqMfWgllYPTOBiYZfB8vMFBO7e7vMc9cfvfpruGJyMA9YBW38x4LYrWS6yrhF1i3dntW+L4GPmBqr9jjRt/W11LqZrbuzvVuNM931Y9hR//ue0Aa8s4LjfPOuZYSLIkplaq9KUnNCKgCC7Awba91FtnJCQFCmjPD/LXJilbpbV/+5Y/ayv7Xawf1s/80II1tdABZ8aWfXx9iJvF1rUWSRj122WtX87kHtykrzTzDMR6PEvgAlNRit+d5e/Uf+FXpqM1Xt0dsUf/tHR08gMB1CxouErcK4kJIQmDCac8W/9wLEMCZxBcSA1jEeDGjxAXwAIAMKXIkyZImT4605cAcypYiLQTpRWDmzHs0bRLASZMAAFm5lO28uVNn0JpFheZEipSo0aNMjypt+hTqvWxVYLgk2Y/Hgaxev5a8UKDAAwUHzkoEEABsSwISz+47kGvsA7Z2744M4GDB1wgdfkENPBMAsxBggj7FOVUw48aBF0d1XJRoBwtr8TqYgHdzSQXZJM6waBHMxdIVTWssfeAZkBcLCUIziDD2wVsLD8Z45ishidgCeytEWPBg74WyX9sOfos4LoK9kyM37rw5deDSBxacTju4b98LEWI33rxeWWMBSM/AmN70ixlgLIYuLf86/nn4oOu7V0+6fQD6Gvmv9csH9RAHXXPGMYfdC6k4UAJDx3nHXHTDdQeddsdV51yBGg6XHXcdWieQcxHOZmF2tkGz3HbP5HIAav1dhM9F6ZEm0T0LsMSZjiNVE8GOACxQRQSSBQXABCHAQKRUkzWlpJNDMakkZAQIc4Ezdh3ggAI/7igWWQoo0M96l/24lkRgHNDPAR2MFQKXb5KUJV9eKZCLBYg5do8wHfD0ZJRQCjaVYk1GqdNiRCEq2DU9cvaAZnDepUAEpsnYX0YUBXANjaGBMSYYmBKQixfVHTTibK995wsHDkr420DJ0TYdcRqKl2KK1nn3W3PJDXTbcwb/vUahQhueuquvv92aHaoJiQBEMgfYclpF+1Va0ZiW1lijpadxZG1q0mI7bQAqKPBMLcEuG16yr/nywbK+lYqiQAYmSy+Fvq6rK7wGmXpsvvsOW2KI6D6oq68fTKNWAJVeg1GnHL3wHqczGOMRpJup4ICPO8olDAB5NiVMEH0mBSihfprsFMqPSTboTAeIo8xdW3V1sV1elnWWi2a+ad5EB5hVwVji2AynXnN6ZYE4jT3lThXMsBw1U1OeTPXJIDvJlDLRbLlZZkWDpUA99cl3n7bgzlfaBhN4kYqHJOAK4ry4eLFIqbd1NxuII0K4678dLvd2sQXqLd3ebyf4tqkU/9Y23EElPKCM2e3tt57EF71HdnrtjWYfaZUCeKZ6mHdbrUQTcDMC4gpNx+8LJSxSC0GEFwd43LenKO+svBl74O7i3Q4eh8hpuPhzGpqYNzSpeKEZaptjDuNGHeUINliM/qg0oC4X1UsVF3yc8spU4cmYy4aWf/XUjf3yADp3Zdm19VnhDOYBDaf1oy1qRXvNAeCsaSwamN+O8OGA9/WFG0n6E1IAcIwgHKBlK+Me+caHtasF5RrrsEyjHkVAlLhjAiqQSKVqFDH4dCtc4rKIAiqQjBfoynYHmiE8vOCLF3TnWAhalmzCY7BiASs2spqQ4azDK+YADFaoShy+WMcvhP+0qx/g+pZ8arSe9YwGNBlJIejQk8UXyGhM/rmIAhwAj3m9q1bCkcEDWBUiJAqOV+D5zm2U5Sp47etCvbPNq2qXRmEdR47A8tAQEbKIFl3EGfspTXw4ci2LfdAletnYjhYQAlk4iTAdcMcFy5cYDDLQT1YTX2DAUCUwzIwrkWxJ/XSWFhUYrT0HgIFc6LJKvKhgHEjLilyOgb7GVKEK4StZotIXKAtKLZSRqeBOerEXHX3tlp2RnHyuOL2FLQxi+QHQBi7gLnX9jnC4qMUiHMSb39mqOgzJVd6MWDje9Kt4ijsVid51ONydSkIHEUEyWjTCy4HmcgCiiGi+Bb3znCn/dDNKzbUclhHSYCoAcgGCCBJSL9kkK3fY0ABsgMg31tkxhzPE0IXQ6bh7Am54grOnH3c1LOQU5AEW2EA1aySjiAW0oOPCkTRRojEuHeACwmDaTgBQBT5FTWXMNKb5QJk1CRb1AA+gJFvi19Ow0MV+OwsAT8oUrUwdYB/9YFMB3HTVr1zjgGAxxjm4ccygyKIDmkHmKD2pVAoq02qQUUxharYZR51VJOiYVPRE48WzIXRMCjVS23Qlr3ct5xYaSAYaZyhIJSpxjrwK0b565djB1TFdxipkunToQ1ipExfkKQFqcAoxxHYKoaA7T3z849pFcktbDUXNBDRQAteANji4/2DebjYrIia6NLSOLeJI9VWwzBayX+EJHA8L5MMUnYhgA/GFF9KhFkVec0Y6jW1HPhJYkWxgJW+aQDW4SiR3BIEZ4RtlXd/6ybeWLL9OVarJlMENv7KFZucNSSvRshZYvkkizkhTLQtAtAG35GhsUUAIlFFXAOSiA4dZatX4m1+q1VdKpMRgL0Iwga56zYOBVYDk+EM5GGkzc+FN6FtERUeVJgsXFgiBDPKJRLipk2AZXVZ2Vxed4dFqeHycpzuX2LqVPgcXIqhFCLbKyPtID0BpK6xpaASgK37uPgTFj34ucoAP+AJdv9vVQWrxARFQt7mDNKJ0+AXZ7KpLIbcrkP+T5Wa47TyxusFRM/A0cAErz0hiMiazRm5UPQj/lEsK6AAzzncyAAijCjIJZV1DvExldpKYkulFECxgDLxYFcL1M0tEUcwZY+yPhEALYAEGCGGUZMkdbAmA0lApaqXIIgTZGOZeQ53UJxUbmTsJADPEcY0dAXbAvyBs2WLUZc497GHSC8AG6vGBVGDXyeKxzSyS4YzjhpSOsILOcogs0tpo517c8RcgTWXcIc+Qca/SG3FeIANxUPtTZDuhw2hcrUtheSJTLKhOT2PFLVYuIxb4AKtuVTzxMK8W8OSV8ugdbiCCZ476UjeyCElHwV3UsvKGLg+pA5t28WUjsy1NpaD/py1IQtgYkS7TBB6w4ca4QxzynaD6lqTspoo4MvdgxgMAHGBVqjqrrjzwm77qPwDOhSy3RkkA+LBLrxyAG9kYZQdy8fMRgxrtHv5lBQ8lPraXDAAw4IaKUwxhsUkEfyTsFuVSGN6MqAAcNg7yg0o18VTgEKQditWw4u0r69qxb+PGsZ+nUzgloxR4t1oyNCoQgtZaE8sKRSjpHUp6geYnP6DLD7jQg5oDTBa1GFJQMjQA54+3c8l0JuQRP+odWYUbXiLnY/Afi2QE5RNE4TTOBywQUdPtnT2MVgFPb70B7AE1BJV2TDCvwVT9evqpSynUfstfFAD0wgsW4EyqB7xq/wNzlUsEUEFEZjBLWpt16yUBgwN0vWulbVr6AEA2xMwwcZh+ISD5fd8BHtv4BIAwhMAG/Ei0nZekiJe2lJDDYUS1YJGM1AgARIAD1IO+yAtB4EIJzMI0zM5FcQi7tQ47pdF1+cusTAjjwVSdKV+/WNYfwREutEs6vIjpFdwY1VZG1NZGXMsidYsJhYYH0gdHaMvhwZCQfYcMoBkMZRYfocvsaFetIF+CXNxwfIcQ/ZGsDF+6dBRn8WCw3EIyfAA6uIVB4RQJadHZRAz1UdV5ZUwe6kgA9FwANolN9AQ3yEwDLiBR/VraddqnMZBN3MMxiAOZpJLTnVWB7QwAINiOSP9gRYRVgz2Y/pFEAGTA13nFNZTd2XUPN2DAWjAiVCXgIS4ikdyXABLAMTwAKWJG3V2VAkzA81TTfYSOImURlt3DDEzDtyVEcohhQTyDFzgIDP6Y36zOdCnfoK3ZGxFRkfELdekg3pCUconUgnxALpSGoiWczb1FwaFQ6fUd2YyO6O2WRmyOewRjM6oOgsDLC4hACCyC48ER8tHZC6KTnSmH3ghfNc7Z76HcSxkZNUbZLchAZtAcjSWhI72jMchCCegf9nFJAKxDB3hfYJTYBZzdlNCX+R3i0SngURDGAwwb+2nJrb3fVrnaZhgDTb0Fg5GVrYHiSDiDA/wCXiiATN3/w8cQBQC4QwhoGn69okqupFOdJNoFAAY4gHxxCQWuWC9WxE2Jzn8EoRZd0wvcwwF4gReMQOIBB7M8wwO4zbxY3sAoB6HlGWRJV648VonMW1yOnGWJVKwcS0Kkwgd4wQGM0OhsUTr63QWaRkSJFzatEIx95RweZgDYAoV1QOPgDS6MgBeEQMWxnMA4V63QDuGtSw5ZSKDNEPA9l7hRR5wBzEH6IB8Iw4s8IVgi1EPdR/VB2CRdDAw8wAUU5fnBQAgEAVYw4HEaHdEhHVMyBtOtn44IWNR9ydRhotGcx6xlXV30ZF48E15EwANggK8NBgH8AjdYg3GmncnoFTOFn9K1/6JgAAAY+MI4UACcRFMFEtbZzKPrhVmm0Ji1OWZlhkAHmNNBJEQJJMMDkIGINF4gzeUL3ljyAc9ohpM2OiRsBBrmBVJByoZABKYX7EP0iM6LAShB0SNqRJRAoUbluOPl7EzNIaG2EMB3PkNFMcSBhsADnBESGVcfSRfeGMiv8F6wfFxmgmEgLREO5ouE2BmP1lFzsFGVxShuuqOlrAemWMSNmNet7RycLIA4CMOz0cTHLEAQcIOuKafaIVsr4tWvgdiYggF75cKPtN951U9cyKj+KMzPhFUVtMl2jkSWIBBeWAAPYEAvHMY19IIyECcqfQxI9MmjRuqkSmqlUuqlWv9qpmLqpmpqp3Jqn9xDL/zCBTyAVb4JVp7VtCnmZK6j9GCKtgVhGT0DuN2CCPAD8/iWCsAQDCVEQvBqr/Yqr/7qrgKrrxprsSJrsf4qLixrsDrrsTJrsiZrsx5oCbTLM2xJIilYtZXj81hEBm7LmXDKtmCRuCbmf0DfRRhDoVbBCPQDNIhACchACHzACBjDtOJrtEqrskJrv/prvj5rwP4rsFJrtJJACaRCLTxAMoABThKhffydtpAG9T3aeaVXxa6XA0AAohKAojKqODiqSHyqp5LsyJpsyaLsyYbqL2DAAyTMj0Sn+9EFDKgJplTnjxSlCrzH/WXdJwKqWnTnZnz/ZwjUgzIEQQbwgDC4Qy8wbS/AwNNCLQw4bdRSrdRC7dRWbdRiLdVi7dZm7ddebdhOrdeC7dP2AjNUgQN0AC5Cky72FN5RER2248At1DAiWgBM2gPUQj3UAg/MgwZMwAiUQLyWQOGiQwmgg+AeLuIWLuIKruEaruJCbuQy7uFabuVi7uQmLuZuruNSrudC7uKKLuOSLuKmwjM4gEwR5qL94uWgnsQMI7film0x0hL2XX6cDaZgyj3AA71agAx4gQPwAAekgghcrug+Lulubuceb+h6bud+buMubuk27uA+L+haruRir/Ra7/JSLjqQwVpWWNlUzqJlhAfCo43gHKTx/+GbmIM4iEM2REAVIG0u/ALTlm3+Wq3W7q/++m/Xlq3Teu3YWi3Ziq0yVMEDhIB3AVVMSmdZmAVNJpisxcVO/mxIGJD/sd8EBIHwNgEPZIADZMAIj7AIh/AJn7AIqzAJlzAJm7AJo7ALt/ALo/AK2/AM13AOszAN3/ANh7CQwEAmwgmq7iI11WE8liP0GGG3INoB1EMHeDAP8IADiDAfOIAV80EG8ME4jDAWt/AWkzAWgzELh/E4PEAXa3EaZ/Eaa/EVX3EXc3Eaa3EcZwAdnzAYVzELW7Eav/EdO8oCIFq2wQiLfssc1u55YErNtSodHlZjoo30SKxpKIAFQDEPfP+wFY8DH2QxGXMxDHNyGJOxHI9xHMPwCrcxGdvwA2QxF29yHK+xHdfxDrPxKp9yCweBBADylVVbpZgOlo4o9WydzrXvm7zABFSyJY8DD7dwCutwDDOzDPdwM5fyMj8zDT8zDjszNntyCAfBBLgInMSsndKFWBnYzWoiAETLCzBYdl4wSIgi27LFPSzYWfiP1PaDPatJP+gzzepzP/szg/VzmuSzPgt0Pgt0QQ/0PfvzQhM0QyM0P/dDL+QzRDN0RasJPpxa0dznio3N3GrE2eBDq6JvQilWQwFNmKD0LyiAO7C0O6w0mKDDS7s0TNO0TNN0TCsATktKPSyATbv0T/v/NDrMdE3rNE7HtFG79FG/NE67Q0wD9UzrtIsUZtk0UhVJz5hQROaMXpX+Z7h+dOfQ47VsGWNS5gvsQ5jsAwzQNFTfdE679VsrNVGDCVvHNU6rNFMb9U3DADwwwwLU9Vu3tVvn9U+ztFs3tQKodFPvg95tBETRoWmwbpgBiJZu3fUNM5zQ8wG8QENTdEIH9GeD9j9btGg3dGmT9kIf9ELTkmjz8/2dNkDDgDMUJaTUaWDN5EXUJF7cZIzMGlnl38++wDgMajsTt/4RcU/9wwR8FVg+zLh+JX1sTrYU3EUAQEZfxqkZAwFk96kF53bPH0/MNncDQFFmN0jMdnUTwAJE/0BXeHd7a/d7f0x2qwB8g/d4g8Sp1Xd+23d8P2pR+rd9f7fPyNyKPqwQLtRthst6bFW5miu5tlYJHdRj4zasYXd9d7cEWiqs8fejsqJaxDd8b3h3Q2p588RlBCdI9MMELEBXgfh/d1V4f8x82zd580R5h4R/T/V0d6W2XvW5AvOt7WFxC/kFh7Ntz6yaXKIQ78iZdGLPEreEDXmUB9ZGn5UFdjXf7edDnS9DvaPCTWS3RmY8pquWrQcvWoACfOWVnStj3m6ayxgSb7WItgf+DCNXup5+NJwdxu0JsV5iIhxiaTliBeFunajChc5AvciXARQjod65qgAMWIAFLIB9bP91CiExajA2bRrmlZIewb0uf1TMlkIYR0p5qQdWbVdiVsWFBGuigC+YmlhwO2dJUJp6rX/QcUuTqh5xt0T3VibcL5+GYtmhImNLEe6HY7/IwZkQPkRApP9CYTbhrptrI0u4fNxUxGXZdBuyw8SHwKlQuPqHCdkmbbXquG7OmJs7Tk1M7cLqFVmEpqg7xHC7Tjk3mBtyinLLgHuliDa4RkyyBUyAO1j1ugsyxDV2tH97I7+Wjl91opeGbg4Yb9r6xN9Skaf6dN7PK3HJBszfdZoFO7fzPXjDcFN8yXMJle/i2FBRjQhjZLojiZaQRZLoVzscrzOS3lnZnQcAOkxApC//QJWa7zU9YUO57i8i+IsV4Xqkqzs2VEiPaJaT9BdR5Efj+bXQblhOT6H7HVhLtrVZOv5EVEXup9lET1hbi2NT6QFEOsC7gxEW8n/QCDa1ebXNI9wHVMK142Rm9cyv74B1qckDPm07sMx+SQRLhIz/CCwp2Fmog28Td1rReuBLPl7g+i2x2GKOe3NfYHwc3C4/shiJax3+x+wacm2iiTKs/Xp32bZSuyHjFJsXu9B3upzn7rgblrem+bXBKtVX27YLcroDurR/e9xKbBG+3kfDvnoUlPE3duv5x78zA8D3grisu9FjPW1Jy7FPD8Nt22gAfzW9gC1AvMWq1+Sb/45Y//xVWaJEzN8Eg9XHD82TB+35039LoPzbqrxj8j7Ns24QZvW2AUSAAGBezBj4IoAzgQgDIGQoEN9CgwQlNjxoUOACCRY21tsnMAA+h2AEznhYEGTEABglUgTJcAZFlCtBKpT40GXDmCV1DrS406bNiCgfggz5kuVOjDaLImSpk+DEogd5zlwZtSdCki9ICnTW1WhPiEbBbiUrFiPMABsUWODotl6vsAtTvrwokORQqBWvluy60yLPuXwFEigBD0BixYsZN3b8GHJjBxEiV7Z8GXNmzZs5d/Z8+YADBZ9JN75QoMADBQoOHBCogkDpxARgqwjZul8H1Bpk944c+p9v4f/DiRc3/mCC8c3olM0Fg9Hkc5AmB1JfyTX69JHU0+LFa13l9blPG0o3Cm6C240TFIQFW57mTbrYuRql/nzqyKLh8fM0z7A+pwIE6T3v6rMOwZdkgk+w7CzqL6yknKLrpfAW+kuwFyw86rqt3itIwO9CnO8/i9pKz4JzLIjAtYVUglAw7QYD0S4aARTRLA1dVLA8FWQpQTnOjJksyCKNPBJJxfrh4YAkKzstNdZaK0wF4WwB6QAFwMkFtQec9CyADBb4kswyzWTMgeTOVEyBeoxiKrDAYGIoJ760upAu6CgES6SwVHJohmvie+iaEjbaiBkLFjDQIKvKw8mvwfqkqyv/lEhiacMHa8Rrppjye+ortOik89EGW9KvLk0hcoiqVi96z6ZBLZoqIU7H26tV6yiCrlICA7ClLY4kkCBRc8ay61VA68TqPazIKigqACdK9ViajFnAnDUZ26AayrT9FtwjQxsNXChVkxIk4Yy5MoDWWtOtgBDCjWyGDNCZF998OUMO3H+aY7BaPd+7zzo8uStpwJ8QPstBnxwOLDwFEj10oxKmw1NH/6ybUzwCQfWJxrDo+0srCSlcWKpaRY7wzgRHGsy8jsXTdeY5IZxqwerGKjDG7O4M0ayOuXpoooKDPfQtdMAiL7CgVdo4u4IFLXgwsaoueAFvwVWBSH29/jqz/yWbLLdLKVsEIIDeNkjMqywP4LIAccBWLAAHxpwb76/TBLfNDFnykFU5aXro6bmKigpwTrsbvNG0AMMSHvXeWtG1wI0iSs6UXXIW0KqTfapRuyb1KXRbfVU8WRntupQvOEcH686qRzdKpdGBOtkrxFkVdCZHK3IJMJYsF6gtpDdKER0FifJUT9Mf1tVRxxUPGipLi8IW327z3j7vccM1d7V+WBIubbwO2OcAeHnD+xoHfuEefnD5/VaBCXgsL0EOI+oVv17pq25EgUkK7SiVuTwxxB0Te8tGlOEa1nWILH+LkcywYzCEhIdqNwKge6hTMuzYRmaxysrCUtWfn/FMRP8Q5I4Hy4Kgw1HNYwG0SKYy9j/7UGgkCrlUBQNwNGENKwLt4RCeNnWwkBUlLR4ST8hKKLiHLQAx4aqb1uJXRXCJ7Xtlc5dAAFAl39TkADB4W5fyVre7WRGNSdob/SJwOeHJSmSPs8tOTvK8amFuWQR0lU8OEAG3LNAtE0jehU7yxhFCSy2De9jhRjU9GnXlT3WpY5+chSvnIJFUKmsc55AVxzjtCVJh0SEeCeQ75qHwLk27WNUY4kMJTGABB7hGqNCiE5h8yGFSoWMtQ+kVpEzoKDNRAfbm1bU0HpNM3iNblNBVGN+s6x4DcQb64CUvvDljHPdC5jaPoyZt/aKNx+L/YX04VLCQ+Sw+LiSiQASFvwvWRGZVCc8LerEPBUCxHhNIlKJWGbOMwQiUAFvhDtP5zqsRbTAwvFyvGqKSFk0ETvFsyirLWR9a/s9k/VEo1fJXwYlyyCaNIlmHOAbDYNUjAhOQAAxA6CtylvJBDhpe7EoFuyF2BXYF4sowqaitDTggW9wUapGwuEzVbDFtXpTN2tomRrjJDW9mHOpUZbNGbSkgG+45GU4YsiHbwTSY3uEL0/aIupcaJZovuEZrFICOBQhRPpmMU6j+NMAH1TFHhmtcnGRyypblcmrVkyPuHnaXvKiFIrGqE8y0wjGk6M6sIHPYnWJFVmn9zC8nHCIM/4LYmmxYAK69c9yuSEgTXVYlePC86fIQmkoA/AhfxqTqbGWjzG+BjzXtDEBselO+dh2gH+nbTfccoE3aHhcz89PWP8Kpuv4VLKdn0WBhVRKrAakzieb8T6bWEgDbgMEmut0gdV50K/gAMz4YJN3IiKhRyRrOlgtN6IF8SUJDblCuK0QYhJpHTpl6zoYHc89DWoRTX/23tHRxhm4XQDkDVUhk1BsewOJ7lhvuZ1bCI8kCzvitIfUUuSHGTFFvq8UpJZV8WNIS3LwUVbuJGMaPseqawJkSotHKJKHba1aYZ7W5DMVTztsVhnHHJ3coLULiLKxqVfazJDa2ItMdK+5Gtf9XaNEukb1THlj7VGU/9WSxk5roy+Zo47Fc2cxUQSR0xAsiKyOlKoMabAD2oVIYPGuwy3PYi9bMZEku5WTNWp13D7CA94WLWyCO8aIZY1ttgQ99LYKNb2rzW+BWM2/4cIA7GN1p5a6pj/0YsOpOolP+yLeG3EWZVhNctBEd4JUtIqzjzrrfFF4IOjRlbwZJm5AHJvFyYg0rhPm7wQhmSNh8EXSuf23rTw7xJ1O5Dw7t81JyBnBoIEPlQpThi0HGR4C1lhkMra3EPaWqsnTCWhvnxTVFd5rRJH50l2AQ3BbRxjexMR9rnlpGMcF70TM+UwAWwB6jtNRztkB4YUBim5b/2oZdAom45+ay8LDYxhhzgfUEmkTxi88lmiBUgcUd/ivvHvw1VbP4yQWS8ZQPBoTRnIvCvTvxkcP85Q33HMJJvvPB0BzlP0/5xD+uc6NEHOgip7gt0MEMFim94kU/etSpHnSPvzxL7MnXiwHe9bqRq8TMPPGkZVMlMB4AHOrL2wuy2XUYf3pN15hABH6xmtWow+4w2AcM7N53v/+973gP3931Xvi9H97wegd84vfu937YXSOwDLzj8954wAteAXxXAOY1X3i7C57xmuc84kn/eb9j/u6p/zzfNb8az/+98a0HvN0fP/vEu570r/+77PEeesRPvu+6x3zv/y541B9+/zWILzgse3F61y+e8s5X/eaB3/csRV8Bls8a2MNFAD4II2vmgIc5IhAB8pcf/elX//rZ3373vx/+8W8/h+Vff/vfH//nF7/4JdCEsYX9ASLt3pSqtwJgrfiNjFysw9yOtgTuquAhAupBGfJJGbIhAusBAydQA+du7iyQAyPAA0EwpSxQAjsQA08QBVPwBEOQBFUwn1JqBFMqPSaABkVwAljwA0/wA3GQBDmwBy8QA22wBVFw7ihwCFUwG+rBA0NQCWFQAl8wCTdQB0UQBVkQCKEQBq2wBDswC6/wCFOQC8OQCpXhBl0QBbOwBKkQA4swG8gQBNcwAjUwGyagArlwBf+vsB4ShQbD8AlRSgvDUAyV0A3nMAbZcBBlsAsJsQibMJa8pgMcABIjsRok0QEm0RIrERMvURMzkRM30RM7ERQ/URRDMRN5oAAocRRTkRRVkRVXkRMxkRIf4P/mLUrESNbyraVmIIyEK16I69COi4sADu7AxRgAYG26CG0SYwM2wBjWhhkBQN+MEQCK0RaM0RgI4Bk3oDYA4B6cMTGqMTEIMDacsRjThhnBEd8S4x6gcRmLsX4i4AWwcdJgoxjXZh3XRTHWURtjQx+TkRutUR2l0Rxh4xwZ4xqZcRmVqhgJoBmRkRmx8SDN7h+nEQCq8RnrURolsiKlEd/GMTHw8SD/n7Eaq9GLygcaqwQcNZIii5Ei06YaOxIlKfIYeYsiNzIiKZIkPVIfy1Ea/3FtvKgk/bEdPXID0GFF7hEckdEiJy1twhEa2aaLxrFK8NEnb7JKOnIiCfIh8XFtWNJraIMhtVEb0cbhaE4FzBIty1Ita24tz7It05It49It5RIu59IuvUsYOuAaS44vT64v/9IvAxMwB1MwCxMwu0gFmNEt88Vc9iG42skfv6ghzmeM4qaMuI62COAC3k3EHJABxcXpmvIzR5NMCI77SBM1ZeMCOiA1kwS3DiBWyIcABAI3eHF95gY4kGsBHKADrkEYvak1lYMtJMBYgtM4lUM0j1M5/zHjAqJhOZXDXOrtxCKz7PatMltsbsJkAafqNHiAM5HLM5+zNNpiUcTTPM8TPX3jArwgPdWzbJopOUujGtvmfKoANawpOzPgNIdKBR4ANYBz0YaxPTfDGP6BnwYUQRNUQRPjAoJgQT2jMe2Ni+KTNEAIDNym36KKBx4gGkLAQz8URENUREeUREvURE/0RDvAFE+xA1DURV8URmMURoPACwoAQB8UNOphP3GUR3v0M9fTRzPjNcNDOO6BNhLCXdQOb4xhAi4gFy4AAqJUSqeUSqvUSq8US7NUS61UGKIUNb70Abp0S8eUTMvUTKs0GboUStM0TS1gFoMUMtqFQuGUTv/rlLaa004jIzqRijpLYwNoE0MTME8vwz+/1AIGFVETlbaCUVFj7ALws1EBANJObE47o9JokzUwLVIdYwJW9D7VYVNDVVRx861GFbnwNFTB5zEndDgAFRwqE6pMNQAK9UsLAANMFVdzdU3UAQPYTVeH6lFF9TVvsTdoQ+YuVIyU1FQP4AGalQcc4AEcYBp+lVqrNUgOgAbf1FqtCFU3FXz4tFLBBEnRh8V01SIeAANUAAy2lV3blTQITlHcFY2CNVXfEzbTRW3WhZ2AixchNVcFVF6R6U8JMGBDrC2y4RgLdnvo1VtN7GzCdTPmcyXcpgJQI1Z19QEOVWGFKgAiQBb/IHZjt+kazoHjQjZvGDZShxVfJXMyM3W4qBVgTRZ+sFUCXkBmF9UcLAAdaPJmGdNfFfVbpxNkMYMlAbU1yhVmNbZnrSgA0kNblxaZ9mFFhhZqvwRlG3VIV9ZP/9Q6NfVXY7ZqwcZpw1aoXoAZSpZsy+VnEzVoH/aZ0GZcYbVawTZt88WPdrRu4ccWSsACwCFvH+1isdZeibU3JHat3uVlv/ZG/zZf7oFvOY1xrYgAsoRqI7c4rhZoHZZVKa0kwmhLBBVjldZy9cUdDnR0T9c8LyBwM1fsdCvfNkDmnAG4cuM+53ZxUXdNCKDpyhN3e9c4MZdtNdckZaNoDTBQLRNm/2/Xd8sEW1lkeZ+XNIEXUXFLfLSWNBKyc6kpcTFWeaE3SbA1q7xXfAFOege1bTeXeGdzMp0KdHOVG85hfM+ELdojfusXxixgdYNX7Ah3qUCoNr02V23hAbLBfsuEYAsYXBgVgSF0badXeJEx3/btc5H3V993gS/Y68rvaTHYMso3T1XWmcruSJEUcQvgNnM1ALihezmYhYfqHsa2hYW0gc33gQ/4XQfieLGTe2OYh48rZ3m3hyPjGGb4g+01Vnj2hm1Ddvsh7Wr3VwMgBFY4iKeYe96xcmNYG4jYTs8XxVLsQhGQgjGWGai4OBSYjJEzPWDgjB1jiIXVXnULiT0DLP/bphdsk1pntR7W+Ive6or1mDP8yLj8GACmQYvrlIshuDf8N4erVRykWJArA1vR9pGHo+l8VZAtoJDpFIR364vUt120txefmG4nOTI6FrRIeTgieYOp2IO3uIZb9bfYN4xx1Rg+wJFR2TEU4AIWYB1xuTci4ALwloqZIQSSUnDFLjzi2FJH+AUoU1lR+AG+05cfo34keZo/4xe07pGz2I2jhE9t+DMggl+RVnGvWTPu4W7NmTQIQCEmGZONmXVVo45tguxKY45xGJQzOVFnVRnUOTN0WZr9WaATA5O7WTXQpyuU+YaXWG6fWANu2Z8jWY0HmqId453rNUoktItF+Lv/nHl7cRWPK7qUG2w7RXqgMVmhizhK5tl6ZaNtgoucUTiKTRoy2iKgaRqXibmPeRSE67k0fOtC8/mOH6CfcboxemiVjdqXLSAaEvaYA7A12imlxZWhM9RcG1mps5ozfmunERiTu/pBVfUAVAKRfxpug9qOn/gD8lir2/oyXkAZLPmMmRqc85TFbNEm4NmlJ/No21dWZ9qtAxsyZiAPhZmHdTpU4SYE+gGh16KXC1df8cFdWAys4ZRZb1qwlfpa4lWPLYADKjtBFaBQc0FKbOIjrYQ2g8sCTBEzQRqwM7tP3VoBfEGuqfgcQgC0EXS1C2AcQItSqVI2JPa30MMBUCMX/34VH15bsA8AHZIapyPZN9cYsRtVtFHjA9DhVe/NqYkXbtuF7+BGtkY1ALAatuunOTK7Y5khONZ4AnC7UQMgF+ahAJqAAvZOll5ju+UTbt2lHyyAD8omVw9AAzBbpJvWdAPbKAl8gZk6t9EzAKAkXhbAFjGiJmH5t/BOGL7UASygwRUUiiFapE/EuU36AKaWvUNgBhJVAVQUNTacsVuDITaSfLpbdustHYLgS3kgF5w3VKFYwUU6wdG7Ajv8eSdAL/MUXml1w8NH1tKxjAF1NSIAXlo8BCogF64cy7Ncy7ecy7vcy78czMNczMeczMW8CsYhBMpczdeczdvczd8czv/jXM7nXMs7wALSg87zXM/3nM/73M/h/AKs/M8HndAL3dDbXAPGQdAPndEbHcs7gFZPcZdXAza7wqc7WZGvrwSqgB1q1dM/HdRDXdRHndRL3dRPHdVTXdVXndVb3dVfHdZjXdZnndY/PQSYIRk8tdZ3ndd73dd/HdhJfRsyINiL3diPHdmTXdmXfdZ5IIrvLqq9i7fq+jNgA0vYajUsANJ1ndm73du/HdzDXdzHvQMmoGLHHd3TXd3Xnd3b3d3fHd5XfR7QnAKCiMmJlMgfw7d+q+8KjgIgvVkDXuAHnuAL3uAPHuETXuEXnuEbvuG3AVodXuInnuIr3uIvHuMzXuP/N57gc2ECMADgOV7kR57kS97kT37iPwDlV57lW97lL/4DvKEJXp7ma57g09wC4MH6KPUZi0R9EcJd7A4d3OGtFuAfFoDoOUzpl57pm97pnx7qo17qp57qq97qoT4CHiCYr57ru97rvx7sw17sx57sy97pa9Ds017t157t297t3x7u417u557ul14BKGDA617v9f7o7+kffmHoKZ1Sk1GvewsZTQ68LvT6FODIkn7vHx/y3Srrtx7yK9/yLx/zkT7zN5/zO5/u3crzQ1/0414BckEc6A70R1/1lf7oOeye+s7eZM0ck2SELe0Amm/2VuMfdJ/3FWD3fb/3f1/4g5/4/4Hf+If/+Isf+Zdf+Zs/+Z+f+Z/fHdyhBLS+F9Bh97Mf+LWf+7ff+7sf/L9f/MOf/Mff/Msf/c9f/dOf/dff/dsf/t/f/IceHRj/H9zh9eNf/+V///uf//8fIP4pEEhwoMGCCA8qTMhwocOGEB9KjEhRAToFChZU3DixI8ePHkOCHCmyJEmS6A5c0BABozuTME/GnCkzIcYFGHNi7HWg54EAQAMAsGUMgNGjSJMqXcpUqAoCKoI689lTAYx9MHRq3cq1q9evYMOKHUuWLIwFDywcKMu2rdu3cOPKnUu3rrq6ePPq3cu3r9+tC17+HUy4sGG2KkPgPMy4cc4D+6iCCf8q1Jgtppgzaz5KYCjln1T7UR1NurTp06hTq17NurXrA+i4WQjwurbt27hz697Nu7drnr6DCx9OvLhx4RmZlYBxvLnz59BfBzimOLr166Sv/XQW9KnQzeDDG1UB4KllykBf4KM9Fbv76+rdcZtA+739+/jzm9bu89c+/voFKOCAt9G2gAURHNAegQw2WFwAFoTgjoMUkgaGMxeC8cIM6AXwFHlDiSdiZp0BsAEAnQU1WYcstujiizDGKOOMNNbo4ooKiDMBADb26OOPQAYp5JBEFmnkPftMUI8CRjbp5JNQRilljf1IwEwvU2ap5ZZc2ggAMyEw2eWYXXLXIo9oojj/4pqZkfchVLZEReacdFImpwIa7Fjnnnz26aeM10xgQT0//WnooYgGeYCg+9yT6KOQTgmABRyIGemlMVpmTIlGncjmp+F9d89QxgSwwT1EmYpqqaem2iqrq6rqaqyvygrrrLjeqqutvNbqK63A5torsN4BcEAIO5YKgKPLCsXss85G2+y00FIrbbXYXquttdxm2+223oYL7rjfliuuueSeq266RLX74QYHRGDBBAeMGsA9KtyDr7757utvvwDzK/C/AwdM8MEGJ1zwwggzrHDDED8sscMUR1zxxBYTHECpQgUAjwS/CGXLqiO3S/LJJqdsGcorq1xyyzC/LDPLM7tM//PNNuccM84761xzz0D/PHPHUAEwQQcKGNXxr8IyvavTwzYd7NNTR0211KlCpfWbIF52Ioighs2UZcsaVTQBxpyYdohFsW3UZW3D/TYAcdM9d914362323zL3bfdf+cd+N5+X2Y2iAqEEAGKG6zt6XddK92p5OXNnebj41n+HeaVh3g55ZF/nmbom4Ou+eSjn26i6Z6XnnrrqEOuOuekx5457Ku/brjrsuPO+WW7H7UoggdwllSJnJqtPFLIH7+88Woy//zyyUdfffPSRw/99dNb77z21H/PPfjeZz/++eKnn73hPCogATyVWe75/OzXf5T98uNP//3859///v4LIP8AB6i/Av7PgAJEIAEPeBSheGoCISieqP43vwqyz4JIuaAGM8hBCm7Qgx2UHwb/d6LGsa9tKEKh2Fa4Jk95KoQjFOEHZQjDGcbwhjbMYQ1hCDZjhUAZR3lhD8l3lCFWr4jfU4oRmbLEpTRRiUlMyhOlGEWkTNGKVURi9qC4RSp2EYtf1OJm4kW8pHhtdZ46YwnntsY0ojF3aoTjG93YRja+MUR1xOMd40jHPc7RjmvUYyD5CEg55pGQgjSkHw/5x0Qm5QASmMALiGgUFFryKJesJCY3qclOAu6TmQQlJ0XpyVCacpSnLCUqV6nKVpLylaFcytGS5kUUga1oh+PMLXf/qcte5vKXtvRlMIGJy2Eas5jIBJvaXsg/F7LwmdCMpjSnSU2jHGtx1cymNrfJzW5605rZQNB3vknOcprznOIJgKCKh852uvOd4TkaO+FJz3ra8574ZNM188nPfvoTmvHCwALG+c+CGtSc8nLHQRfKUM3MsqEQjahEF6qOH070ohg956IWkNGOelQpxlDABGj50ZK682jqMKlKV8rS8OyzpTCNqUxnGlGg0PSmz3woTnfK04ImDps9DapQh0rUohpVbEfrx1GXytRpvrSpUI2qVKdK1YJGAGlVzapWj1JRoG71q2ANq1jHihSdkvWsQe2F4tDKUJv6syc0pQ1B2UpX/6pelaR1zWtLYRACWej1nLTZTAAigA4WLuACFxjpURIkvAlcQC3gWVQHdgSqADBpRAdYwD6Wsg9mJMMCJM3sdwJw2AvgFTMeE8YF5vkpBbmUoyMyEGv/SttqZgOrtc1tR58aVcuOcy2zZQpwM+PWyi7gJ5kxxjEm0JK5NtCtlg2uAh5QgNWaDVkNvAAPIDtGCfDgAmEj7XFR9IJ9ODcpzriAORooPGEUIExKO9po0fKA02LGHA6ogjNABS9zKMO+ShlsLkZb3MwMb4wARuc+xisi3+p2ond9sIQl+lOqkhaohw0ue60ZAa8iZbATUCptLquZCyuVRwuALWpzMS+/Yv/mACVQaADQMQEwKGUCDpgnPJpwAU4twAsiKkEHPLymC1tWAdnQcFKOQYGf4AQp6HAAZY31gAf89gJERi2yLigiY8xAAQeYRjbAEwEsH8AY6hhoZjUcAO4AwB25YBIzHxkBc8wZnRiI4IgWoNgJN9Ssfg70Pw8QhCwzVaQ8ErChjUXiX0w5KQq4QBVkHGklG+UmHVDMUVJ83rW4YwK5WLTSFMBio4CBAptNCo5VrN0OsFOdPRYPMzrwixUqQBgRoM8/LH3kZMT5QHg9gAPAa5QFZIAHJHWspZPiZQeIejP9IE89mNGT8xqrHzCYgEBt8QJm5LoKWb5HOszhPg6MVIX/StnHZC+CEWtzM9NH1MyBBirog0a43vjOJ56eXVRzzCYAju6AigN8AY6Slkkw2FgD4wXUAMQZtRFghgQsoFDQPDnAB7pACMBhrEkyRQERkAU792GBpUTgAdg8gDA6IPBLP5xHayFxtR18gVzMAAD9YHDMOwbXao+nPhHIxQXc3dhcTGADgx04j6pB7ANYwAIZgMdRSm3Ndo9aKHBVgAOSRtpXY4SdM0eu0rAUgAskI9cM/rACLFDzc9iL7R0+8XMzbgGhF1hpQFnLgaowrwkw9wWc2jmP0NGLUbNTBTFHSmbHGwDRKK0fow1BLjbgqZi/uufIFWkErpHvf942wZ0P/305wZGL9UqVNhagQNIWUA96jQqLo5pAYfl8gHqAln0/Eenrf8HYNlnA4B0erNgDvKifWOAYSh5xCX7SkhcMHwALmA/dLGAOeDyAsiWowHgO1AGUAwWCCyhBfQHQgWQY4wC5eABHr1FmKYeU5QHwhavNJtLfL6pjm4lAOl4wAQkwp4fikAtGUWbHMnTGUnCXJgEX8ABDpwJooRbPAF4REEEQMmwopnEDBiFesADKoGnCowBgwgwqAAaC4lykxXbWdWsZoXQAAHIU0AH14DGGBnLwwAzEM1/HAFS1t4DZoAKy8ABhsgH1gHLLog71EAQSUh5O1wEOMBsLIHlGUVEcZf8LJSAOlbJfw/MAD6cA8HcBHYB1frdsotdO9zaGZlhODgZVQLEAyXAM+wUhEBBqGAcUCUIAEVJwG9BDKRYvA1V2qZYZgsJYB8J/lrYoGcFc8xJgpJULoQYG++ALvcAM08BaT8gMxpILP8GAPDIBlmg0ahEAmYYRF+AA6ZBpxSMOajEvoJEMTCIOwqAOR6M4QXABYOMTqMcjvaeIX3IBwsBiCGJjRxECHbAB3TZQGmdjficUESAMPzEByCZS4kABEKQMEIKJ89KHyWgBD5BmHbAOFvAMuYAPDbQARlcP/2AUnTVEABB0KfaJtmB79JYUAdALfMZcE2B6SkFj/YBu8ZL/WKmmAMmAJQy4FhHCihfADMrIDC8wgTviDlXAJBOAExcgDsQWAdxQPDCQfpM1j7mwABuwAFImWYrTAQa4jqB1hve0Zii5kmd4DxGQYtTYggsgL7loauvQEwNFYyDHgr9QcORoLB1gDuj2SN4mDCXnDvVAgmx2WKA1UjO5X8IzWBbwC+dAH93WAaBVYFw4DeoUAeTRAV4QAO4AWQfwAKZ3DOq3jjyQDftgY1zYkQpwItMxdMdCH73ghfQxWuSxKALVErw3Wx1TfxOQDNQGFCqgQh3AAQGQDgZYDxmwWXKoEgJoLDwQAZZVBQLnIQ73WPEIQRxid2U3WSRmLIf1DzMJ/3b0QnyR5nemVWYnuRROF2LmwIJGIQsTkDxTAWbQdQHHEAAVNQHkYQsWUA0TMANFcQCT9SVeAAYHUAXncGnFEwFesDhlh4lGYQGZGQDMEJZGoYXGsnJ5uWkIyJLkWZ7mSU73AknFsyhCV5MAkF7xYmdBkWJK8Q8TkA2JFQDnEH7KYGkSUFiDAn0DlZry2IIFt4YXUGvjaH/amQwTEmNLohTIiYnWCQAaB3LgZQzM4A3sNA0dUHjM4AAqdlUZUJL78ADZQJOjkjhfiBQLYJsvSS/XoA3cpTSZZQEScFzsx2L1kFJKkQsC53eX5mwwcJITWHI4lwEcZQ4fcAGGU5bd9/9qQLp29GEU3aeg2bU4EmCU69dnSFF/x4URgbIAYPCSsImXhMUUtneAtwkhpzVd9RAB23YUE+ANyTZZjAIAJZBjqhYESVOWR2cUF/AMQrEPXmCAAfAA2tCCwjhX80Z05xmpkjqpIsJ2UeFtoaYAnPdhv4cBWLZ+7img6aAWa7eGXopJC7AO92mZKvALEBlcI5aEbzYoCgCMMCcUJdASghIyLzlXYJAMKDcBhhMB4oABucYjFKAB7JQLhBoAFGBlR4EBmdZy0McH9AIDm0aR8jgv7GcBG9APVTAB6OYMiyEUpEYvnLgU2tABLDZa3HABFAA/RkOKRvEL4zcBRDikFuD/AEDUgiynm0chDh0wRGUHecclLxvipVIJDzDgDDBwrAqgDUrFeiZoARVQD+agUAHGXDwybcYQdKdVAjwwATyRFOaQAdhqFLmgOOCwqedQDZt6FBfwAUaxakfRAVWgr0qjARIAfWmRbt4GqZQ6tERLqRhKWYJidIh1DklmTViJIBlRZo92FCWAE+iAD68JfcxwWrZgEQsQDYtTNOp0WuaKWCmLDszArNowcARwANTmtjFWdyaoXQMmPCEwskKBD+z6HSRpLBGIFCS5AH1rNOOHFBLwAMFVD9rwkgfQDwhSpcwDNgpQAVUKD1NrFIe7VkqzsvBlodVQPBswAc/AeRVQ/wXjdHKklgzKuJGKd30B9onRORvFZxT3sADmgA6/kGLowGe0IQwcFS9ztRaP5ViJJSiQaywdI7XNhRT3wAwfAKvT4IEAwIDjBAYX4AXMFABVIID7gAEOAJUBEALEZg58AFtXVWsR4qNIcQ2tJ4ZF+77wu5IreI8vSQHp4FgvGY93RaAdeAEa66IJYg51lhQLMA0EihTykrLxRbY3OgELFpH7oHESIHcAAA8ICA9jBiHSixQWUF1JUQUFgKQOR6jQ15HQt8Hc8JwrCxT7qjTmZaEhsBQBUALkxmcDlbVKAQ6gFpEPm2UiywExq5ZB4HHauFmgCA8nIr4NBGqklZYTwP8N2KQAk/SELFh2GBkB9YCtTjdPHAIAjAlmF2cBzGDBE/B61pS0Efl0KdarSuEM3pZ2RaSNV4di2AlexaOJxmJeExmYtFEBqGYOEyAOYNaC0fCJCsAOsJULEiAUGscUuea+8RvJklxVXBZe1zBvMxlqGEC2OGEMERm1KRaneHUg5AZgBxKR37EWGPCH99A46fALPbQoLWEBOcdYJfhhvoABlvV7URtxlpkUvsADs5ULDlBYA3h983adDjBOWrc4EcAOcRYBPCCN5BYALxANHcAUMAAPNExLMCABoAFp2fAPUOsMETBmShEB1YCkmzaym9YBwpCrzFAU0/Wc1hQCJZf/qBLyhNf3kjaWCxWgwNlVPM6QokbRDxcwlId1iN8RpwuQDbSkebOpEaABDkRXpJhBAPWwDdLYEteAnQmiXfRiDBUwbHWmVBPQBEbXq9OlGArgC1KmjA6wDgowFZiZDgdC0NGQs7D5fJNcUpUsNkE9tLZwc2EzA0Jg1O9kC0KAAqBiCyjg1JpBADNwAygA1Teg1COyAU0tIkx9IlDd1QCAAkKgT4/FI+bAchRQZwAWkegQASm7KEzLWL2AlcRlu2BXZ+N0D2mGyoo3Ae7wAmoBBm0jpMwLctOWIDOpxTgK1yByIErBgeMEIcZKUrJAbJeWmtq5WhCClQtwnBGpFLVb/w/1UHgIzFzzZFmKxVyaeqxKoQAR+mHWRbtllg2ygDhbKzwUN4AmfFVY9h3MpY4u+R228NYzCQGVTFqfvFgUrNqhPXwAV4gJjVq+wHewpQ1bqMjmyoh9FgDTwAHHUAJYx3bKmKCX9ljAeFjMlcqhvVO28N5hA9UzMNReDd8shNX0nRRRnd9vIwQ3gNVa7dX7LR7ybTYzMN9HQdZXfRRVndRmtOBRHckocANigwKOINXvNAMmgALxBh4zkAIUrhm2YAJTcOBTkAL8nRkmEOLgAdUm8N43YAIy7tQokAIB7uHTQIsgx1wP6wubd2OmnRS/8HTF8wJCF1tK4bhYljwBwP95bjsVOCHLS1GktKlOvjCa5tThg5VgR4NNfJ0NHLeOSnJYPWtQPXQP/masYzNXEUDBSLEP5xzmuFiSbawMr7yCWL5CQwkqHS5TE57imfHhN9Dn4mHVhC4iFv7i4SHjN64UFp7VJ97oLX4D/y0eQqDoUD0FQuApNW4CIH4ZGj4FM44UQnDhAHDpGE60tjAFjmDUUb3gG2ALYBDVCD4UZI3gFn5zBPDqhkPV+/3etV7UYA3sCD4DA24Uxo4CRu3rCw4A833gDK7rtA48893sGm4Cs27U803tmW4CVe0IQgA8tG4ixF4/4+7swE7r1n7sGo4CG2Dh4Z4CUwDjlY5Z2ET/2F8q50cR2OCRDvwGHoGSYB7jloJiAcYcVxegy+0zTtrBphO1FiIyyFNOrfFF50rBf77wdIkFyfVmCzcwBZWe7No+A7Pe7GO931S94ici8vez389u1EVtOB+eAldd1NBe8ghe1CVvOFCt7ENxAxfeGcnO8wde6zHO60NR689uAhde6oNu6z6f9FBt7lH/3sxu7Np+7CMe4jeQAkxwA2CdAjQP7wAg78ou7zI/BYUg1TF+6ORp4YZgAmOdAo7gCFnt8SnA9Db+83U/BRyOAiV+6qxu95dR4ye+4pe+6Rvw8UcR43l/4HQP8qAe+dj+7qwO4kOx4l3/NjTP1Jfv1DMA//J+j+xMz+ol7vFZPdY3cOmOIPqt/96l/+Ie7+nejuwf7wg2TgArHuqmX9Y13vrhDgBAbxRdPwOLv/elDugr5Pa0200EdY88FRSaAVdxlRkvMFf3sGzMb4ahzwQ2ruF1v/cfD/SafiJCMPhgL+jOTveOUPuhDuI2vuJGUeNSXep2jwIy3vmxf3NdD/R2//MAkcLRFBQzHBkyMWOGiYEmbAG4kcJECgAVJwp0dMPWjBQoLN5A4chRiilMUtiyxXBKQgAoVp6saCviQBQEbtyYcWOkyBsAOA7UCNGER5k6TVSMSNREwo5ICQIo6qgmxBQzKl7FmlXrVq5dvX4FG1bsWP+yZbNuYLhhxpQbYEJqnCIVxURbIYUAMDFFoaO9GoWwlVlVZ9WVPpdeHYxibgq3gCcqZssxYUgUtlKAfGpQcUaZBA1yjhlXMUmZLIV0dIlTiFS8niXKHOmxYkgwC29sYEtAIQqBlVfOSA1xSkWDlx0dbcna7HLmzZ0/hx5d+nTq1a1fx55d+/WIQlLqtZyCQCxDOHXOsMU5dUq4Cdea2LB6M9+JVnUSIF4/pCMhwKvaYgsvJnBiaKMpvDvsPLQ6ek/AoRA7DgydUABDOYnwcsQW+QKjMAXxEnuopRQQTOiGhNyaSyrLhqqwp4hCBICAjJCCqTP08GsNPxPtmu2y7X7/BDJIsPJKTraleIOvJb0k2kBEzFC4Qa+KfmtqRbTgc0k22Dz6Swi1juSvIiGg5IsAAEG6zLIbbDrpSAJ4wykjHH2agiIA5FvqId4UMuGuPQ1aE7bvrIKwIIUAYKvJO6WyiVEAj4qIuLgcYQK54ITENFNNN+W0U08/3SqAAECt7jSFArxTL4as4ghKvfDz0DbK8HvMxBjP462yw646LLUmgdOtsLxmeFMqQDeyKiS1ZkyJMZ3AwGrCDeAMiVgAfIzSpzKP22CDKHNSTsxEN0rJodnkpAwlJifCioDcWqvI2ylCTGnGPdNDoUk4SeW3X66yvY/GuZDDd0aolgKjozwt/+pzXqQm6yhKGE2E9gYmBhLpwKcA2MCmi0U6jiMXqzKhp0knTWjj/Hoq0kRicxVZSeAyBhlKc6+q97iHLlTSXJ0wrnQh5JLKqamEg/I3aaWXZrppp7c6IIIFnjbL1GolhdLOcpci9NuSV+u65D6J4wtRnFRGSyPe7vIpyrhMYBO/tSr7OaFi67p4irgIivQqm1iiCt8pIR2u2s8mlSrKOTmuGz0THwJjpYduMATjkRay86qMmvyWcXNdeqrZmW8zDDmqT9+OyJB4RZNlynz0aUTaHq9Ios7xcmgD200vzSqGxiyoIOUUmhA4Q7HtqGwPFaOwrrKvilnmhSPi08+qXP8aCjjHAcc5a418DE/RvMZ0i8+j0utJNx/nRr1999+HP/6tFLCgnlHl34r6CmXbk8jYbwIcXUoWkhCZKCKuK9NS6HKVK9XlQZgbDXzYpSSioOAvDtFJckCiGPRMkFcsYY9mBiccbe1lKBzszFnqEpE2mWtYSJELB6+VOaigqnOlmdZlCMWROpUkTNHDXxDJIi9tyQYwHoKhhFiypyxlyTBn6wmAqgKRkfQEPb2jIFK8E6CirAZaeOmQFUnisBcZpjahu2KdaBQY3znCLSV70xTAcKYYzaU0DzmUEFj2LcDcrkhQucFd/FcnPR0oi0JEZCIVuUjqHGACyjgAI/9UMob/wSZZcslMydiTHra9ZoKrEtFxZtOkXo2ITiwrTBnXMqY9Xs8RAKgQ2/QYGOLYhzUw+6Eos1Uhqxhsln95yEbig8CcYFBllNGicBQ1paAExyBeWlhMjLeaJVKSkdeM1oDqNRHwCISbVtQbQ25TLcsc5zfymojOWmISM2mSerBkSF6eMphYlVOep0qfxVynN5JMxo0UtKfe/NQQmsxtWvMcCUk0wjXcTauKPmKLEJiAkDpRKJ5680gGU7WSlegrQ9gEaUhFysioTSCSi3RJVVYjEdaYoFIMEc+1zOmeNBmFJB5JaV7KBKBbIjSQHdnAd5YiGv9RpkIc1UgGvZXQGfnP/50DIYl46iWRSmEoOfapkzhh8zDgZFUiQguJSRSKoXRmVEox2Rwgd+KevPXTKvghABNk+aCRLlJCVjTRg75jwBAJYSk48Yl3SgcS4uiRr7C8kExwWhniRISufyNs244kJo9sQEJfbMkBiQJYmSQrr0F501LGhJKCBDaYn50NY/UIyL8mi0I3iIUC81VMurrEKtNqrZhgUlfe9ta3SwtACZiBDkZqCCel0SSGDEgom+lVMZIdSsdWeJOz5uW0eNxgadt2EygZLybewW3JrCKTJiGXbc+tixDe1FzZFFOP0LIgIAv4Vzyet5mXASzz/Cpb6DJ2Lmzj2JigZ0Ci7HcigP+tCAH6s8bfXnNOQDxLWBSrFoKgJCnSgVGEtbM46DSJwzHBSlEyfJW5TKXBJ0ZxirdDgAVYYGq+9WBWPsxABkIJJXmqC6rCMmPqLPM5Po4OkE0EZOjYRsXXLIpzvGW7KV7qyM5ZyIhng7QnV9nKVwYL/SLw2101B0kXFhqhsCyW7lbHxmMOYl3E7OVAMtfEaB4LubayETjX2c4pVoAvIsBjbALnObq5yQ4Fe2ev6GbN0TkUoRW9aEY32tG+PYAFJnA/3vL50ZfGdKY1vWlOM/oAyrBfp0U9alKX2tSnRrV1jLEPBVA61a+GdaxDLGVZ19rWt8Z1rnUdPwVc4MW7do7/q4E9bGIfmX7uKHayM7WAEMiC0QE4wAKEDZYAKMA6UbM2WUQ17VCd9CvVlrayxT1u6iygA1smd7qtY+5fKzoAFvC2V0YF7QBEIALc1ooCWg2Wa9i7LPVuN1aqTWn6HUABC4h3ViIAb3U33OFhcUcV0P1wii+H3Y1+96j07WqO2/sakQ54VxyZ7VBVJAATyEXIsRLtk0J7AhG4R6giYNKKmFsBkSa5wA/wC0lPIOcVB3q6F5CLiQfd6F4xd9HhTAAVVOQAF5gADLCdlQAswNr3mIAF+q1yAEBbKxZQelZKegEL7JsrkZ40AA4QgGzcmyvm8PUBogbvkU+73wePQC7S/370Z/MdO0MPu9/9fvE7G7zrFiD7PtSe8F6nfeHaqMIvzj7zrFwAA+CI+fwiAHVRdaXa/gaAtX3eFVZHAAMRYMYFFICOcFN9ARN4eb2Z4QzB3zkAMDB77aUDeN3rnvB2VsAEwBABCiRc5wuQdgDQwYwHfIDrANj8/Qyeiw60nuoVUYDU3A61BfxCVDfX8s2pfoCYm34f9dCABZTBlXrb+wKsp3nv0VxvhssfOv8guv0HX/07q2ABF6iHZPiFDTgAY9CKesu9evOFEii5ALgGpws+C8iFf+iK7juAemAGDDS+rhuVqMkGhEM8ZpCACEi4sgOAF4CWobuAXNjAA2CGEv9YAFmItgh4QP27sheYuZ+zwbLgvR0Mut+Ds0i7gJmLNhfjsHuoB21gwa5TgGyYAITLPZM7AKu4h4WLJBfrioWbOQrYh9czPoPDwf9bgAhQhheoiM3LCiysiH2QtIVDByAzhhmYgGywAGaYuQg4NB88MQIILmaIQj0UC/xbP0CkOFngPzszB7qDunqYgHQwQ624hmk4AFtAvv9DvL2rCGPIMwzIts57wq4whgAwxHP7hQLUCneIAAVQhuWzH0pbAGZIw2xzQT2DvQWQsnqrB3gogZOrBwMkxBSruk/8xbHowWFUNyBEsw0QFZSTtglAhxnbB1kIrnNAuQsAg22TseD/i6RoMylh1AoCUId66AAHuIAAaLqtQIcLMIeoQYcIcIcSuDcCgMesKIG1qzoJUIB6gAGp4bYDCIEO8DVhCDxj5C13cDF8I0iswL8JSMh0g4dDvDMF8AILUId3U4etMAYYsB9ZMId9gD1W4wptVLvXezeVixp7yzqo00HsywULAAd36D59kwVniJp4I4CDi6QIkAAAcAcK0DNhY7qb7IVrCIALcLYAyLyGrCstU0qky7+mVDZkRDNjkAV4U4Bj8IKBBACTCkVGdDlMvIpqS7tSBACw2woVAIMX8Dl08DkiPMAJEIZ6nIB+gAFRuYfX88WKcIZ9tDZZuIAXUMUIyAZh/xu5rgOHa4CHBdBEEoTKkFo1O0RIpVQAvWvMZCsBiKyzf/CFi5zMCDAHfKS6CQgBqJO0++kH68OKCBCGf/i+COCGgTyAbEiHAEBFtatKSbO+FjPIXFC+k6I8gUO8foA+eIsAY+iFCcCHrBi6dEA4vVu94DsGxatMbIq0epjOrMA/rbxOWTPE57OyzfuFBUgH4qK/dqu3RnzFc2i7X3CGAAADg6M0R3rCBWDLFfw1SgsAdViAF+i3waw55Iu3AOiFKlTMGTAHe8sGHSxNAPiFeiAAVIQ9V/PIBegH1bM6aFOGCOiHyNxO+DkAXwDL6ZxMhuxQXbtM73wycIs2GMCKtv+7vqvIvpnLOrCzPnqrNnfQtzGEvQRVlHvwRXXIhVw4x7GIGmYwyZajPaxLuazYR2NgMXvzzAkASA4tUfepN1nIy+ssxiq1te60PXzrPLDwwAhAhw0UO3OAvVQc0rC0gGNgjhegUgZCTQ6EUQlghgmoB7IzUy6FnzDt0BHl01u7TMkTPD/tlzgN1ESlmoVUVO6sABRt1EiV1GsC1ElFtRKoAmSz1E3l1EVi1E4lNS8F1VEl1fap1FLdNHioAuJC1VZ11X5RAAgg0Ve9tBOl1VtFHbRE1GEEh1w4B1x1NAKIgCpYSWA1VlCpunrYU8mkzGNdtBJYB0h11mkFkio0wQ7/hYFkgEVqvbNhLVZuBdftOM9vlUxhmNVwHbNhlVZ0ZVfoqMLRw9ZksIB2Tddc0FR6xdfqGNcSVQBzzdfvrIJ1/ddOW9NOe9c/bMwDaMmBfbK8I1c7M8fncIZbKNikUYGgxJQAcAZoSMp/e4H2pDZouIWPFYFdpbqNzdJvuwXaqwg4XaaJvQVKe4F9GNmTHZWPtTRHkz3h/FNtZdgjMwfMbLQRkM7miAElMNlNcYYRqNjtEIEYSFmyGIETaFqsMIZb+IEY2IejvYXmGIEYGAtjgIYR6NoAuIUYGAFfPFsyOAERuNgXONoTGAGQrQgRUAJoAABoiAGWNVidfNiE7LV5//3ZFHPYSwuAH5CCpjMGZ3CGF2gSFTDHj8VPxr2fGJCBpguAj32BEBGV9oRcyA1LjqNcAAjF+xEVA9RYuu260Q3FpmM6cxyBH3jEjwXZ1hWVczTH211dOA1LyfXF1D1HFXCG1jU5FYg5jeXdroPcAEDdEZABzX2Iz42Rz40BKVjaHxAB1B1d5dVdk5Pcln0BPmxczzW5xr2fDZCCEQAAFRCBE6AC9e06JZCCWxgBJRABAIgB7O2HE4iB+3GGH6CC+72Hto1aTKs3CWDRPyW7wSXcR720EaACH7hfEiADKrDfrouBGHDfERgVFYBgKthbACgBqgUAEQDgE+haAMBaJf9AWxF4WpZF26u4h/p9X9rL4PX92iY52vcdFWOIXRBuzxi4XwAYAbKlAhDW2Bg44rTdgBEogfS9nxf4WikQAbj9gR9gWo4hAQCWArxVgRJQAh4u4Ri4BRSuiCLO3NjF4qb72gw+x/Y9gStWX/oVTg92YQCWAfe1Xg/+ARYelTaWAkqbWiowYxEYASn+gTgOYABwBiWW24rYX+EMgPZ934rYYsUzBhno3xg2BhPGWx9OZBKoCHSYX1FTgc88gKpVSoUVXAZuMG+9tBcg5BLGYlwogR+4hVugAjIggalN29gVWRYmYiUgABIIYL39AWdQAf592vfVZby9BWHGYeyN5hj/IAARCGBsvgVjiAFehgZhjl0SIAEWdoYLVoEMDoD8hQZjOAEZwIX2ZVpH3gdfhAYAJloNFoEtVl99hoYTIAMfVgKyzVoiloIDwGL8kIITCAAIhgZ9BgApIGSe9WEQbuaNveB0nlsNHlvsXWhqxmL83WUSUJT/FYH/5eAbhgYXhmhoUAEpIAP6/YF1/lqWNYZ+uGGCZtkTUIJ7eET8tV4iFmIpkE5ooIKi5TT4vE4VkLsIAMiNc2XfyjuBxTIyANvYNcAXwGKshd/qPVz4NeFbeOJGPgHUzWYyVmEeDmgiloEUngEpgFpaZmkI5l+OqWSf3trEBYB9EAFokAH1JYAM/+7kE3iBeh7i/E3nZMaKW6Dqq11k/I2Bc/6Btz3kgSZi2R0BMvhiKXgBFSADsn1kH+7fOObZM6aCrlWB990HKu669AXtSbbeF0hrAOgDMpBiKmDpq9Dl+32BF+BmMrgKZ3hf9v0BUb6HDP7rGOhpZ5ACBnTsR8xfrIBg9bXpWzgAJRBlYzht+BW1jm3MAKgCB3CADOAB8A7Rhqu2DYQ2hD1U8QuL9E7apsmGXPhbOEvrhI6XDB5nUS5hXi7tiohmQw5q5gYALDbuE0Rbbo6B4gZb/6aCK3Zf2z5rKhgVXe5jAO7s5c7Eq01rBCeAEQhkD2fZ2IXbtMUKElBtEvCBOP92X1y27/I9Yn+2YBdWgrNOaeTGZkIGYAm/6YqY4RPIPP418fs95xI4Z6htX5p88SumAlwAbIFz5P4l6IpQAT8m4gZXghOG2xLIS2d4ZMeGYd9m5B/g5fV16wBw6PWt66cOogCIhgJwczfngRLI2ah8gBA414rAhwsIgXUFt/duDncYTUTVc6l2mghw4Esb6FSQAilP332w7jOO6f7O27WeWr2FX2Ow3+pFXbQlAKwWgfT9bRAeARcmATO8cbwl6iLO51t42ks327bFYCNX6CM/Y6R1Y6zo5/vF5lE3ZGXW5Kv4WIru5X7gYwP8gUdw6xJ+31EnAbz9dei+3Iro6/3/vd8AkFtjKIHHfmGiFuJRh4a/lgIgY9/8PekTqIj8heFlJwER6IcBhnK9vOnLhuFF5/JSPsEKlgIAju3GVvMgkgAeePMCcIBlHbcIcPMHSLgDeAAe0E6B64AQIHjqMPgOQNQQKICGb5/4nm80++jYfYgAoIKJreuEHvEzTtwnDi5zz9tkjl3aS/WKuOIY6IdQXNwTYO6lrfms/QFjkOUh7mVuVvkixmr1/V9rdl4VeIExd+zi1vL1nXDVJuoUzufKrgi9NWn//mUpeAgPx14A2GK89XoSWGb4jdjYxYUTHO4yvl9d/uUEf9qV7XL6xV8ZeFzmTWmT3wfnrWy+ndoU/xbnIk/uvmZwUVZuIi9wKU/pR1DiED7cde73IFIADXhzHrgAozN4Ny/HleuADMD4q3AAHrjXH1mAAuiAiK+IDmB4RTJ0Crw0iN4HLrf5hEb6mM9fXRf1jo9s4E5fLObpbq7euobgx25kUY5dtOVhw8aFrOVj41ffAwDho1W8xXdksX1fbn7fbr4FBT/jvVVs9YVs5lfhOI5d9S3+/DV6Kqj6I6Y9D77+jx5o0K7yDFYCwU7n53/f41aBLc7+4o9u/CXhrwUIFbeoxBghI8aLGCecUSEYQwq0ADF+KPwhAkAJKc4AcLx1YgRHAlJOTFzIkKCUGAgBGAPgcV9HJdA40v+safMmzpw6d/Ls6fMn0KBChxItavQo0qQ8LxRo6mCB0qhSp1I1GqEADwc8oNI8EGKrzQAKFASgGSDAAQcPFpw9UNbs2bcA2tZEq+BA2LMc3QIwxyOXXLR8b3bgYa7ugbF456KVyzFu4MSO4z4eTHVCLgVVN3Muuk8KCQAilJyQMdNjSjIiWqoY8SPlPdEgW5NR+YKjsxEqC3IUQeXirREzjY1QQmbEi9YgZQNQUXGEiuYGpZRoCe1hiREXnUN3FkOJFJDGRISWnRw5x4RSLNIUcYJ6dOJSjt8OztFYjEc0vf/4yHFEP3ONAFJwMRwUIADQzDfgLSrsQ4Ixt4hwG37/MnxUlgjLiRDDf+/FsBEJE55AxnxkQMgfbwA48wNM6QHYkoox1BZgQiOO+CFNL6AHgG63dfYjkEI5FiSRRRoJ5AQ8NKXBkU06+eNVXtTDwwOLAXBABxlEYFYEuYgTwgURlBWABYU1oUGYE1ygGUcKXHCBleDkks2YEVwQwgMdWMDmlWEesEAuFwSAzjYdvBUAZhMMyVEHTWzJkjt3PpDnBHgpkIuiNR1wgQVjuolnB5XuZUGnC1yQ2WZdcvUkq1QRUNMtLOb0ak4wqjghAP2cEGBrON5Xk6060brTsLMW69OixxKgQrA8NWvUszRFa5Mtx+7UbEHT/iqkFCJY2yq4/0eJZVm45Zp7pDO5FNDEBee6+25N2RRgaAcFWACjV2ABcI8FWU3KQwYTzNWBA1g5EMIE9QrMEVMFPMqvvQBsIAEPTUxacAhsLsBDFdOM00QHKsjSBGBzTZPVqjYVVgIABCxQ8MEPKGkBAAsU4IBjFhSQC0cRaHXxzmUpoNYEBXPA51SYIQ0v0z3dIkWLRXlH3UOvukZCdE1rvXVwt1Dl3aJbb62ABY+KfTbaO+n8wNJpu03VVSHkWnA6e2X5qCx8cIMOR/BUo+Vc4FTjgJgATDAvTfVGfGVhmpWQAQ8LY1mAOGX144BaUqoDADpNPLNBAL7w8EHKKvOgDAAz1JvLYv/1FBDCWfWafY/sACjwAOFt1tvuPg+Mc/AEZKWayz9vox0AND4aFcCAIpQ13kzGS+/kLcpH5UwAWU//rgLMFL49+O9uLHf45Q91VRAc6dwBXvlCFcAHPCB9Fc9zYY7gxg88drADhtrOA/nEUYCFtUlmWxpaAQRFE1n8ZVMA7IVOjNEolh3ACyGYAU1uxw7NHK5kNTuYLQBwgSYQ0HZqCcDl5oXBzmQDVeZ7l7aEEqwYvrCGNryhuBYggdLhsIebCcACeOhDG8aNI7YIQcSwlIHDvIBKC0jMXSKQAQfgxRi4cwduqgAWdIwjYdXgWwR40K4AaGVphxPGPW7HA7Nxjgf/HMgFwOq2k8I8yhYBaIlYmMK2K8mMTTqjWb7q0YuxjKVeT3SAo2iYF8gwspGIqgBbHClJygyxkpa8JCbFFoASTIBvmfzkYyYpylFKEpTwklc0aPIy+QXgK1BZQBOakJUpZiADN8MLGR3AJwuQkEwZUMA5ckeBDPBtfFbq2bzEohYEccRmsowlzYRVmMM000uYK9geN0CBNXIkBA7A4u1uNkut8IAH9UhLBsK2E585YIrtxJw73XnNcvLhmlq5ZjzteTB1mrKf/vwnQHkChggw45gBvWEAcDdPfOqzofYcRz7faU82HtRJRaTJ+hRwN879LlDCuAAF3iQBvBAAd3xS/4AbA5ALDRyAi9MAA55eNTRuGNRmsEtLCCBIk1805QLpQCRFbaLFLQXgAmqpQtkiYNI2AfAF+xiH/3ohs0C9KaScuks7+ZkT0QXRHEGMQBBlUYKwliAdC0DHL4Jo1iAuYKxiJatZdWbQitK1rnbt4QsmIKq7mo8ATbTAW4Po1sEuQBZsPSxYxzrWBYD1q0F0QLtiw1ciKaMAqewKEoWRJagcoAkhOIAKIAODfeARc3zyCtseAJiEVsFn7bpSVpipvgSKZRxeOKZNy4KB182VIypYWc1uxhY8hqAabGrlOA7Qr3rsRQM82Mc94mKMxBhjaNXQalgAIAzydWZom5sseP/DK96tHYAZ9cDueJm2ARNGjTMhqF96OXNRVWqllkR1ZU0U4AVh+HapNGGGGLexsFzkKXfdXBxH8MENRwFgHwfD7TZKNgMkKhAnWjxMB2uSPz5FYB4W0IAGEESmJkSTIzPIRS7wkRYHrBAoEOAuZxTAh1/sK742vjGOOaPcTOUYbQrIAI1/9F6J9TgqroNxyxr2FI5U9gHpOMABZKGBBIZEK8F7CzrK+Uv18YEHGpBLGDNQ0D/VKwhlQcfB8FGTEpDsLebgwzhYhpNGQeVwbFOxMj5ws3Tgqxp8QLAJeSCBu2j0dbYAB+YUSZNleQlI7vil9oos6UlT+iYK0AZzKw3/L2PYIstto4o4crEBRWsaJ5UVx028sq5HGaNfAPxKhK2krjNtya9TpmIzbQlfjhRtHg8IwZ9D4EmUVqkmsnidXHxxs08jkbkHEODBvEng1/GJKdtImTGUWoBfYxOL/Shnb3Oy3lwguSooXcC3Sq3udfP1APX4NLtZpYBxeLIzod5ACOP9E3ToCScL6IAw5leFB3BDT9ZzUwc6EGREhSprB8BAB3jYpRB8yQJWOkAuOpXfUMmlF7mAJE4s4MJLieMDIbCACtwRgg5wuAlVeMGxfpEMPIFpMQcIKambY4tG/wgdv0SvvoMu9ErqZehPsoUKFkBMIGkgGTk3upB+BPSo/4SWWjXxhYB3MnWeECAZHwASDLaydaiTvexmHy8B0OGNIHfmvXY8e47PMrQHwABIdyQ3kHwOb7jzve9+D+g9Hl1vzoT67zY2lTiawIxIc2YDPO9M2NkiWcNTvvKWx2F1gQyk9xb98nYlU8UqLHUVPJ4zevc86lOv+uMpfe9Ruffq6yoW4RVppUA699hjr/vd8z4p5948YBjf+6EHYOeo7jm9h6/85Qtm+UKxhTFe5nqlFN75ZU8Gk370Y7ZYv/uqVy73vd8TAvz+R6GuuvjjfRa8/+gXfFDA5NMvf74D8QJCnD9Nkq5Lposa//G+gP5on/z4HwGaXQQETwHixAHoS//b7dr8KcABRmA2ROAEUOAB1oMy1EMFTgAGaqAFbuAHfuAE6tUGkqBeKcMJamAGrmAHZuAGjmALxiALsmAJZgMKmiAOguAEKMOv3R4P+MIOamAODiERFqERHiESJqESLiETNqETPiEURqEUTiEVVqEVXiEWZqEWmuABjqAF6NUIbqEYjiEZlmELqgkP1J2QiYMKCmEZvmEWRkC4ucsEyEw7ZYA30NI76aED1FM7/Y4f6qEg7iEhulNWwFNDuVMg5mEtMSIeShQteUMfTmI9PWIlPqI8+aFDwZMeWhaQdNYsSeImjiIplqIpniIqpqIqriIrtqIrviIsxqIsziIt1qL/Ld4iLq7iFPFAqOTCQuUiMAajMAojJu5iAQzeZnDAzTTiMDYjLmYFBuRekywABrzJm5CDNWajNlqjVW2jN34jOIYjSFXjOFaVN1IAOWpjN5qjOIIjBRzM7RVAFbBjO9ajPd4jPuajPu4jP/ajP/4jQAakQA4kQRakQR6kQE7DBFgAQjakQz4kRIJUVT0DD8jWZngTN0akRgpkYThgAt4EBRxfdyXfR5bkul2DXs0hAW4f8KXXC1hAPayXSd5E6W2Gp80kTlLaP5RNTnLETZqfR/bkeKmA42Vfd2VA+AmlUo5XBGDA9OEf+SHl5lWANC5lPzGaSHKG+8GfVXblZDFW/1U6X9JtGVA2h1eOl+0J4P2dJVua0lnE30yWXwMGQLq1JUAVX01WBRehQ13apV/+ZfkEwC/sH1DKJGDWFfbdHlIK32E2pmOmjTHsAwO6Vy6oAGM+ZiYFwD2wX2e4nzvAJWaaXViG5kEJJlnaG8/0JWlWEgQEYGd82y9c5moyjVjk3lk8nZBkD9ehQ1BFRW12xuyN5lTYRVB0Hk8Yp06MC9yxJFDq5mx+kh1xJmdIn2o+p7kcQAQ8JVzUTAnVhWz+RAAMEk+ITJjQHk44BpQhSwT8gmEiy9Tl0d6Ri3sSRdItHnjug3nahGX8CZT1wxxuinaqGxC9H/9ZZz/lJVXgnv+BatICaEZj7ARvngWp4IQCTABU3AOUoZdYyGEG8VhOkAmpfI8CNmj2VKh2NqgxPGhOjMVc9EMEiChOqMBiXEClhM0+cF9i+IRyeUp+1sVkaNx5pidHXIMCZMP9QeBxkYoCMFZvVdcXPlHZZd5aRkUIVADoLOglqYDx5R2kYanWHIAv3MUB7JW0HICaGc4x3GgEWMuYBoHAbMACWFwEQdmlPIDZkM2HjkUEdEA2fKdY5MI5xAYY1ENvhoUFPBF2IuNjkA3fgAE8WEAVaNUBKMM+wACKpUPY/IIc3sMBogV0fWjCCI1e9ehjQOledKdN2ElZbACUgdWHCgPNoIVeyer/XAHRkmKGnBodAdhC6wFJqOGmlxrPqySmWgpnsA7nYvzbBZiDctYEPlgAM5QFY5EKOgyJCugpmyiXO0wLAUTAF9ofAQTAbSjXivrCqRAVP2FnBPRCbFSoOqHFXuRCMijD7NmEX5lKBITQAZQAsybnNdiJBUxDB4hJ2PgCV/yJOaiJol5Jp9pOJLlqqlmoM4DBlXhoWFxK+7wAWH5oBNQDY42giZ7nMYDVAczAF5adXFImvh2rD6nAZpZbgv5SdbJskAQRnNpfckJgplDjpGRDe14JWpRAtorehx5qM0VrhX6o7XRKADCDL4TbWcAAPOAFWCKn7YgJDNAoP22AArjD/wFkw10sQC907IcuQMIE3JjCm9kuRgBEgASUgGFNhptMQGy422K86E0gyhPN6qYIERBFwAuEEFnM6qJcQ1n0QjIwAzpUAQRMAMUqYDIkrAWgJKrq26CcJuFVJs0OEYGRkueK0sYswHdubpB07D8EijH8bGW4xVskRsYJXwCYA3bSbdsWan5NgzJsRDacg+0ow7QIZnZaaGudJ9nkwtOaaDbgrE2Y6AUkA9CNKZR9IWaoExjwpgVMoARY5F6sSc08kQTQK5m2iQUIwzRI6wWIFQxEQDZYWjr8AnYeqgWolkGdhR0VKTzgg5sAKtimqoPCAFo0by4sQLQcwDGMlQJsgP8GoqxhfC4DM5IKfMAzzAXp2pAdXcA2DGMtceUEP0miZOeY8lDbCsNeLSnOGqdKRYAs3IsCtBZo1sUX+sLi4S0Enqc6MCQM7An0wgUQlY33wJwFIMwCzMCiREAVVOACoGRS5m12Soxb/MNrla0FoEOR1mqZaMa0UsAL4IN9Ioa6ApGekEUJoI4LwwD2KMCgidxcHUDdjSlBoUMFgsELeKtNVKBZpMMEMEM65OryvslC8qbtrptYHKIwUtnMbjDr+cLH5UIVPIMiV0AVVIEjQ/IjRzIlT7Ild4AiMzIFWJyxGvJQKAAGgBVYwW+txqlmKIbIQatBnQMGJIPALAAzrC3/x7LFyAKA+nIOjPoWDEzANFyJm5SOAvhCBPivLxzqnyypBCjgF1YoOsQy994E12LKoZANy0HoOoQJh+pnKPPNLzAkvY5p2IyppioXm5gDG6nAMSTDEwlNEOXCAZJpS41pL9TDmlhJnDrGxtaMOz+tBYDDeYbyAnhtNlCT0clqMjSyJD9DQi+0Iyt0QzM0JGNyBeTCMbDF6Hry8fTCV70oR3e0R380SH90g8onRksd1Q7sIAFpWIwUbzLDNGiD0O7DZKivBbgD2WSPO4wUhYaKGVMtVLjD+toEGFwrprTJQpqnWFBs2pLKP4hFiSEGWvD0DEiAGgKLck1D4SCpOSRD/zbkG4VecwT0a1hAWRDR6AJo4DOb56UEsJjkgjYAoYXaRBDtCaLQqNKMhVcfQDoc4FjASS9MLQC4w1PXDAy8wFm4rdmSSVXXRS50ADYjINTZBWOFNGVX9kePlVsUckk3TQDMwFj8ggKAtmi7AzqQtmmXNmqftmpL8WjfRSdvdlCAwZ2QxRIr8z0w1gpPQC/MFafKYfqajSmnGliFSmzoRdLaxAvAgKlkGjjUAwdUI0U5w54AgJL2cQQxQwhEQLYpAOPxqoVCoKUobgRAwP2xKqDccTKUDamkTNuCnymvSjbbDjykA6pMQy6EsjLIWU3wy95GQD8sgDaoruFUQfqSyf/eQkUz24Q7vIA6QNk5gYFe5YL2SkyFiu0XhtZrh1eKQpFoh7aHdziIf7iIh/gvuEODOydsGw8enQX2YE8Wiyscx/gLyDiNz7iNwzE+wLhhZ3iK9wQ82N+YZgzHsq4bk7H3xF/bSgA6MFb8xSmZti4FLA2e+ugBmi1jmcNaawPbVdcxMNfGWoA42K4CJIMsRJkXBFV1scUUz8WYhopOoAND2h89G+mLIk3stq05OIOVoEUuYJGm1M+yotAw5+2Vte694MQEeEHbvgAzwAMAXMMB3DZFlTZZ3LO7qcn8KoAn4cWLRheLCl0IBcA1zICNkzocm/oLoLqql7qN6ziMW23/jxsP9L3KrnJEbGzAq4QQrgOArue6xPh6vq2XV8f6j6jA9V7JR1Xg/MapMJQAQbGJAiiD9dxDNgCWAlhPzzzpYtz2dHPEBrSrSl+JlVf4EtcDM1gPiOLvocKAO5SABHwvtreMHL+ANsxJbd9EED3PPuQCO0xg+P2tLETAWrkFOIQbdorFd7tDEGmqBchWZCqDjObCk6GYhcpW2mpKuNNEpIAoOsAAtE/ANaSqMLxSqWiGNizNw0WA70oAMyzpWEArj4tXdKgAAaRujRFlza/Xrd88rqcurhMlry8LsQ+95cVpOizpmpaXHs/FBBwDjdKopke6CuR40QVKvJsFkz7G/6yaRWKYin7G9YtqJq+VDhAply/Igqbv747JAmllUNnAADrQCaI4JU6Alb6qSQUyA4+97zldSU0M0qJgp6VUIEeb6t8PmtlSgMfKKwoiDXYu9gFIQDhXqzJ0StId/QHehCwEsO1UiqYrQMDJNQQYeMe6hTkvQHsRveqvfg296NeKLk1IAIwGBix/4Yue/mJwwBODZ8QypE0YgxADwC+cU4PSu9+GyXlOgDDLhdn+q4g2rE2kVVnYUQxJulj3SaZpyhEDxS9cgAqYgwQcvaRaD0piF63H8TLfxLXiEl/EKQUcE8J3foO+/AVMOOvfP/67zQGE/E1MF3pVKEBgkBABhv8xAAAmLDi4kGFDhw0DJHx4cJ/CAxOYCVMwkeNEZwcmHgAJ8UCAjgxVTMilgqGCXBEeBthwkqEzhTQ5zoBnEOdBGCNxBljgziTDACMPWLhwQWmHCT2hRpU6lWpVq1exZtW6lWtXr1/BhhU7lmxZs2fRplWLUwUBs/eKAogQIe7aqEcdgqlrF4AxGHwdHnW2F3DhmAFMEg6MeOFRxWAZQ0T82HBly5fVRm7Mk2NkzWg/N6aMmXRp06dLc0a9mnVruwEUgDzAVCjQhQcUFA1wASaAABZyLZxxbcYLvcXxaQ4AbsEC274DOAMz+POECboTK53smnt31sw6vFho66Wtjrn/Lhx0qeAeRBUBCLRVYesey8YKFICxv7D+hgDGbFFtAQuAKiqCCzYazbsFGWzQwQchjLA1d0KwAAAFKtwthNwYQueBmwBgxguFFhhxIS8yyGAcPvhQ0QEHNkIohAx4yMCBZEYKoIMUM/DmRWH2WUiBDiy8MJeNaFPgAhATm8zJxCSMUsqJpnkAAALw2yeXXJzDLzHcTOIgPQDOqWaGhi5woJoXH1DTgQeUUa+DF/lwIBegLHjzRXZCqCBGAGYLzjfeEBJGpAl6m1LRRRlt1NFHW7Ogg43SeQAkcDrYkKEDcqkgsX2EiaAX9IY7aAILfMmTh1xQtcCkC3gIIaEJQuCh/4PEHODhAmZ8EeYBHryIS4I7AfgnBHXu0WYCYxbIJR0hHwihg2mp7eCBDp6DVFvUzgkBgA0sEAa4DpJZCkFTLwCpg/RmG5OhBYQpN4QCQig3GYVKaPMC6zrg44EYcykgiKVyeWCbatBZaIEO/jmIg2zkuuAophrLRdpqp40mBBC37djjj0EO+UH0TPX2oACUec4dB9xx5oIqMg3h2iqS0a2vXBxIuKgFbP3zgCoKKFLmfk4esgmYIjiVKXMiCCGCfqpAUJlcSlCYh4SaS6e5AWEU2Wu76umAm3GSSYgp/GC4YOPsnlHXFwAWeMALC6ZRikDfALCFmW0mIAA+QMXJIP+C9gC9oIBcTEqGhwVYOipgbS60jqkIfvFiggMw4LLZpw46wIF15gp9rgl4SPTr01FPXfXVqYqAhwe2bHPLCnKJ+VmFEVsggoXFaW53h9Zx4K8THeD4QiJNitY2ZZpgBoBstMkmAgu0FuYY4JhK5pg/4ya8IQUsZV18rqbf0QKYwMmlYQCWWmiDCQwFoINjEHrAgvvtvJyheniohyFmeIABiHSgAiC5QAY4doAMdMAYv7jAOerBjAkoaVfJYNVSEhWAD5hjIiHw3/hAGEIRjpBRA7LABCrgAAucwzoTOIdSNvKLE6bjGgxRyXm6djIHcKCGDemHOg7yAHHYhnQWOsr/Cw4wl35EoB67Y6IyIrAPt8AtfA6JW7ZImEWOSMBbAUDHL4ikpA7sLkETgAA+5GeBIfVGAQ5oWF1IZzov5HBTHMoFD/4EAHTwoAqIOcA1DrCAeihgAROoRzpkUQ9EsadzDzBdY7hxOy1OkpKVtCRgaHUAuATgGnEJQAQoUIV/FZJf4pBACzm2gTn9SQE88IV5JhKAB/wLMf2YwAOasBFCBgAMF6BABCQ4gV0p0gLZ2FkVG3LFSy5TRgBw4P0sAJ5nMINixhAmSGh3gQ/8wiQYyuNB+Me5vogjBFhcyAHpcpR/BMwCGwADOkCikqQh6n5ziWaOPBiTEECMmf305z8B/9oRBWhAHKeC5hgJF4AZxK2QuRDGBdrkiwts6ToMwRn3eEC/jtRKWiGo1apMsrAF7KMKFoBBBEowARUuoAS7OyYWwWfOgIpPpXNZACH3tQ8YEHIjtlCJMwBQO2ESKgLEagjpPggoB9zqPAXwgjBq54ACPCBIWrpOMiDgjghk45ZVKIEymogUR8bkAZKcKUADsJ+qvGAwrTFGWtXyAmjUBRpApckLRHCLAEBDBKq5Cwns2hNn3GI/bT2ICpwhAvEsxBkkICxEnMESaLxgipbcja1CZ45kjCOpB+lHCIgyEx396yD+QckqF7JHXxBGJL75VbSE6AUJxKUD9ShBLgbTHP9JRcAdC/jFYqmIRWWeNYTXUAAEmuCUA7xgAQ64wAv8GADzTCAZYJDfNHxjgRDsxlUOCWdjlLeY9mijAG9ixyyPtBDgcGoB98BPBJ5hUvwUSBz8bMg9xNFZ4vaTBCRQ0ElEcAIRtEYFIgjsWUSghANTYQQ02YAIGOwMKsTgv7E8ATSiMoIYnCzBt+CwFE4QAwwDQAQx+EEMRgBcAMTgBOKJQQzUSkmVhPIXC4naXg7woYWgsHaPXMhFFwKGpe7lNxIDgMxkSqRjpMd1IeBDEDwaAhUqDJktIe1+xfc+cdgqIkv26K6mcYG6QfdlzbHfQZqmjA8Yz1Sl48kGQsCOIDX/JALCAAcAhLG47TRktx2wheekHAKNyUxQgBprYLjhYyxXMgAnkIJdnRFp+6SVrZ6M9GJFIIV9GCTSzuBMdKD7nv+cTAXeAwBb7YoYlry1KKhmCKoNktZYv+cWPxiBSVTgagC8J9dxeWukOaNrXle6MYMZQYsZYmu2Lhauu06rM0KsghH8gNnAdraoPy3pvjjjHsa49GDsc+mFlJiyLxgBFajgYRKf+AAmTisVHi0CW4+bCtQGVAwGzOgIaOAcAKgHB/oRkUk5xJu+WUCFZFRRhqiSjipok/HayNTwTkSYrApANu40KYyss0hUVMxwF7063XpLAelIRjSUoYCmRaM5/7wMgTcecAF2FOk30VIM6cSJ5ybk3GHV2AgFEMiRBZQLcQfYUC7Mlg5JQVLRBHBayJkJYQYH4BYnqPcI2vPiGFDhBOqedr0xnGloGGMfSqi3CExyi62jeARVt+sIbs3YE/zgB32FhhQaDG0SAADa9SZBe6r+AzKMoMAjAOotRiCCc1OBBMaQN9cH7AwplODCC4HG1ufNd6srYcDmpjzXgWqMczv6BwdWAhkwj2ESUPjUIl781ie8AWdgvsH30DDeW/31GLxVxGr/gdW7TmLgj5jFB3HGsalA/BMYnwp5PcGcTWx8KbDYrjGQgr5jPkULxFzHDsnxAiJyZlM9gOdBdf+jDbeBuMZYgAdFEkeVUZJE9ExvHQeYVDbO4ZKONzc3TxIK/KHuawxiAsQBAO7hALjBVTZAbZ7FLX4jAjqpA7ALzXTl5o7mXcYhWN6Fj0wiF4IulhZgKaConCBgdywAHZihAhbiBRypPe6hPf5jBg4tACtJBU6ADHBB8mRA2jjPGNBtH2ptw+SNBHAhBshArk6gH25BCWLA3H7Aw04gCc/t0TLvxBhLCmQAGkgg+e7BCH3v1E7s+JRgrqQAB88N8ZoQAEhACkQAGmwNF/bB1lTA3W4B3VLsZF4sAEZACQLgBcJw2urK7EgAwhps2hLvB6igLhBxBEjg9HjQJJyh7l7/IMR8DxdsUAr4SsBUQAombMRWLAZuIcBEQAUYTwX2gQSm7QeMoQ7bLgZkwMNebIrILvkOAgsPwg8Jb7FeAPV8IwZKYARkoPp+AJayyBguoBo6TihyRf0cIgKca7c8yTrqQgVQqzG8oAm45ADUAVa2y7W4AYt+I1PEgTcmoG2O5VRcwnkOornW5aHQAz04oBpkigZBRgI04GRUogNEyQJUg7bGBIxkph6IcSGy4WoYwhjpZQE6KQIegA9uAlbYbB1r5wFK6uDSZ3eOoZCeAbxCAAPMZSkwAOgUjR5H6MUAABAN8MVU4MQMYgSkQO1OgCVIUQRKDBWpwAGVoBXz7vQI/yAPXyAn6W3EQmwVNy/s0u0gTswN9070Zu/RAGAfLuwFUGwDpk88DgDvJCzuDsIYfu/XCuwoAeDEJnHDpC0G7iHEDuLcDuwHlIAlpm0Qf8AkfpIEelIIY7If6u4gZOAEGo0M6mLrgCrUfqDx0vIHgiQG+HDXbK0LN2whcOEoG60xZwDveGISFYzEpEAFSOAE3u4JKWmXfCMdCsYXiuoBKMA5TkZtomqM8IOQdIcpbKMKxiFhGAIf0oQHXoSPgGKWzAkd/0gusIUDfuFU3CEZIOcg/mGlRMcEHeDOSBJ1mMFkLoQbyUkZFINIAMACPiBdmia9GMIC5kEZVGMGDuh1HP8gA7hBFmyMB2izGXkjNmAjGkbFbAak0PABdtIBUSZAepLGATjoOSfJJFmMJ0bgCPPyKbWuapCSEdlu+Q5C69LwJK+vDo8vQk/SB+bO7PjyQjfMGDDv9Cbs3PbDGEogBoBqDfdhEvsq82zQRH8AFxoCwk6MsD6UDCasH6SANjWs1vJN3mB0ITJP8hIvMSOxr0zSJfWw3tjSB5oQxRqi6iDPGF6ACh7hIEjA1oxhE+tNCX7ABwxs8hgCGmhxJRtTRQtTCoiGR8WQaIRv7CrJZWZpSbrpHETpAeDBmV5iBpbIAmAmU6qFGTtHAWLMN1ROgtChLmJjJh4iORgiAoLgk17/QB2yIRm4QZycESTawxjcwhgqZR4B9FHAgVaiQQWic10GSeVywQvutCG+zH6sCwDSoQN6Z1NQsyEIAB3qAQOiZ84oAvxiyTaMruRiY3r6pDHY4Sngwj8m4wHs61NLMgZ6UgqKwiVXssEwU8OslSv7KwZQkQwOggDwrkSJRvS8dSVJQAbMciHOTfFo8hYIQPR8wFt78gTgDhVtD9l8oyyBKsAAiw0bzVql0vBKzyFwARgVjMXqNcUuz1qtrx+AUg0HFkittergkiWWcMBMUgTIQNpsTQQGMdKcFCI0jPPMFQylINbmjiY99gX6gV5rAizJ4PrAEMPQYfrsagujEN08/1Pe1I2SIuI0bYMAlkgC/iIAeBVQXHNrbso502IBfKE93KIXHopNfcMcFONWK8xZFcUluMQWDmQC1mcdJ2B4KoY3HkkB9Cct1CF+2iMpOoBJ0taKPFVrT6cnS4DsNG3XUIwAJqwwxfAgak0LMVHeDIIUtbD5wNBBWYwW4QrC7KPtThL1gHLaCPQWbiFHd00KDuDYPOzcJosMSKAsTaLEDqDWQm8GvC3ucKHupo1w2k7yBowANCwyH5QKYBSufkAKzINyt9Atk89Dq8YlAUBMf3RlfZHT3NLDGDMSQ5fFiNEI1dUZxjJMwdLEZsJxixQl2NXE7hBJLylrVwMvGuMAXv+VbkMINub2IcABjS7DGEqCIWAAiMw3oAxRKk/MxMQDEVGMwQhgSl8sJwvs+V5ACpiQxVwsxLZOCQC33sSjBDJzDm1t6xyLJc9wElGPgDHMxKzvCP3wxKxuFE3sFhzW1lhSTD3MGZRArxDzxV5SBfbS+pQAsAavL14Mr3J38dLqBzBMfzUYAFYX9T7YFqbvJH9gPqTgfm1tMhsMXAtxwhyY8JpPBHxgwl4s0nKXxS5TBmT2IMR0707tBJjQCs/txPbSWg8iwarPW+e3JWrV+w7Ar9C3MyLgm9aYuNLhT1SAQ7YiNKAjJGgia2+qjicpYAEAJvHtILju2EpAPKQNXdP/MLFgdB/KMAbY1Nwg1C1I0VrhLu0QUwYGDBog19wG7HJRL99mL8TebvpKALDUUMREzxVB8dQIj+9MFDMHL9/uDvWC5AUciyJG0fZQL/HeI5bhzvpYT0LxzfBIDMMQz/hYjA37wmNnIgZ2mcX2VtpwYfVYDPU8bDO5OS1PoLLM7Uefsgxn+fKi0JxrAutouDEF+QKEYQZUzhx89SAswB28L10ItQRkoVY5pbsEmbgOwHKEBFA7YgLYVAFOCJVC6n4m6CDuYXrOR8UA5QRP5VTqYXiSiBkWOkdK4IROaCQ6IBf8KqCzyHs24EAdwtQagjMKjGgCwElVwA09sSEGtScq/+tbT6KkH6KkedohfnohcvoucIKld7omQrYrSqxn19gWZCU7aSYESoCQmmYC3GGqb4OpAkUCsBPNsMWkzypceuFkFkAcigI/fmG+GpUbbiICpsVitsEXCGAfpkVtJMYYIoAbKOACuME6F+IagCMCIKBNYq5hXCIEckEbqqBPdCkExCFTYAckziEXmBasK0lbsQJha5gAMm2WLdshFO8r4M6kYWBjsnOCqiAdjqFgdkUCLkA9hSICvEAW0EEWliQ7Cw0Gruyz/YlINoDsZMEXxsg5LCYZMkWcjG4CFPVdyimojCx9JqAXxugg4IFLhIQDbmKdbmJIcKtsLyRUOscBnv9iPnm7kjaACLFCM39RPIyBBPYBfOc3OoJ6reA7AKt7I+5nAeJE5TqgZUrCIBQAZhaots6Fuhrj6cq7n8jPABeAAkZauxYAAtLBb1YoNXPhTBpiNpzHGBAcId72AWir4yLArCUyRrSLMLpJGG7CqZ8iAEgmwT91vmF8xrfiHiaAAkCCq+f4BYbEfpgBPZxTBZpLIZQEv4WhMWqLxi2rw5tFJDaEUAJAAtSxuS7HrxZAA87E/kDErUUzLkrqZCyAAhTGumej4wgOAuoBDF6AIW/CgpT8zeE8ztfPF85EJUqAGSDgSKoA/KYnRu6B/bBlH25bmPgjGQBazkVojcbcN6L/YTZgIgCYwX8OQAOAxX7iglP6zUjwGc32KRkqy9DX8W3HvGGaxay+hwMcgJzW4T/xbB0Q/dVhHay5yyROSAGYoah05IT2engwxClyIRvUKDshoDGup75jfVsC/CYiAnLWaTY4SAVOSC4+BAbSwbQ5fbG0fCHcGtd/rEhoxXuahciRjiP0Dx1igyG0oQPAoi2Ovd3dfXxm/bSTqB4unEiGKkguIheqIJAiwBc24hzchbvS9923RaTAfM95w8Xv9DfqIQB6pdvNAwYoQB19w9qf521DgBixs10YQjTfaKLIHQIi8mWyAi5w4xd0Z6wJfuVZHmSMYclA4n4oKBmu4Rnm//h+/qKo1skkpgckmEHMTwbpjL3lp+QAgkBBASUCqsABQEIYFFQagWMhQmBMJoAD6sIpwPwC1KG5AeUl4Gbgxvwm4KGg6AwmjkvRhEHdpcKPFAAdFoBp5glV6Jjo6b7uJQTgfX5fziddJsXGMSBIFOAfOMWAJqA9XLsx1mECbtruIcXoTAd8wigXIICjpztueAOixN3MAUAZOkAC4OVOwjECzIFIrEu7GiIdnkHZJ8AL9qWQ1AYm3MHrHaJToIIAbGIulAEjoGn345bxff/3ueMeFga/1egAzGFjusuQOCN9iiMIbkIpLsK1IhL4HYXs1YNVFHoBaMcCMAA7fWqkx/+oofciJdCDUArHXPC9XBoCBh5a2yWfYAYHUNqfIQhA/aEiAIZz9/W/noae+v3//wECgMCBBAsaPGjwxYMIAC5YAHBAWDILuSZMCNFBWQCBvUIsSHbhgEBlIS7kAqDggQKELFu6fAkzpsyZNGvavIkzp06ZHS5sXNBzI4AAFlYCWMBQ4IEFIgUGEGpwKVSBChQYE7jgQi+DKg4ubTpw6sAFuZLOPGBuggULattaYFbPXb8DYnfavYs3r969fPv6/Qs4sODBhAsPJtCBYT2GCyYEkGVB2wWTFpoeuJAV7AELIQFE8Gk4tOjRpEsLjDANhmcLU+kGPqDA1t4JnW0qiLD/dq2E3LmZoSNgOrjw4cSLGz+OPLlymVWH1mX5nGDV6MurW79O89oCZ9hpLliQM0Dj3G0jRMh2bsFVgtS7u38PP778+fTr27+PP7/+ggciqH17zjXO1fVVe/sdiGCCCi7IYIMOPgjhfcYo8F897S3wFjwH3BNhhx5+CGKIIo5IYonWiTfBAu3hU4IEzEiQDlgmzkhjjTbeiGOOOroXwAGutXTPUrtlo4CBOx6JZJJKLslkkzmq0J8FMBrpZJVWXollllpuaZh4u5VAJZdijklmmWaeuWM/5rgjG5puvglnnHLOWV+YdN6JZ5567slnn37+CWiggg5KaKGGHopoooou/8poo44+WqaPdkJKaaWWXgophipiymmnnn5aqAIWmAVqqaaeiuqYB1gkY6quvgprrCZe459qst6Ka6666hcAbkbtCmywwg47XK8T9ENsssouyyxeB2QzQavNTktttdMqcE4ELwBnbbfefpvrAhjIAm655p4LamPIostuu+4m+tSk785Lb7323otvvvruy2+//v4LcMACy/nUwAYfjLB9ROUib4Q9ChZvTD02nHDFFi+58AzCPUvqX41J61UERj38UsO3gVwwQd9RfHHLLtfYI3fCRRBCx30FkEsHILP31AQ9TWBebSx91dICRTqFoa0F9Wj0QLcpAAPLBgWgwKYvX/+NtZsWiPPrXwGIw1pLPSpgDm4XnGfSzkIFgFnRbfe42QHrFSSqY0VWfQA84LkkXgQ7D9RfRVJnTTjhvfpnmd9KbXrbRhT+2vcvXR0gizPi9UIh0D42DZHVt6W4NlIRCNg5XZwjzepQ3w1lXlNUnwfOQLmE8CNSExxNUH8iUWg1ihEIhbd4Ih3ggGOT+ze6QCpEoAw89fyqADwcHvQwXSkixPTtQ/n4EPZqrSquBSVks7dXomfDVtfsVUXWBIW/D39MtFpQRc1BWlC8QBaE0KMFPDA1AQfwT3UW6EAIirQ/i4SANh0wYFUewLDLOEAk/ZjAMTCyEmNR4AEWmAFRQsD/jAhw43dOSQdFQsAaoBxQARTgwUNQtDWdGeMA4qiGyFAkjJJApUcTeMAEYBCBBxwQIhbJhQ+fcoGaSUAcYIoAD84WgPlVwQvpGMiLhHINvIktRUwRGUuCdwBwzE8B4JhK9iyAodxUxCsK6EWLQvgUtrRqbOdJhwKc8QvFxW+PfNwAZ6jijnuQxSMQMYktSmCBaqToMuKgy1o8Uw2j5YwiFzgZUp7SQHCYIxcOwCR4hBeACZykIQ9YQD9ypg0KXEBpanGc33xWkTY+4AKeqQJ3SvA/AgTQCz9UQAc2QjSnUIgHi1lVzQjwxw3MriodWAdFfHEAGFTBAVB0iEDcMTIJ/yDrBe7gjPqc4iPuhWRlCNnQBhoTARigIxdsYYbVUKKWXKSDKL9bgDJARht3FsQiZgxe9oTojpL5SAGw+REfD/qvZAzwHkK5QAVW8osOnAMABAhi2C6gAfE8wEeT0RgzUBg75wjDKNOowlC08csAHHEoAHBHzU7zAHgAoB4aYIb6OpALkRQsABzowCd1mItRXiMD7ttHFSbqGZUEwBZ16ccTNzKBIKAjHYQEwDlUAoAENmUD9dDZUHAaAIYCL1qrYQtLCzI/LoIHjQhRQZG+oxYK/UN5bSPIP3JxgRfwEIoHeRx/KskeSflOAemo69Lg5gwYICU3F6gCCREK2X0dg/8HHSjKQIKSVawa4wIPQIdAGtgQj/BTIBdwQPlCGbaG0LIfVXjhBxxQFpFIwAFGycYQteGAEhgEfyVRAHAOAEHH1ewX4nAfRMah203uDR08KMk7B+JE3TYkp5zVKTO8gA8AGPG0kxFKLnjwDLKCEwCY61U2NFmXDfCQrJY9SEVvswBzoDGsA2kvVS4wAZtGwBxQTBlBVHC9sIAud0bzVY/gEp3FXuAYi4yXAvA7uMhKuFm9MiJtBcJBiBhwI7aAQE4BgI+gVKEDRerKZwfolMQI5BqjAsA/NLC3fRTwqaUVCkVEkgtuSKtXEHhATCHigKT47DamFQg6sGqBZ/wqK17/4IFxB7KBbDwADJ9NRgA6oAGndBcAGIHKATogAaHMQJQCbNX1IoBXx0BHAb6AI0KMMQEMHAAdEfjO04iotP4sgM5PwVAV8MrWfZKqH9ogHeAmoyLxWAAd1LlHVSwXgLkdwIP+nbCl26VX1pUSAPt4gDmOghGnhEAZGwDABJSsAA50byAzKEnuimxqNQdwI9syBj6q8IwDzC7FE71yMqZmDKZGoAPuW0A1mtKTrE4QALbgDI5zUeqdAlcCBXnBBX6NkhDIIgChhshLD4BC6WwaAJmegQWwSpWu/m4C2fDgYekmDglMzyAbEKXfvmO0X6joOyamaAB6gdeqXUAbE6iH/yZXbUWGvE4Y9ZiajyASwr8RhFsFmdulL94uWeztyyJZQAjSswAI6CwAM2CHZ9nmPgWE4BjX7HhGCOKMcbhvVSu5x7l9pOas+gR/SunALwAQUeMGoB6OOUBAgQ5Ymv2kbT08uU8FEoJc7IOgZnEsStiqa+NCGAAVCAFWvLqAaJBKAf9TkSyMAhSh+MgdF8CAMEJi8bGUzzO7Ea9BHlwZpFxjHyy1rzFmUA80iisdGChB1VAyDbGU4AK+AJp/FtBv9kTgeRHGuOXZNQFeKmMC0mUGbGETApU4urls2ZSu+eCQTV3AC127hhdg60UAzKADpj3AOs6WjXqIRBazfLz+Qv9wdHD/Eii+eLwx2OaNimgPJQ20SAQ4pFLTZhGFzCPhud2nDh9jwDyk6+Goli9ypXmmAJU0xjQ6kPvlszQb9z5HoPnDKlGFeVWGZc+oyFLPjahAaBuInq0qmU51dnVRoXEwcA16FQAUhxU5w064c3kPCDAwcA7MYHgD0Q8S8Enm8RMPIAwi0yYAoA5vYTXkJB0E9yuCRFYLcAx11hQq0Bin0zhOIYAHwAxodDT4kEMWECPSMQFnRxCIMxT5FQHoMD0ngxLUNGAymCJbgRWQlzviQxWl9yvGsAASoA1NoR2BF0JMoXbm0ToCcQ+f0XhGAxZFAkQbchvVBxXHtx4u2CPL82MBGPBNMBEA/2AReyY67CYyBAUblQeBf5gsVEIUz+CH0BFhU6Fy6RB3MkEd2eAAelEXC/A8FtcfBXdDBGGABvELbLFILEGF2SABLyA2yuNGzCBTNzFvQ0E25kF0ymAeDgiIsdgvOAMa3fEPkbQXfoRipAEGohgTtmBQ0DEDCsgSqcgXPYIObeSLssiM+5ISFkCM1TEBPFCIufMM60An0diM2zgv4DZ3J+Iz1eg01sSN5WiOCEI14igYD7cX6XiO7wiP8SiP82gjAQEAOw==;" vertex="1" parent="1">
          <mxGeometry x="132" y="140" width="490" height="382" as="geometry" />
        </mxCell>
        <mxCell id="4n8iimfxromp_NEZm5Ki-2" value="当有人来访问王府的时候（比如找格格要银子），前门门官（接收线程）负责接收各种消息，&lt;br&gt;根据消息内容（taskID）--“找张格格”（income-queue），门官找到张格格的的侍女（executor）&lt;br&gt;，由侍女把消息带给格格，格格吩咐下人去内务府取银子（工作线程），取完银子，交给后门门&lt;br&gt;官（发送线程）负责分发各种消息，根据消息内容，自己处理一下（transfer-queue），某些事&lt;br&gt;怎么安排，然后分派不同侍从（executor），把一些事办了（比如送银子）&lt;br&gt;&lt;br&gt;" style="text;html=1;resizable=0;points=[];autosize=1;align=left;verticalAlign=top;spacingTop=-4;" vertex="1" parent="1">
          <mxGeometry x="125.5" y="560" width="520" height="90" as="geometry" />
        </mxCell>
        <mxCell id="4n8iimfxromp_NEZm5Ki-5" value="" style="shape=image;verticalLabelPosition=bottom;labelBackgroundColor=#ffffff;verticalAlign=top;aspect=fixed;imageAspect=0;image=data:image/gif,R0lGODlhKgLLAOcAAP///+/v7/f3787FtZyUpZylxeb39+bOrXt7e87m7+bWzpytrcXO5r21paW1xe///+/m1s7e71IQKVqce4Q6UkpzhPf3/73Fzt7v797W1s7Fzs7e3oRjQmOcpYRzY1JSY63e5ube5vf/74Q6EBAIGXul5r2UQkoxUnulxb2cc0JapVJra7VrY3t7nEoxKffmtVJKSq3FzqVzlEJahISUpXtaY3tahBkpKZSUe5y13rXF3ilSWkpzpXtapc7ezoStrZScSqXF3lJrSlKEvRkxUuatc8Wl5rVrOhAQUhkxCMXFe97e772UpVIxCMWtxUo6hFqc3vfehOalrXtaCJyc5nve5vfmpUoQCPfOUv/WY+a1SrWMIaVrCPfFY/fFa//ea8WlQpSUGbWMCKV7CKV7GYxjCMW9Gc6cAMWUEM6MALV7EIxzEOatGe+EEMWMxb17vSFahKXOpaXmznNjxcVzlJRjxeal3lJSGUKEvTqUrUprvb1avRljnObeY++EOsXFSu+EcwD/AAAAAAAAAAAAAAAAAAAAAAAAAAAAAAAAAAAAAAAAAAAAAAAAAAAAAAAAAAAAAAAAAAAAAAAAAAAAAAAAAAAAAAAAAAAAAAAAAAAAAAAAAAAAAAAAAAAAAAAAAAAAAAAAAAAAAAAAAAAAAAAAAAAAAAAAAAAAAAAAAAAAAAAAAAAAAAAAAAAAAAAAAAAAAAAAAAAAAAAAAAAAAAAAAAAAAAAAAAAAAAAAAAAAAAAAAAAAAAAAAAAAAAAAAAAAAAAAAAAAAAAAAAAAAAAAAAAAAAAAAAAAAAAAAAAAAAAAAAAAAAAAAAAAAAAAAAAAAAAAAAAAAAAAAAAAAAAAAAAAAAAAAAAAAAAAAAAAAAAAAAAAAAAAAAAAAAAAAAAAAAAAAAAAAAAAAAAAAAAAAAAAAAAAAAAAAAAAAAAAAAAAAAAAAAAAAAAAAAAAAAAAAAAAAAAAAAAAAAAAAAAAAAAAAAAAAAAAAAAAAAAAAAAAAAAAAAAAAAAAAAAAACH5BAEAAIEALAAAAAAqAssAAAj+AAEIHEiwoMGDCBMqXMiwocOHECNKnEixosWLGDNq3Mixo8ePIEOKHEmypMmTKFOqXMmypcuXMGPKnEmzps2bOHPq3Mmzp8+fQIMKHUq0qNGjSJMqXcq0qdOnUKNKnUq1qtWrWLNq3cq1q9evYMOKHUu2rNmzaNOqXcu2rdu3cOPKnUu3rt27ePPq3cu3r9+/gAMLHky4sOHDiBMrXsy4sePHkCNLnky5suXLmDNr3sy5s+fPoEOLHk26tOnTqFOrXs26tevXsGPLnk27tu3buHPr3s27t+/fwIMLH068uPHjyJMrfx1guXPAAgYQKGCA4QEECRYqWECAQcUGDh7+AIBAIMLz81APSJhAoYIFCBcwAIhuHn4A8gyaZ3gAQcOGgQpw0IEHH4AgQAgAZGABAApcYIEIGSS4YIPNiTACCSWIYAIJHQQwgHf3+YfeiERBcAIKKagAgQcrILABCys4MAACK7RwwAoudPACDDHIQKN3AJgwgwgiUEBDAwgoAEMJN9Zw5AoY1ICCAjYggAAGRd7QAQQ2uEBDBjjAkEMKMNhQIIlo/vSCBB/AoAOZYSLwQQQCsLBDmATAsMIKMkzQgAvs8SBdDRU8IIIHPKTQgw81/JDCB2HiYAMGMKAAxAce7BCECBzY4AECOAhBAwMNwNACDjNsQMEQaba6k5L+P3BAQwpEFMBACjsYCMQJMg4AgwMc3IDCAS78cIECAziAww78UYBCERXsiAIHOxRwQQMzSGvCDjKOB8MPHpAALgKfwjBrqhyg4Oq6Nx3wgQ4H7KBBDRM4sGKMDXwwgRHugnAEEhGsWMEC8gHwAgcVeJAED+6u8EEQ7iKgw44IVOpuC+EViYISJ0TgQQssVprCCULMAEJM19HgwEMDBJHQADSIxy5uFijwYIT9aWCBAAosMd4AOkAIQAD/DT2ABtUJFJ0GTCAQMAMQiMCgBt71h4F4EHwoEAQ7L8GfASL0bAGuDiwYU5gXaHBBABoEsN1/2/mgcwYDULDDEgI0UED+ACEAfUATRGQ3c25mF1T4TAumwMPhL7Fwwg8zwoCAE0Kc8MEFHsy6gw440MDBEz5IKuDIQSyBq+CDp+6RBYy7JEIKM8i3IRRKuDDdowa4q0PmOGz5QQ5RfIBAoSJIsQPqqievUesukVlAAzUIYcMCK9AAggKiQk9gAbArgAMCNsxqA38e3JDDZs0xpIAOBaWPEQROFKw8VwoQsIADDg6AwQEEXADAAQvYwHac8J4FLAECDVjAfdiHwPvJzDIQ+J7LFHIoHsgMAilYQQEeKBEB4ABq2FGIu2gwHhysAHnzS6FIaMWACA0ABw7IGwGcBoABeAAGPBDIoVbAAA1EEAH+m5IODoIQnRl65zrhiSD3JDCD+mFgRhsEoAx+IBApkIAIBlBAE5AAggPgoAAiECKQVEhGjKTABRZ0FwE+sABTIeoFH6DBFHggAp5VSiApsMEaNUAgVCmAAp7igQ+qVIMZTu4CEuiAu3BQgzaWYGRhclkRYPCtfAnBARrIk688NYOklfGTFPHVDM44gUKKSVFK+MChhuA9HLigBAAQQaWKBK4huMsHQkCBFFYwAEBVCQZBeMCOqLAjGFQAAEfoQIoy8DsA5CtMNgjVtTzAqxpUwQod4yAocUIkK7zgm+AEJwRecIAGfHOc4wxnOKWWGQX44FF5GtWOHjmDUi0AYQH+yEAGODADDRyAAzwo1QU4YMsPaIADUCjCDHrZAR/sqAMCNNIB9MRLJ3VvSQAY2QWusANfVYyaMUAY7FC4TZxYAQsoTSkWspAFLGhhC1yYwhZMoAUtrJSlKu2CFwSgmRkBUQTfK4ACJAYzoFqJilvzQL1m5AEUANUBCvjSEA9AgwA0YAUEWMKNCoCBFHRgAC3QwPdakIABbEkGLjtAC5bQOe85YawDqIGezldSnlihC11gaRa88AUtgCEMU5CpGMZAWDGIQQt79YIXWNqFKPA0MyKAgM8EsoQIGcR9A4lscwQgP4IsiHUCCYGCxpO+ELjPawAALTtBOxDxiOBqOxr+AvPqapO7ZkGnitUCGcbAhTKIwQxnOINhxUAGMmyhC19Q7GIdO1vVefBksmFdACww3epS97rWzS52t6vd7nL3ujx5ARbyulgwcEEMMN0CGtIQ3PaulwxiKEJyW9qFx9KWOQX4QQH2y9/++ve/AA6wgP37g5XtxLaLNYEa2LsGLqChvWdgw4PbOwYyaOELt/UCO+/rGh0UIAJLwMAGREziEZu4xCg+sYpTzGIVL2EJKMDsTRBsgjGw9wwwJQMa2KAGLqhBDBM+AxrGcFwvrNS+HGYNAwwsk73tRLxZ0MIagouGNqBBDDI1ARfIYAL4oiHIXGbpTpPcGhEsWcYtEYH+k3ViBZZ6WchXJgMYtrAGC0ehCFswLITXAIa9IpnMqVky4n7AWpy8IAvmhbAY1CBf3a6hCFFIbpdvjAY1mCALjgW0kh2AZpZYYM00OdxdwTBlK6NhDVqI9BdILV++diHPEyZuqiGg6dUIWiYWIHRzVxIBHSzBbC/oAnypzGXFJhavi83CqnUMZzvvutafMTOncQ1qmQggAkEIAgMscNfisoG9csawXqOw2LzeGb7ATYOcMw1t1Nw6JgHgaqgtgIEl6AAFUBiAbsXQBiFzAQxR0Gte8ZrcKHRhDRz4MRr+HQUFPbvdmzkzSFw7kABY/OKxHJpAHlBtldB7CRFggA7+sq1tBqCgBFbYd3DbgGqDayGvK42CFkxggi2MoAxrkOkRAM6AEkzWMw/IAAMiIPQNDL3oR2eA0Ymu9KQvHelM38DTlT71DUT95755d0fus4R8ZsAJbgh72J2QgcpmQD6f7jRIqBuACGB75CTXgdt/jYEg6MACh84zsY+gBQ5sodwsNcEUfLuFNKCBDFOQsxUkmwPzeObeDiiAAyJPecpL3vKTl/zlNZ/5ym++857f/A/Ufhtpk/4iZ/+6G94g9rC/4Q1k30CE1NxZjognACAXOcntLveuT5cgS8gBkIK9BWYLucFlSMEX8KrTLiih+EJuwxam0HKpYSAH7OvMBTj+fXHqisDi3gd/AL5fXfI/KAAYCD+9sZv+6locbNVdgq3OwnVtHqR+jjdIZA+oVRp4siHS8X8fsWT2lxH88XWs5wQaoE8ZoAGup4Bo13EUgV0gpwNwl229l37PFnIy8wLLtl4PdmVh4AUBR16RpmURhgZbUAYc8AXsdn3ZpxkW4AAxCAAy80A42FobJxH251oFUDRksSIf8AEtIB4ZkD58E0s4gwN3NzQLAgHNMTYwcAI0gAMnEARRKADTBSELkk8L8n0sAAf5BxJL9nATwVlGkIBlt4b65ICwlwEiwHG15xDx53a6lwPZNnQvZoYKYQXJdQRq0F5mwAWPxleG2AX+NQdkhmcG6IVp9hUA2XZ6kXEB/hMTMwiEYwEBzlIEJ1BWjWIBcRVjTVMAETQ9ATBEM0IDjrctBtBLK2ADCXAAmZMBBPBFVoUDLRBGKwADnQQSSxMETBYRAnB2ApFP4nEgAqEACWh2DIgB+gR2b2BZEngQ01VvIccAQYCHvBcB6ecR4kVqYkBlYlAGxTVTKQAGXTZs7TWOfMZuAmEB2caHizGDNegSGPBhZgEBMPABKzAlwmMqTqIBpYInQuACH+ArDiAECEABFpRRnXQAJ9BGY0IEYyI5v6IBI7MAjcJPJKURL2ADk7c2BxhLCxiFCOQdCvAfEJABCuABBgYBdwf+AUxAHQEAdm7QjPoke7KXAWNng/JmENSVe9i4e0HgdhggiRnxAjG1Bob1ZWRQBlc2WIQ1BuFIZXFmAmtgAu74jtk4h5MRBJUIE5eYjxywAulSOx2AA2FyMilwA1VIPTQgBERILDyAAwsgHrgTL0vAAijSSbQyQ8pSMXkCAsYjgBtxADaQLF/kPS0QAS+EPxGgAA1wAgWQihkgAzSwBC2TjDrgPR9QHjlAAG+gAyuZkzmZkhtgkwKxZrjXaxdodyHXdfK4EVZAc12WczGlBiEoXFQmiLK2fFowZgahAzmAdSQhALPJEkhZEjQoE/GGiWERWZViT6aSAT4AUEFAJqP+MlE5cAQYAgFlGT+xhCsGUAREsDsoAgcJUAQ78AMY8CcIcAJxAFAcIIYgMVQboAHfMgDCQwBxEAQQQINS0ADd0QBy0AApgALe8QIAigME4ABxEANuUAAWIH9zQAMoEAQMKEAMoAAd6oBuUKE/YHfZiIEgJpsv8R4slVxFwAKJF2QQBmeHxwUXZmzCaRAR4ABj2BAIdAFOcAEFiBCIOUH6J5lNaBFE4gRKegGGmRAtuUEGAT8/Kh3+9xAiIAMoEKQHQYkywXHQGZ1MwAAiQABl1Tk1gwDhgSQFkAELEAHXkR1ipYoCMQB3CQEK1ACduQAGYAFIYi8L8EVZZJfhARL+iPmnaGpDLbABSKIDiMoAdOAASNI/MVAzHxMwBwAxQWUBDFAAdQAFQ7CAUpeScuMDCgCiIBAEKOBrGjhjuOWCXQAGZKCbNwZhaUBcaoBbfIUFW1kQEdB4ENGSLrACVAR+R/gAO2NaW/Me/IQBAuAzdRQCxpovcrIyzfF7AsA11DUfC3KthbY1Z9SeeIMgkhVLB4KE4zcyCRBZXThd3uMCO7AAHjADEXCMFjceaDeu8/FQfEiPKGGsqXVZ+LgR9YoQIuAExqk0BAEB3WgRD1KqWvoQrPOwBoGcDyEAq5VahkISB6ABkhc1cvMA0QGHVDMeGxBG/zFd0eEg72gBGoD+Ajnwsm9AAChwAafZQj7QgD0UdqwDahLLEuKVbFiQXDPHBVOpBmpAWGuwBX1mbIx1oweRo0faENIyNh8wJTjwAQ5wADVgAyvgphoEAU2wA2+lQQcgBD0QAdLyOk+QAR4AAinQAhjABC0CJllbAVbVIvUYSwiTN+biA0yQSx8pJxAjKvt0Aw6wRjTQkjGitx2QUSfQIqbzAZVJI1C1AHF0ijWARhCBPyZhbzTQAS2AAg6AdQHgAF9aEdfRmAjxAi6QA9o0I0kTVzS0YRD7P7mYAjGTFuKxAcE4EQ9gAL2Gh0MnHpzqAKepAaTaoXIDdk6QWtNIE3fVBSqlV35lAov+VnNgUFPidlsp5bQHYQDY17Nbky4A8DkPoABOAFC44gNYaydB8zFXKwOQcgLnQyxpdQIxUAPZOQMXAANXiwA14ACwM1E0wJATKyCOGwE1SSADwCtNhSs58DqjBCnm4gLqwrgAwAILBUzxukMavAGyyEYfcJ2s8hBgSRLxxgMzAAdPAAcrzAPTNjQBixGyNAM+sARj+kXz0VZVi6fkUVUsQAIogHeVQjXeQwMYgEAEkJmSucQPwgQfVLA4MFAk4ABOAKC1CDXSQQB5mxS/FxEEOBEVOpTC92sVhwJ1IAUt5B9sPKpuaAc+6ZU0AQFW4E117E3ipE56fMd1/AJ/dhD+8IiFPHoH6oIorzMBpgI7K4ICPnBDG/Ax1PJFj3IyCtC6GTXC+psCFQCf/ZPJ9eQCpxID9ncE7pECYli2NfAB+QICLLAlVhgDdFABbUkDBMCfsMS4QFUBEPABMcACdEQt9vM9/JRBnEJHD8G5IWGsNLDCKsADeIAHPKACLVxVqWW6GiECR0AEVJRHV5udIOkrQrACGZBBHqBMvPIA5DkeNdACNfBVXlIpnBgmY9IivBRHGrArIMAiVuJHZQJQtGsUyHkf3SEROtC7DGEBvZaNOpAf1HgBCbiApIq8HwqNPjAfzysUyakQgdytB6GJTuXPHPAB6ww7G8ABP+A9MOD+Ly2QL6bbADvgHYciBAvgrruzAiWDSx1wAfcSr41cAfFxwDmUAk+QACYg0hXgK6zcAhj0LY+iAaKiA9h0wZzSAhlswyNsyI+yprhSA08QB5ByByXsEM0pEigAB3DAA0OAB0OQ1niQByoAB+rynBsBVF5CUOXbAQgMAS7AIfq4Ah8j1NmRzuy5nifg0gnAAkcSO021LTKwAjWwAtUh1JcMTPoILCWgUE2K0d4DwE8wRg9Rhg0BciUqd7sWdCCqgFQT0RoAjU6gAKspx19hAcR5sARBJAOQHQeAkuChAxgQNBpwQP0DABpwMgSq00y6NQl0tVOyAE4AN9NxH+BR0dv+UR5FqgEMIspWRYPwgQEeGgAOtD7/86BPVDBhxD4KAAIioAHcbd12ugCkmUBH1D+W5RA6EJYfoQMz8ARrvd/8rcIzcHfWnBErGQCIYkJKUgACkgHYJJfpa8PvmdL/cyIBgCvZKSgnkM8dUASgIyW4QrOPgoWPggEEUkmXA8+9GBH/TEHP9lmpleIPsZIMMCOe7RBap39LkG14yI1m6DarzXpusNqrbZNu8KMVzXHLyRXECds6FBJaeBAb5uJNMdbJOOMMcYwDAKQFQQNnrdZcvt9cDgdVVQC0PREiAK82cEAsQkI3QgNidQFf5ANWQpqZIx5FUCMC6QEVwAAvgB3+KcAkE4ABMmAvVgJGjQ2gHrAADTAs5JIDEQQxVQoREEBukk6Ckh4Flh4FVlAEHGACRWAFl/7pn06CJPgCFNE3DcAAIZDREkcQD9B22Sh8ChwRFiA3GqABrOfjrucGC6ABRxPHahEBM4wYCFTfD4rDA2ADBZA3ERA2BJQ14fE2HsJHYs6X3Ph7AaDCz8zfae3lT8ADGBDgGSECfCg14j4Qh3OxDWEBFGfunlUQ4lsQ4jW9KdVS4zVnZLAG5HgEJpC948V8eIVSt9UFpD4R9ROv714QBV1xS4CNeBg0FREAHboBtN56SqoBC/Ahs3fRuJbRHNGrXSwYY4oAS7wCdtn+AJLiBJZbmTcUA0hyJH9ay9PjJPwhd3nYazOgAmqd1nqw1ju/7SqQKtr2FhCQV3qlV0Y2c2FQBk2QlYPVYFt2WCtF9E0r8ByfNWCV2QuRAQ5Qb7sXARzv5A+SWfNRcRY7EDGGEzXjoB9/EFrT0UwgpxEBg0eeF2W+BFIwAayUAj8QA0xQi0LQAhnQADSQmg4gBfaDkQuQAxbABEYQHT9QHTeOAtCsAtru5WuNBz+/BMYr9FigXMplcDDVYFPwW7wpXIZFBlxAU55vo7Q2EdCDADLQkRp9fS6rbajVEmnHTXYiI1CjMwowugxy6grA3RlgN3gDHu+hNhaPQxMRAML+d/A6tDM7o3EVYnEhcP3Yj/0KEAAC0P0W931a+MdMQSS/nQEF0CLHgosgjKZL3gCfEvhomgEbwKcEEEG/AwIMjwI/3+VD0PP9v9YAMYMHBgcRABxEmFDhQoYNHT6EGFHixIUQsmT54kWjFy1kuGzZwoULmjMlS7I5gwaNGC5ktGT0cvGiFYoJLQyo8WHIg4kBIgQBWgDFkppFi4ooEMDoUqYpTixQgOADApwwPmjwQAPHBwZZOcyIkMKGkBZMYKAQAcBDBQtLH+QIopRigAxLICzJQJeuBidO9rhx8/fNGzeD3Wiom0Hx4rxMD4oQASFyZAGUJ1cWAEEyZAGVIXj+nixZsuOFFi5cyMATAoaDqxMOcGAAgIjUANqKwMDAQY4cDJZEyBGABhwVQ4boMY5niPIhPOB0COBgA2nq1a0XfZGlS8wvX7RwUZNyDRcTKk2eSUMyJZoxZMBkiZkFS5cXTCEo0CDXoQUMOoLA1WGJB3S7zjoLfmirQAVFYGEGHwIwgYQOnJqAgAZgSOCAD0DwAAUPhoCghhyKWGEtnsQyyDGg9ItIrwwweDEDBpwIrDDCALtRsDecQAyDDTLYYIP8HBPBCvgyQtILJKNg0gsT1jgiCi+kzCiKKpVM8gsBCnRAB4nSWigABoLwbwkLeDIgB9Z0mEEF5phDbjkVZrj+wIICiFIwTz2pg6CLi2ICY4zwzhCjDC7YIKmNksw774wxuABDI/m6oGkpBXBAgAbZFLLAJ/+AiiCABAEgcM+l7BTV1OpS+CAGJ3JCYIEPCohAwx8a+AAHGApIYQUFPGghK7EAaECCDhjgyTEdcsCzxRftglGBwqalEbBqrSVsMA0QY4zFoiyIAgv5xCX3ovm0eHINMqZQdwsttMBCXJnku8hPCArU4YJvcwMqiAjORMgCfw96YLgZmDMuYRWeO7OA6VRlStRUITYKAnG302INMdBDlIwyxFAJjS3UANm8NBYVw6WY5rNi1JossOCAHhII+Lf/yDSTId1cphiiA3n+7rmmA3BoIQ4HIHAigQZwKOCBAXBYYmgH7CIgAghwWMAABRwA4GkaHAC6KAZySBEiumCE0Yls3aCRRjvcsKMvtrGd9ke7vS3Kii78lEkj78Dw+I4RthCZjEfLIMNd7WLyczuNtrROgC4nsuCn/wIMu9OEAugAjifcPA6POeFogagAHA66JwZQoIGHHjooQAe8U69ovi+6IIOMRUNelww2tjBUpJLVS0mNNbabrz5LG0CgBQMsWMI/uBhg7SHdZqfdpqTCzj57MKsD7uGHAoARggw0MKxtuLfVAL9t41b/Rm6HZMoCveHbCFCPCuVCDDPOW0nKPlIEKW0Ef/e6Tr7+HsKfn0yvWZQ70MKeAAfPwWEGKKieBaTTPYfogAYzqCAFLXgsDjIkOxcxwUhK0oaQiWQNIFmDFopggjCsIWQmYc8WoqCdShmlCB9wAR9A8B8GhGoipSphaRCURCYWaAk58NL4YqSBvwAGbk7Aj2JgtBghxc1adduAAr63lPvhb4cpVAMaPKa7Ru2OJWrQgpKU9KcxkkaDUeRU9ICiA+pRZwM/6EALeAA7BmyOVk1EiANAqAIe8EA5PFDBwmZQAO7RziIc6d+i1kMGE3QBcLkjoJTAoDGSnOwMIdGCdpT3siUQYCotCIKAaiKC65lKBBYQAE8EYIEQBMCXAUjLLrf+hKpKItKYEcEAFOu4OcVowEZyGwADYrTFGAHJfWxLnwY2gD2JCEBv28FIF1iSni1MwXdoUJSiUoLDlXAhjvHBwhcQaJ3T2ESPZPqXgmAGOYU8AHWILAAF3YQwhVmwAIh8QUZMMIaNsTAlkAqnCcqwBgJiKVAb290aTKBKyvnkZg5AQAEIsCmxcW1PAehlAMxnRSs6QTF4YQ2qjvkQCLzApjat6QtqqpkDNECnO9UpTm86Gn3ChXsxGky1XKpFBfyomozpIrbeoIEHkcYK84FPF7YwhpOtZAohAyuiiJeSMcQwPl3AAj+rMzmPOrCYJy1ABhCpA88lbDnJSRgeLGj+0iReMgxj2F0ON3K7dREQJllIIfHUSAY/rZIhMOvPzXxjgUt54AQrAIFRarmnLdLoRlZMqg8Uk8sCVG+mJowXvVJ7OyyYYF0mAAO86GWui2VBrfiKC0NghL7BvM2l1FSM3YA03GbKzTD0W4o3/aSRkKAHDYgaD+FUoob23BCjK1EZVudJHQvoAAVjCgL1ksXB6JSthAHggUAIalfmOIcH3NQT+RKS0IypgQ1dFUMMpXSRLxQBDMvlbxFIiUOzOjZgngKQERMCAQ0MwKWa5WueVLqElnIrA04wghV9QBSZnpYhZZzXu8IwhSmIgSVjKCsaUqmdenUhCrvc07K8JYL+AKBvboepJtoYA9XhOpOlA3grRK4qLsBdN2RlKMMW2DCe3PVPJWYwpRq3oKT5bNcootIjCmgFM0RGR3wldABx3oTX9S7soEGzgAHIVD2LfIdwXc2dpLTThe4w7k9ZOAIXzLAxRJUhUquE7JgAlLOKeGAFEaYILR0AX8c84HyEMcJi8JIB/BTmwUgxrYfni9WNdORRJVasicnjYjl74bYKWhaeNFfj9GERuMMVbgKIa00NxM0wmS6KcrUz4JSwUA1kWMMYXMtYT25hwKbMb6T8tEyJdCoC0vONA/R1TA0WkokdeEIe8GqcON3VOOmFDu0sMLYNWAACXxjlFs6gTo3+7lA7X5gPnVm8nSgsdAtmIAkaKJqFe0HvUzpQsEOY4AEZOG8pSJRwBrSlAB0vhgF2GIxcAZAUTS/kBY3TCBj6xxLCATAlYhAUgLfD7AJFYCgACEAQOqU2K1pY1k6tpnCDBKRtfdENVs6buFK4MfWoUQ17M3a7C7hQkOEwZUrqAs7HtwQQfKqPBwnCtI2JgUMmMQNz8vZx7Bon5YhuBg9kygM61SkMYGAJv/lNBNRexCCgAAoDyELG8l0SjXqBb1noA50dV6V6l+EIuRMZebJwgBygwPDhPfsSzM4fUQHsIAcYeNOWsgFKmkptPAKuU33AF7YBwJ+4rvgLsOA3NKj+4WTrQonHTZK7ONLr1HlKZmYZAAIIpM8O0owAY2AkXGtqvpmcf4MMwF4Tb2KhCIbr9cddYqXWmrOiX8iCxtEQZWODISNKD1MEwAvw4Ut7pl5mIptA5+2u2zU5c3qYBW6pFPIF4Oxq3wADGKAD/9CfTJ/qV/73SP8irq4E2dk5k2iDdmOcu8uqItACMEihJkCyEVgDjTMBLziAEkCBEggv7QMKuICLfqE/PnIABygAf4kAxcMA/uCySkK4AqkcwOAW3nMq/CCMg6C4ikuI+/GCUTqJ3CGD51KDHmQUkhCDTlqc15MwxPMNw3CDAVgMH4G14II1BWAAKGwqH7iWNwj+gSA7sBrEgo4wMpbQgh1Sko4ggwIKJzJII5NgA8HzApI7CE8BiiKqJAU6ptP5su7xgTbZuoThOq6DpO/KP97QPzIJL4ADuCJSO8U7O14aO19COYABjkKCgBtUofUQgyPwgiIIAyHcG4zImDtoCTIAOTUypwfMgvqAnjcswTORGP54P7VzgBX4gBkIr0AMwf0jRLUjiKHAgOeZGNsYr4UQgGhqwwxoCwG4wiCgARzjMR8IIwbwMRkEPU3TG+/YwfVwlClQgydJHFBklDQQNi8QFyIsOd8IrxzwsbZxKpjjouCSQgbwgaZCjFrDkRAoivAaJiMZpVJKiTAgAwPKgij+kKFSQ7dJLJ7jkafS8Kg3JLSH0AFEYyINqsPsCYIZ4IOsI6gyk8XEK8FVhBmX+UWjWBY2o8aiS4/8cq0RAIICXC7AISVESQkkI4Mi8IJ5OsU1S5CPPIjMaAAbMACx68ixM7u0ezbd+C7D84/dCAoU2KMLCEHtiwAMIJ8BsIEOMAgI0IEHQJqDCoE6QAEnwIuZ+5Eo9IHNY5ufQIEAKTsTbDycLKGrygIzXKGVUAMwSJmY5IgtIElCiaGMEMfrYAAoUEoKLAAkXMcmtJumUoDNg8cp9LE32IMrrImUiyUA0JvEcig0II/9mrM+mCO+iQIBEwN1Kwk14ICRQwhfAq/+8OKyiZicY6I68+qeDaiA4uA2PVSOOEGOPEA/m1CVB5Cl1sgIY1MnsuKCNaCoAjQjJZAoMVAUNPCDNZiC0syCHgoY8KKezIGABsCAX1zNhngBG+ALrNEABLABHWiAFaCBEHQCV9IyGiAAwyuAHHAAGlBKEIyBFviAOdC+wRyCH5Cm88mAd9SAKPSxJVgdQbwZW5w/XFyC9ltFPelOAMiOjOkqQlEDAsqYMgilLnCtngvCx1EVVdxPKMCDZJwbxEjHJ2xGKPwR0dKmeJQbN6iL/nNKBtiAEcRRtDOA6IGLA8CCLajGRVmDFIA+rMIISWkcKak+fNNLOoOATgGBMQH+OEZriHqaww1KIgtIL0dKjm7Lq4SBAx5gQ4pJKMSyIXYSGR2Kgr2RFyUByAFDAzPYgiYAgx3CPgCwHMxZCGlhy4c4ABvwgQs4iwMQAgRwgAWIABFoAB1wMALIgDhgVKZhAEXVgQwgGhRYABSYTzJ5AxSYAyhwgKaiOSHZPLWxAxmUC5hxPwNYu0EMRDKZvSK6URJsvIgBOIQAQMAqia2Ko+4YpSJAEnEaFOxysTGNCKBsxfizv/srPDyYg2mxgwFlxzBaUcV8xygUywDlvMIY0FnswNTEP6djgBIYggbAgiM4UxbCTGCViU38Eze9RI9B1x00Npm8AAqEot80ijv++r6qS6KAok3z2zbjWBgaYKJL6gIOSKM2SIP/KSfGkiOYEKXcSb0n+0ZK8ZntM60DWAACwAEagM2HiIoFoAFDPQAEQIANWBpGbR4foIMCWBoC0ACwKQIYoAG8GIAYuBRDlUGudIIWbR9rdaapmo0Z9JmOTLy1mz8Exb/7s9FDVDzNaYgn0oG2EL0jYM6USBxJyQgtAKd/zMcV0q++tA2ye78i6kAO7Bf5A4ERjB4KRIEhQAGWcoJ3bMZmvNam+hGq4lsofJ95hAjuBAADWB0GuCrX0iSWqFO728Tl2hswUMByIjEuGIFs3EsNwFf5qz/ui1qJiDraMdAPvACwg8j+JtqAGTgY8sPNvELdkLUkTswdkzgZMZgCLggDMJBJjegDwHGyCl0JdQFWA2uIyvkUooAAFliBBbgAKkWIYByAAjiaB1CAC8DKnw1GDcDKbXICfREBrLwAJ9gUpTiAqg2BICiAAnADKYhCISHVbfEsDfA8oz3WBYKZpFW7KE1Ntf1WXFSKBwCKJXgBLQiDojsDTnI3P8mIernE0PwfzKzTYTLbZ0vbQOSjtnVbE9StwgNEB2ApxFhf/MBbEBZh9qUqKgQteqyJsQkCnjhchiKwCBwlE4A+vnGSKRiB9uhBkOECxInJKEiLMWEAA9hRtQtXWA2VsLkAh9yTDPiB9EL+XYG4WYSguojsHoDVw4FVjoVBASw0FQhAF2BTj4bFzDJwreIMA34UCVAsiaJrpzKYgo0S3v0YN6Ag2QaQPKPYAAfoUzuKgA2QAmvZls3bPOB7MH9iXurwSbKDnrSbvfrLP++CggPAHZBRFPeIj3c9ks/UQZBxjyjIgKZ9w9m7YDPpRYoAuPByRiYgjLehKilsURBuH3cc0MQM2lqTm8d8GRBoFiv4goUqJR6EEhJTAsZFYCepIZVACZEhsTCADwQSGLKxCSxjuqUFEO4rwdZUFVpKL+JgJD4AITppQyxlIs4hDh4wP9wEoRY4ZFN5ARMYAXYxQxPDS2ykRMPRmJL+MQl807fYSpxS3FcMwIEe+AGePDgltg66mJEb4ZGFrjAfKNp17pmOdL9xLYAD4MJFicnb2Rsa9i8FJDE3TqE6DYERHDsufhnV7I1rwbEw8gFshUdmxA9ajsILIMuWQmHKUYirEkN2yh2NYteN/kclLYPnQieJuoPFHaMnmkyE+EWxIx8M3CMtO0SJyRMGWCQ8wOrzIw6HthPX7Z4QaAFuvsjR6YDh6x4vBoMtMIG/I7G27jkAGiuVUNzu6AKvjWOJuBqdQDyTBgDK4+tE41vempZpeQMmuIABgN/P07TKAQrWED28NAlhS4HEaRy8A4MpQBwxSKN10a8E+WuK8F/+L8GAuBiAVotla81Wvm3fQQY+GXADiF4II/GCv7uvdVKJB9wvGp6SGRqJkDED6MxdnAOvQ26L8kWBZ8u/BVU8qpYIp5bisDbnL/22MPUlB7A2RLIAFPjmSBqdNkEB2N6TS+qOPpghDjCn8EiUdUJTuYaU0ZuS23mBzwYACEgBBKCefmnQiWhIU7EAuxVQut2WBaAqiZPfY1qCpZbQLDA2k2AJ40wB5LxByGaDNigninoxiBGYKIIeVuvg9gmjVp5lAt08ba3puXEC8NbCKBglNVAn/1GDKfivJJEjLTA2xbrtP1ASZhOY8NrjhbgAPEK5/tO/ImLV5wHGAygk/0j+EIBdL29bGLBxAIk7JspzYuJoAf+cqXMzICYpgjzruPMwpcAaj1TyG7SiD6aQAhpoAINjbJyJiJ3hb1xyvIBpwwBIlgNBcQxXiOyYbHTapDG0MyWxAolSV+DhgH8kW+pQ8gVjgNL+ohJ+0dW+ACgcZLL0IsJArn01kuj7GDDngtp1DyUoAvJWQFKy8UKJwJl0iANHcIfIiyBwKdVgAiMAAIkLgA2wmRDUgR/ojQtggAuIAB+QgQmgmTIpmDD9UoJyDnUuCE27dRAAkmhkohPyG5lAl5YwvetalDRIGY16pzmalLuOiAO4gBAA35pR4XxqCN3o8eyxE/nOHl7GnTP+PAMzKE5glaM1TWs2NgNhQ3RVWRaeWQIYpFuXEhL8EFBBbh++9SwcqVtp/xIV94gdzDczePFsVAMXMs5gC9KN+R91ceMv7MtxgyLsUdRMKYAVwIFQJc+KNlQIkAH7PtkWUNkPSE8EQIEeUMoLoIESCJX6S6/yYy+FUYE89moaNKZLkpT5mPEn4YJHMRyPeBTyIPMEZrHkOZUXYJo6yb7LMevNMibFRvqDEL2LXuM0hq2Ozh2MWuMxKIM4gjE9AQ68wYAShlYWDGRZlmWF5zzPegOaHoA8fzzKhWdQDM0dVg8TU3wCdqMx2AJPUpk7ZeplqdqFEAECoJEJGAKOxYH+GGgAj/2AFtCAXrmABnAAKSCAH1CABlgAWqGDIMAAO/4J+UMBPMBD29S65cCD9IoAcR770xI9eYmX1LJ2dAFSMzSBLYiteJoXNmXTA2AKJrABYKGZhugPuAg4UjHo8yrwirMCzk4jlfAIvAS5YGOontszTiLjC5f7AiCphABQKlybttkWhEd49qkWiFObqdKA5SWNKAAIQH/AgNmyZsSdMiPIoEFz5iHEhw4loiFDRsuXL166ZBEA4CPIkCExBAmy5EFIEQ0wDKCxAseCARNkOGiwosADCBkANMCBYMACBAQuXLCQosAAGC0wWFgSJAcKFTzwDKlq9eqQGTMSXIj+IPIr2LBix5Ita/YsWgAQorBl+4XtgShW5FqpGyUuXbtt97L1AiFtyAMeVqAoGyDCUwZLAIhg4CAA4MhpUUCWbDmyhRcmthwJw2XKZ4ZnxIw+M1GiGC5a+nTR4sXj5bARcngFi8GHAgYaBrzZ48SNGzvANTjRYJy4Bje/lbvxrcHHhQGVLVvRmCVLlCImOEwRc9r0wzYQG6IRM2aLFuwbr/9FOzvIdAABLAi4QMAJBgADLqgdsAElY04QoIMIEDiRgQiQQaABBAM4gFgODFggAg8zUIWHHlVRlSEeeMzAAwYOMBAbiSWaaJkFYKVoAYspfuQiACuueKJ8GihgnAH+ZpFU0hI6OEBjiQIUEB+QNL7QhRcapcBBGVx8FxF5YpABRhZJVlkkAEvQJtaCz+XmxBtuhDkccMwBt5wdb4x5gQ8DGJcfilYg6QWdbGlh0RZPQtnQFlyYgBGdXvSBxWuABcBADjoA+KIOOuhIZFgYRLAoDXCocFWGQ1A1hApwoCCAAzthOSqppZoKlgI+4dBCbWZZgFgBKCwB46lkPTBkrbFlVmWSUXhhAhlipBHReFKq4RqdWWARRXsnYpDDBmNh8JxxPjynJphl/oYmcGq6IYMTA1hr3AXNSmZFlb5eV6UWJnDBxRhpoDGsQ8JKucaUWWiUbBYcmYvWjq0C4AD+f2SJcJkOWlm16cIqzFBUAQLnOjHFFZOlgBM5SqYDCiVFAKnFFhQAp8VpyWmlvl60ywUZargshhpjcLEFGF3s60W/XgAZQKJkZUCtteOCOeaYZYop5hvEERCDm9BJd5kAcva7LpIatUvGu+/iC+/MVAa67nVddAGbZAyUFMJHOhRcKgpwWLiwhjPAQYN8DkRbMt55UwzBAosC5lgATiW6WN4i4Kq3WXJi0QUWjeurhRYFSdmyCWCkt27jjft1ogVBOErWtMdV+5wTpXu7B9JvMKGcExc4gQAO0RGFX2xRaCE245lzFDYYJgC7WeVFXI4548Vn8a+hiEp4weelWlD+6QwqXKoHHio8MXd+FoiIOPfd05iqBx/QoHFajoGEAaJBfFyyBT/Q6v1Xa9U11/wvvGDFCwfMX9f9Vui/vxU4VxKzBCADGDigAjBgQAMqIAMMuJFx7KCBn2XAgLdZwAIaiIEEggwt/bMLAP2Hvw+GsIRyucvBSLSjHzSPVCwqQKfkphW3ocBFASjA3eCnwx2aZUEDgF0Lz+IYWj0AMTzq4KhENh8ehoVW74vRWFJ4Ih0EATAikKIUQ/LEj1xRJAfL4mWw+KK0tIhFo1oCCiiTKwwUoAMt4EEHIqZFuzGxjnYESQBygzbJaMABfgNJCNIXAZKhZUL0+UgAEhmAEFj+ADICoM+K3HfHOlqAimacJCbTwjEdSIh7bJRYJkMZslStoAXk06QDtggSCOlgCUgEyxIgELgMLMdoGlBgBWM0JFWK0mIgyMEreylKCzCvc4niZa0CQEdhMnNiKTqADRJQth+VBX05CAIDgvkRASxwaEbTVgY2sJNbabOZpTLbHs2pTqJ8xCkmydsNQanOeZooVQgY3zTLGSMImeSVDyigLSt4o9+EKYEfGRk9K6YlwiVUmMSsIiLfo08gaS+HDb2oZbpkAGSKxXyAsSY2O8hNDYRpgkuoIEoJeiBdThSjlkEjIV2KSe0F0Zog4GiR2GhRmfLUVI15jGQe4M5+epH+AWE6EC5PetKfiWknhotpT030LHlGlYns/Io7GVqrila1q6Py6GUsIEimbLMAbzgQSm8TznAmJ2kxkqQd85hNtDxyiwLQCU5FwjOqehV+NO3oNVt6mXj2tbCxSRAEfCRYLmYARkbUQQRS5IY5HOik4gynAi6bHDekaJd2TMEHcABUjwiAcCIIwRJZ5IEWpAgCaKNPHgkAgxoW0nOGvWMQ1gaWB+ggQos11PZuK1y0KMADBejZWATAyK8cgAb4hMCItEcDz7khVihd6wZyk1kwOeGgv50YC3agAwXQoAEEyEAKbhKAFLRgATiIQAMWQAEiROAACEAA02zgAB80AAb+HcirfAY4XB4SU7eRegpfTaTMnQ64wSKxrwYwyKAGFMACqQpVLAdQAxRAAAcFEEADONyACXhFBBdYLwLqgBgavAEFocLsAzdArQwAZwkRgGsdUwADGkDAAyRoQX9h8IQGfCAGOtaBB2jgAR5AoAY0AC0OPgACCBCZbmexpIN36KOzGBGqnMNhlsMcEgXYIDof+MEBhLACJ8QhVA8aQANsoAEKp8ABNBEAEwiwAfM64AA/IEABYtTiqgShgtnVQHYfeAHgIGYIkP2uT1kwA5SYgAQoSMEOQkXkBFjhAw5Icgo6AAEY5OAAobWBWgAQ3lM2Ecti7h6ogjiWAPRW1lL+LYBWX91g+7puBT8YwAoQ4IQFjMy8MtDAfdrMhDhUmMo0iM4CHDCAH+T5lzSoQwEKcIHcWCsDQSPOWXVJxZIwAANL9B5ohYKAoLwOAY8xQQWcgIMV1CAIA/gAAxpQgzU3oAUPeMG8K1yWX0Ja10BSG2A69yAAn2XBBs8yBGTg3gwGwLwJALgDOkwZB6VqAQW0QHNTqRZXpoAGElqCEcIU4xvJGDfGAY4dvLvPkmCTKQwvVQAO6BERPEAEBoxRCHq+RxE8MkGQ6aIFllsWdD6ce8SkJhnf4+UmYuACDnCADgLgtxsyuOnCHeJZXAQgjvrgTM9hAG6sJWOCauAjP4j+T1PG/eiCN3OhXuce8xCWqKmHJAMFqJBWZlABFOTwVl2/e2G3PKo8XuCoNqKWcZbjBB8A4FZbjDu5I5DrqmopwYg/1V8HS24txkcHPHCbVKQHhyfM4HPK9Pzne7oBgWPpATaqZemQo60JvvXckTKb50DgSosRvfhf7CLRdw4AARi/i8wnm4oM8KDY6+2qsYEQ4XhLOAZUwFId+j4eTt/6GAWX+oZ1zB9PFABqZctoanpDA4hCeZEBGH3AZ0Bkc/UCL+yF/2yZSxRsRxHwRf+1BS/xDAiYH96EHom8iudAhtnIBw88AQ9ghVWc3lLckKgoYF8Bzqg8AAXhRunYUoT+uYmo4BoZYV6ifMzNAYbiLA5HNA7kHAFojMEarMERoMHt9IvYwODmfMUDWECEcCDe5FZICMBviUBuINgDBEGIwEEFbgrDaEqn4MT0EaFXgRWpLMoTxccNgVFaoA/NsSCWKM664AwYxMwUrEFD2MsYkAF68Eu/RMEWBYCAYWGuBAAEPN0SQQATBFofigoE5Ac3ocQiTZA9JYABeI7ZtAAUTqGmLMwMdEAIXCEe9tRP0R2N3ArfocWhPIUOCJ8mgsQLEAqvdIEaBAsXsOGepAHWAArOVAn0gQQVXWKuiMAA2AANFIAHuFuqfAAVHEANFECHIcB4eUAH7AYCFIACCIX+UhiACCxADrBIb3HKpWhIJGKjh6jAEiyTLfKUFnLPDY3ii0TAuOGfJkoNkmiBy1SEk+hJvUwJkuQMGFVSELTgN0aGCAwFE3RAHihAyQUBEzDBvLWABkTZBTRADkgBDvzABqQAsWUAHQSBAMAZCJREb0FBBajAFHLIVTjMBjjA5uVjQoUj9yBUkWCe5wzSZZQinWBBsJwBG6zBzLABRXxHariGsnSESGzANJJkqVyREyxBS9gATAzAqjiAEnxAYdyVfqwKUMCEEyhKnh2AUiiGBTCFD1SIFGLKhThMBHgjUDYUA9AA1lmd2pylWqYlW6KlW67lW7YlXKqlGrnQEgD+X0hFhhVgQb9swRicgby4Y55gTbB4B2pchBcQShYhCjmOJVgUyD85AAGkEi7qAH34R0g0AA20HcZsQIKoxS3F3ylhAFdWRaZMoYfwwOs55kWJgI9cQG75yGvOJsHQJvPUJm7epm7mVm7Bpm7apq1hSdKZ4zWVmz4dyRcAy2lURBmQwe9owRZ4x2mMQRhwRKF8xGx0ImueyAUkYFk0lquIRKVcCsNkSlWcHg1w1XZiFD4WEhS1p6k4ILnNChgdhougy52QhkSogeWAwSoWgRV4geRMREVQSRTARuet56lgnakwgFZ0pTY6jKLIkYJW6ALeJUZGVmV0zue8QBaAwV/+okEboMEYmECSdMEWlEER8N8X3MlpiMERyKJ8bImFkor1kUrbzIB5WoUeyA3dOFyNBmnFNAVeal6AeUUpHgFpyIuU2EyStEsRfMF1/MpfmgYarIEWHKgQHp6QkgiDmkoAQA9HZogeOAwcdMBiiAyXdimbYomNjVsEIIoBvAB0kgFErIGJ6ovNsMbUfEEROEl4YGkU8MyItCmQGCHo/d31rB4c0JANiaWhRqoLxSkDoAAUHABMbsEZjKgYgEEUUE2VTGkUdAEZhAEamEFqeConSSrnWN3EbMAP0AAcdYBIQpEuwR6r5ipmSEoOlAAKDACpkoZDkEEKxKLY6CmddEH+CkzBGjrJlETBSehqieQdxbDIfLyP4ayptG7rlQ0OZNBpTD7ElKiMCexOlZjAGoQBYZLBQjzrLHIrGX3pkKoImMGrvUaG3xzJFqjBfjrnFOTpsSoB1niHeGzBFHBAlr7rvZoFwcyHwzYSxD6sxEYsxTqsxVIsxD6SxOrUwnZsZLxAcq7BppqGzKyBEuDMsfKfu6ABG6CBwZJBFxyox2qSWV5dAdgszjrAzepszu6sz+Ys0O4sz14dz8bKSM4s0ooEupCqpkoEHPJfLPJfFygneXABEPCfwibtVxwGAzDABmyA14Lt14atDnxt2Zrt2KIt2EaA2OKf2Lat13Zt2Cr+Bhhqrd16KKny60OYQRlMgeUESheAQWGOxxvG7CPZLeImrjlZARgcASuahhiUQSqWqgmo6xroJ2qswb/KrOJ2rudOkhV8Br68YWq8I8yYh2FaaXlswdSCwXV+LuzGrtMdCeQ07hSMwBQ0LbEQ6OpGqbK8ruwGr/BODHL6XwpYhJ5QhJSw7r4sS9YOL/RGb4kcia9oRIsCSzumgbxo7+S4rhwCr/SGr/iey+IoC1/iTJ1yzRrIzJTwJdUsjhfU7fjOL/2ChYfG4nXsi69oQQpYTrHWyb6ADfjWLwEX8F0JwF0VSPEx3xU1cANDQPFBQAI/bwFXsAVfMAZnsAZvMAeJd7AHfzAIh7AIjzAJl7AJnzAKp7AKrzALt7ALvzAMx7AMzzAN17AN3zAO57AO7zAP97AP/zAQB7EQDzERF7ERHzESJ7ESLzETN7ETPzEUR7EUTzEVV7EVXzEWZ7EWbzEXd7EXfzEYh7EYjzEZl7EZnzEap7EarzEbt7EbvzEcx7EczzEd1zGpBAQAOw==;" vertex="1" parent="1">
          <mxGeometry x="118" y="680" width="494" height="181" as="geometry" />
        </mxCell>
        <mxCell id="4n8iimfxromp_NEZm5Ki-6" value="Worker间进程技术--Netty" style="text;html=1;resizable=0;points=[];autosize=1;align=left;verticalAlign=top;spacingTop=-4;" vertex="1" parent="1">
          <mxGeometry x="150" y="76" width="150" height="20" as="geometry" />
        </mxCell>
        <mxCell id="4n8iimfxromp_NEZm5Ki-7" value="&lt;font face=&quot;helvetica&quot;&gt;流程理解：&lt;/font&gt;" style="text;html=1;" vertex="1" parent="1">
          <mxGeometry x="125" y="530" width="50" height="30" as="geometry" />
        </mxCell>
      </root>
    </mxGraphModel>
  </diagram>
</mxfile>
